{
.appVersion = "965";
classes = (
{
automatic = 1;

glyphs = (
{
glyphname = A;
layers = (
{
anchors = (
{
name = bottom;
position = "{271, 0}";
},
{
name = ogonek;
position = "{415, 12}";
},
{
name = top;
position = "{388, 625}";
}
);
layerId = "2373B5BC-5F65-41C1-A640-5B37284EFBFD";
paths = (
{
closed = 1;
nodes = (
"0 0 OFFCURVE",
"19 4 OFFCURVE",
"58 4 CURVE SMOOTH",
"92 4 OFFCURVE",
"131 0 OFFCURVE",
"157 0 CURVE SMOOTH",
"163 0 OFFCURVE",
"163 12 OFFCURVE",
"158 12 CURVE SMOOTH",
"98 12 OFFCURVE",
"70 26 OFFCURVE",
"129 133 CURVE SMOOTH",
"378 587 LINE",
"361 570 LINE",
"434 84 LINE SMOOTH",
"442 28 OFFCURVE",
"432 12 OFFCURVE",
"367 12 CURVE SMOOTH",
"363 12 OFFCURVE",
"363 0 OFFCURVE",
"367 0 CURVE SMOOTH",
"399 0 OFFCURVE",
"425 4 OFFCURVE",
"462 4 CURVE SMOOTH",
"499 4 OFFCURVE",
"530 0 OFFCURVE",
"561 0 CURVE SMOOTH",
"566 0 OFFCURVE",
"566 12 OFFCURVE",
"561 12 CURVE SMOOTH",
"499 12 OFFCURVE",
"491 29 OFFCURVE",
"483 84 CURVE SMOOTH",
"400 633 LINE SMOOTH",
"399 637 OFFCURVE",
"385 640 OFFCURVE",
"382 635 CURVE SMOOTH",
"94 120 LINE SMOOTH",
"44 33 OFFCURVE",
"0 12 OFFCURVE",
"-34 12 CURVE SMOOTH",
"-39 12 OFFCURVE",
"-39 0 OFFCURVE",
"-34 0 CURVE SMOOTH"
);
},
{
closed = 1;
nodes = (
"430 339 LINE",
"428 358 LINE",
"241 358 LINE",
"226 339 LINE"
);
}
);
width = 599;
},
{
anchors = (
{
name = bottom;
position = "{271, 0}";
},
{
name = ogonek;
position = "{415, 12}";
},
{
name = top;
position = "{386, 625}";
}
);
layerId = "A1717557-2B81-457C-987E-D55DA76CA63F";
paths = (
{
closed = 1;
nodes = (
"0 0 OFFCURVE",
"19 4 OFFCURVE",
"58 4 CURVE SMOOTH",
"101 4 OFFCURVE",
"149 0 OFFCURVE",
"180 0 CURVE SMOOTH",
"186 0 OFFCURVE",
"186 12 OFFCURVE",
"181 12 CURVE SMOOTH",
"99 12 OFFCURVE",
"84 46 OFFCURVE",
"130 129 CURVE SMOOTH",
"379 582 LINE",
"323 505 LINE",
"408 84 LINE SMOOTH",
"420 28 OFFCURVE",
"406 12 OFFCURVE",
"356 12 CURVE SMOOTH",
"351 12 OFFCURVE",
"351 0 OFFCURVE",
"356 0 CURVE SMOOTH",
"391 0 OFFCURVE",
"420 4 OFFCURVE",
"462 4 CURVE SMOOTH",
"504 4 OFFCURVE",
"538 0 OFFCURVE",
"573 0 CURVE SMOOTH",
"578 0 OFFCURVE",
"578 12 OFFCURVE",
"573 12 CURVE SMOOTH",
"522 12 OFFCURVE",
"519 29 OFFCURVE",
"509 84 CURVE SMOOTH",
"400 633 LINE SMOOTH",
"399 637 OFFCURVE",
"385 639 OFFCURVE",
"382 634 CURVE SMOOTH",
"103 136 LINE SMOOTH",
"56 51 OFFCURVE",
"0 12 OFFCURVE",
"-34 12 CURVE SMOOTH",
"-39 12 OFFCURVE",
"-39 0 OFFCURVE",
"-34 0 CURVE SMOOTH"
);
},
{
closed = 1;
nodes = (
"407 295 LINE",
"405 323 LINE",
"218 323 LINE",
"202 295 LINE"
);
}
);
width = 605;
}
);
leftKerningGroup = A;
rightKerningGroup = A;
unicode = 0041;
},
{
glyphname = Aogonek;
layers = (
{
anchors = (
{
name = bottom;
position = "{271, 0}";
},
{
name = ogonek;
position = "{415, 12}";
},
{
name = top;
position = "{389, 625}";
}
);
layerId = "2373B5BC-5F65-41C1-A640-5B37284EFBFD";
paths = (
{
closed = 1;
nodes = (
"418 -275 OFFCURVE",
"442 -265 OFFCURVE",
"473 -242 CURVE SMOOTH",
"476 -239 OFFCURVE",
"471 -232 OFFCURVE",
"468 -234 CURVE SMOOTH",
"456 -241 OFFCURVE",
"443 -248 OFFCURVE",
"416 -248 CURVE SMOOTH",
"345 -248 OFFCURVE",
"317 -194 OFFCURVE",
"329 -131 CURVE SMOOTH",
"343 -54 OFFCURVE",
"408 1 OFFCURVE",
"499 1 CURVE SMOOTH",
"516 1 OFFCURVE",
"527 0 OFFCURVE",
"561 0 CURVE SMOOTH",
"566 0 OFFCURVE",
"566 12 OFFCURVE",
"561 12 CURVE SMOOTH",
"505 12 OFFCURVE",
"491 26 OFFCURVE",
"481 96 CURVE SMOOTH",
"400 633 LINE SMOOTH",
"399 637 OFFCURVE",
"385 640 OFFCURVE",
"382 635 CURVE SMOOTH",
"99 120 LINE SMOOTH",
"50 30 OFFCURVE",
"0 12 OFFCURVE",
"-34 12 CURVE SMOOTH",
"-39 12 OFFCURVE",
"-39 0 OFFCURVE",
"-34 0 CURVE SMOOTH",
"0 0 OFFCURVE",
"19 4 OFFCURVE",
"58 4 CURVE SMOOTH",
"92 4 OFFCURVE",
"131 0 OFFCURVE",
"157 0 CURVE SMOOTH",
"163 0 OFFCURVE",
"163 12 OFFCURVE",
"158 12 CURVE SMOOTH",
"98 12 OFFCURVE",
"76 25 OFFCURVE",
"135 133 CURVE SMOOTH",
"378 587 LINE",
"361 570 LINE",
"430 84 LINE SMOOTH",
"442 1 OFFCURVE",
"311 -37 OFFCURVE",
"290 -165 CURVE SMOOTH",
"278 -234 OFFCURVE",
"310 -275 OFFCURVE",
"384 -275 CURVE SMOOTH"
);
},
{
closed = 1;
nodes = (
"430 339 LINE",
"428 358 LINE",
"253 358 LINE",
"237 339 LINE"
);
}
);
width = 599;
},
{
anchors = (
{
name = bottom;
position = "{271, 0}";
},
{
name = ogonek;
position = "{415, 12}";
},
{
name = top;
position = "{387, 625}";
}
);
layerId = "A1717557-2B81-457C-987E-D55DA76CA63F";
paths = (
{
closed = 1;
nodes = (
"414 -275 OFFCURVE",
"446 -258 OFFCURVE",
"484 -219 CURVE SMOOTH",
"488 -215 OFFCURVE",
"483 -208 OFFCURVE",
"480 -211 CURVE SMOOTH",
"468 -221 OFFCURVE",
"458 -229 OFFCURVE",
"434 -229 CURVE SMOOTH",
"380 -229 OFFCURVE",
"357 -191 OFFCURVE",
"364 -131 CURVE SMOOTH",
"372 -58 OFFCURVE",
"423 1 OFFCURVE",
"478 1 CURVE SMOOTH",
"497 1 OFFCURVE",
"539 0 OFFCURVE",
"573 0 CURVE SMOOTH",
"578 0 OFFCURVE",
"578 12 OFFCURVE",
"573 12 CURVE SMOOTH",
"535 12 OFFCURVE",
"520 26 OFFCURVE",
"509 84 CURVE SMOOTH",
"400 633 LINE SMOOTH",
"399 637 OFFCURVE",
"385 639 OFFCURVE",
"382 634 CURVE SMOOTH",
"103 136 LINE SMOOTH",
"56 51 OFFCURVE",
"0 12 OFFCURVE",
"-34 12 CURVE SMOOTH",
"-39 12 OFFCURVE",
"-39 0 OFFCURVE",
"-34 0 CURVE SMOOTH",
"0 0 OFFCURVE",
"19 4 OFFCURVE",
"58 4 CURVE SMOOTH",
"101 4 OFFCURVE",
"149 0 OFFCURVE",
"180 0 CURVE SMOOTH",
"186 0 OFFCURVE",
"186 12 OFFCURVE",
"181 12 CURVE SMOOTH",
"99 12 OFFCURVE",
"84 46 OFFCURVE",
"130 129 CURVE SMOOTH",
"379 582 LINE",
"323 505 LINE",
"408 84 LINE SMOOTH",
"433 -36 OFFCURVE",
"291 -69 OFFCURVE",
"278 -177 CURVE SMOOTH",
"270 -247 OFFCURVE",
"324 -275 OFFCURVE",
"375 -275 CURVE SMOOTH"
);
},
{
closed = 1;
nodes = (
"407 295 LINE",
"405 323 LINE",
"218 323 LINE",
"202 295 LINE"
);
}
);
width = 605;
}
);
leftKerningGroup = A;
rightKerningGroup = A;
rightMetricsKey = A;
unicode = 0104;
},
{
glyphname = AE;
layers = (
{
anchors = (
{
name = bottom;
position = "{351, 0}";
},
{
name = ogonek;
position = "{177, 12}";
},
{
name = top;
position = "{596, 625}";
}
);
layerId = "2373B5BC-5F65-41C1-A640-5B37284EFBFD";
paths = (
{
closed = 1;
nodes = (
"-21 0 OFFCURVE",
"-2 4 OFFCURVE",
"40 4 CURVE SMOOTH",
"85 4 OFFCURVE",
"109 0 OFFCURVE",
"145 0 CURVE SMOOTH",
"150 0 OFFCURVE",
"151 12 OFFCURVE",
"145 12 CURVE SMOOTH",
"63 12 OFFCURVE",
"68 47 OFFCURVE",
"125 123 CURVE SMOOTH",
"490 602 LINE",
"465 613 LINE",
"396 81 LINE SMOOTH",
"389 23 OFFCURVE",
"371 12 OFFCURVE",
"303 12 CURVE SMOOTH",
"297 12 OFFCURVE",
"297 0 OFFCURVE",
"303 0 CURVE SMOOTH",
"676 0 LINE SMOOTH",
"687 0 OFFCURVE",
"690 4 OFFCURVE",
"692 15 CURVE SMOOTH",
"699 56 OFFCURVE",
"713 110 OFFCURVE",
"723 145 CURVE SMOOTH",
"725 149 OFFCURVE",
"713 151 OFFCURVE",
"712 147 CURVE SMOOTH",
"689 71 OFFCURVE",
"643 18 OFFCURVE",
"595 18 CURVE SMOOTH",
"511 18 LINE SMOOTH",
"444 18 OFFCURVE",
"439 29 OFFCURVE",
"446 85 CURVE SMOOTH",
"503 543 LINE SMOOTH",
"510 600 OFFCURVE",
"526 611 OFFCURVE",
"615 611 CURVE SMOOTH",
"658 611 LINE SMOOTH",
"720 611 OFFCURVE",
"746 564 OFFCURVE",
"735 495 CURVE SMOOTH",
"733 491 OFFCURVE",
"745 490 OFFCURVE",
"746 494 CURVE SMOOTH",
"751 522 OFFCURVE",
"759 580 OFFCURVE",
"765 616 CURVE SMOOTH",
"766 622 OFFCURVE",
"765 625 OFFCURVE",
"758 625 CURVE SMOOTH",
"387 625 LINE SMOOTH",
"381 625 OFFCURVE",
"381 613 OFFCURVE",
"387 613 CURVE SMOOTH",
"462 613 OFFCURVE",
"465 611 OFFCURVE",
"439 574 CURVE SMOOTH",
"104 132 LINE SMOOTH",
"30 35 OFFCURVE",
"-6 12 OFFCURVE",
"-56 12 CURVE SMOOTH",
"-62 12 OFFCURVE",
"-62 0 OFFCURVE",
"-56 0 CURVE SMOOTH"
);
},
{
closed = 1;
nodes = (
"470 316 LINE",
"467 335 LINE",
"282 335 LINE",
"264 316 LINE"
);
},
{
closed = 1;
nodes = (
"671 268 OFFCURVE",
"675 295 OFFCURVE",
"680 325 CURVE SMOOTH",
"683 349 OFFCURVE",
"688 365 OFFCURVE",
"694 404 CURVE SMOOTH",
"695 408 OFFCURVE",
"683 411 OFFCURVE",
"683 406 CURVE SMOOTH",
"674 356 OFFCURVE",
"653 335 OFFCURVE",
"598 335 CURVE SMOOTH",
"467 335 LINE",
"464 316 LINE SMOOTH",
"591 316 LINE SMOOTH",
"649 316 OFFCURVE",
"664 297 OFFCURVE",
"654 237 CURVE SMOOTH",
"654 234 OFFCURVE",
"664 232 OFFCURVE",
"665 235 CURVE SMOOTH"
);
}
);
width = 768;
},
{
anchors = (
{
name = bottom;
position = "{352, 0}";
},
{
name = ogonek;
position = "{177, 12}";
},
{
name = top;
position = "{561, 625}";
}
);
layerId = "A1717557-2B81-457C-987E-D55DA76CA63F";
paths = (
{
closed = 1;
nodes = (
"-21 0 OFFCURVE",
"-2 4 OFFCURVE",
"40 4 CURVE SMOOTH",
"85 4 OFFCURVE",
"156 0 OFFCURVE",
"192 0 CURVE SMOOTH",
"196 0 OFFCURVE",
"198 12 OFFCURVE",
"192 12 CURVE SMOOTH",
"119 12 OFFCURVE",
"94 62 OFFCURVE",
"136 123 CURVE SMOOTH",
"467 602 LINE",
"440 613 LINE",
"371 81 LINE SMOOTH",
"364 23 OFFCURVE",
"352 12 OFFCURVE",
"303 12 CURVE SMOOTH",
"297 12 OFFCURVE",
"297 0 OFFCURVE",
"303 0 CURVE SMOOTH",
"676 0 LINE",
"687 0 OFFCURVE",
"690 4 OFFCURVE",
"692 15 CURVE SMOOTH",
"701 60 OFFCURVE",
"713 118 OFFCURVE",
"726 157 CURVE SMOOTH",
"727 160 OFFCURVE",
"717 163 OFFCURVE",
"715 159 CURVE SMOOTH",
"671 73 OFFCURVE",
"601 18 OFFCURVE",
"532 18 CURVE SMOOTH",
"519 18 LINE SMOOTH",
"470 18 OFFCURVE",
"464 29 OFFCURVE",
"471 85 CURVE SMOOTH",
"529 543 LINE SMOOTH",
"535 589 OFFCURVE",
"552 611 OFFCURVE",
"586 611 CURVE SMOOTH",
"604 611 LINE SMOOTH",
"677 611 OFFCURVE",
"727 561 OFFCURVE",
"733 483 CURVE SMOOTH",
"733 480 OFFCURVE",
"744 477 OFFCURVE",
"745 482 CURVE SMOOTH",
"750 512 OFFCURVE",
"760 577 OFFCURVE",
"766 616 CURVE SMOOTH",
"767 622 OFFCURVE",
"766 625 OFFCURVE",
"760 625 CURVE SMOOTH",
"352 625 LINE SMOOTH",
"346 625 OFFCURVE",
"346 613 OFFCURVE",
"352 613 CURVE SMOOTH",
"427 613 OFFCURVE",
"436 614 OFFCURVE",
"411 577 CURVE SMOOTH",
"110 135 LINE SMOOTH",
"42 34 OFFCURVE",
"-6 12 OFFCURVE",
"-56 12 CURVE SMOOTH",
"-62 12 OFFCURVE",
"-62 0 OFFCURVE",
"-56 0 CURVE SMOOTH"
);
},
{
closed = 1;
nodes = (
"469 311 LINE",
"467 339 LINE",
"282 339 LINE",
"263 311 LINE"
);
},
{
closed = 1;
nodes = (
"682 261 OFFCURVE",
"684 291 OFFCURVE",
"691 325 CURVE SMOOTH",
"697 352 OFFCURVE",
"701 371 OFFCURVE",
"708 414 CURVE SMOOTH",
"709 420 OFFCURVE",
"697 421 OFFCURVE",
"696 415 CURVE SMOOTH",
"684 360 OFFCURVE",
"651 339 OFFCURVE",
"592 339 CURVE SMOOTH",
"432 339 LINE",
"428 311 LINE SMOOTH",
"585 311 LINE SMOOTH",
"642 311 OFFCURVE",
"673 281 OFFCURVE",
"663 223 CURVE SMOOTH",
"662 218 OFFCURVE",
"674 216 OFFCURVE",
"675 222 CURVE SMOOTH"
);
}
);
width = 772;
}
);
leftKerningGroup = A;
rightMetricsKey = "=E";
unicode = 00C6;
},
{
glyphname = B;
layers = (
{
anchors = (
{
name = bottom;
position = "{222, 0}";
},
{
name = top;
position = "{332, 625}";
}
);
layerId = "2373B5BC-5F65-41C1-A640-5B37284EFBFD";
paths = (
{
closed = 1;
nodes = (
"384 367 OFFCURVE",
"444 416 OFFCURVE",
"461 491 CURVE SMOOTH",
"477 566 OFFCURVE",
"443 628 OFFCURVE",
"327 628 CURVE SMOOTH",
"302 628 OFFCURVE",
"253 622 OFFCURVE",
"221 622 CURVE SMOOTH",
"184 622 OFFCURVE",
"147 625 OFFCURVE",
"118 625 CURVE SMOOTH",
"113 625 OFFCURVE",
"113 613 OFFCURVE",
"118 613 CURVE SMOOTH",
"186 613 OFFCURVE",
"195 602 OFFCURVE",
"186 545 CURVE SMOOTH",
"104 82 LINE SMOOTH",
"94 25 OFFCURVE",
"78 12 OFFCURVE",
"9 12 CURVE SMOOTH",
"5 12 OFFCURVE",
"5 0 OFFCURVE",
"9 0 CURVE SMOOTH",
"36 0 OFFCURVE",
"74 2 OFFCURVE",
"113 2 CURVE SMOOTH",
"154 2 OFFCURVE",
"206 -4 OFFCURVE",
"246 -4 CURVE SMOOTH",
"351 -4 OFFCURVE",
"444 80 OFFCURVE",
"462 181 CURVE SMOOTH",
"480 280 OFFCURVE",
"420 353 OFFCURVE",
"309 353 CURVE",
"297 344 LINE"
);
},
{
closed = 1;
nodes = (
"406 615 OFFCURVE",
"425 556 OFFCURVE",
"413 491 CURVE SMOOTH",
"399 413 OFFCURVE",
"347 351 OFFCURVE",
"240 351 CURVE SMOOTH",
"237 351 OFFCURVE",
"211 351 OFFCURVE",
"172 354 CURVE",
"198 346 LINE",
"232 540 LINE SMOOTH",
"244 612 OFFCURVE",
"261 615 OFFCURVE",
"306 615 CURVE SMOOTH"
);
},
{
closed = 1;
nodes = (
"154 12 OFFCURVE",
"142 29 OFFCURVE",
"151 80 CURVE SMOOTH",
"196 338 LINE",
"171 327 LINE",
"204 332 OFFCURVE",
"235 333 OFFCURVE",
"270 332 CURVE SMOOTH",
"374 330 OFFCURVE",
"422 265 OFFCURVE",
"406 164 CURVE SMOOTH",
"392 77 OFFCURVE",
"337 12 OFFCURVE",
"234 12 CURVE SMOOTH"
);
},
{
closed = 0;
nodes = (
"172 354 LINE"
);
}
);
width = 511;
},
{
anchors = (
{
name = bottom;
position = "{247, 0}";
},
{
name = top;
position = "{357, 625}";
}
);
layerId = "A1717557-2B81-457C-987E-D55DA76CA63F";
paths = (
{
closed = 1;
nodes = (
"436 358 OFFCURVE",
"506 421 OFFCURVE",
"522 494 CURVE SMOOTH",
"539 580 OFFCURVE",
"475 628 OFFCURVE",
"350 628 CURVE SMOOTH",
"311 628 OFFCURVE",
"273 622 OFFCURVE",
"237 622 CURVE SMOOTH",
"195 622 OFFCURVE",
"157 625 OFFCURVE",
"125 625 CURVE SMOOTH",
"123 625 OFFCURVE",
"120 613 OFFCURVE",
"125 613 CURVE SMOOTH",
"174 613 OFFCURVE",
"186 605 OFFCURVE",
"177 547 CURVE SMOOTH",
"95 84 LINE SMOOTH",
"84 27 OFFCURVE",
"67 12 OFFCURVE",
"15 12 CURVE SMOOTH",
"13 12 OFFCURVE",
"12 0 OFFCURVE",
"15 0 CURVE SMOOTH",
"46 0 OFFCURVE",
"87 2 OFFCURVE",
"131 2 CURVE SMOOTH",
"170 2 OFFCURVE",
"226 -4 OFFCURVE",
"260 -4 CURVE SMOOTH",
"388 -4 OFFCURVE",
"499 73 OFFCURVE",
"520 175 CURVE SMOOTH",
"540 278 OFFCURVE",
"464 353 OFFCURVE",
"325 353 CURVE",
"312 333 LINE"
);
},
{
closed = 1;
nodes = (
"407 608 OFFCURVE",
"442 571 OFFCURVE",
"425 496 CURVE SMOOTH",
"408 416 OFFCURVE",
"354 351 OFFCURVE",
"277 351 CURVE SMOOTH",
"275 351 OFFCURVE",
"248 351 OFFCURVE",
"209 353 CURVE",
"241 346 LINE",
"275 538 LINE SMOOTH",
"283 588 OFFCURVE",
"298 608 OFFCURVE",
"335 608 CURVE SMOOTH"
);
},
{
closed = 1;
nodes = (
"189 18 OFFCURVE",
"185 35 OFFCURVE",
"193 77 CURVE SMOOTH",
"237 330 LINE",
"206 318 LINE",
"240 324 OFFCURVE",
"271 324 OFFCURVE",
"285 324 CURVE SMOOTH",
"399 324 OFFCURVE",
"434 258 OFFCURVE",
"413 163 CURVE SMOOTH",
"394 71 OFFCURVE",
"343 18 OFFCURVE",
"244 18 CURVE SMOOTH"
);
},
{
closed = 0;
nodes = (
"209 353 LINE"
);
}
);
width = 561;
}
);
unicode = 0042;
},
{
glyphname = C;
layers = (
{
anchors = (
{
name = bottom;
position = "{305, 0}";
},
{
name = top;
position = "{418, 625}";
}
);
layerId = "2373B5BC-5F65-41C1-A640-5B37284EFBFD";
leftMetricsKey = "=O";
paths = (
{
closed = 1;
nodes = (
"367 -13 OFFCURVE",
"429 -5 OFFCURVE",
"492 15 CURVE SMOOTH",
"504 19 OFFCURVE",
"505 22 OFFCURVE",
"510 39 CURVE SMOOTH",
"540 145 LINE SMOOTH",
"542 149 OFFCURVE",
"532 153 OFFCURVE",
"530 149 CURVE SMOOTH",
"476 47 OFFCURVE",
"399 -1 OFFCURVE",
"322 -1 CURVE SMOOTH",
"179 -1 OFFCURVE",
"95 154 OFFCURVE",
"129 346 CURVE SMOOTH",
"157 508 OFFCURVE",
"262 615 OFFCURVE",
"396 615 CURVE SMOOTH",
"492 615 OFFCURVE",
"559 578 OFFCURVE",
"566 470 CURVE SMOOTH",
"566 465 OFFCURVE",
"575 465 OFFCURVE",
"577 470 CURVE SMOOTH",
"585 575 LINE SMOOTH",
"586 589 OFFCURVE",
"586 592 OFFCURVE",
"577 599 CURVE SMOOTH",
"546 623 OFFCURVE",
"487 636 OFFCURVE",
"433 636 CURVE SMOOTH",
"273 636 OFFCURVE",
"102 508 OFFCURVE",
"68 319 CURVE SMOOTH",
"40 165 OFFCURVE",
"92 -13 OFFCURVE",
"316 -13 CURVE SMOOTH"
);
}
);
width = 585;
},
{
anchors = (
{
name = bottom;
position = "{309, 0}";
},
{
name = top;
position = "{421, 625}";
}
);
layerId = "A1717557-2B81-457C-987E-D55DA76CA63F";
leftMetricsKey = "=O";
paths = (
{
closed = 1;
nodes = (
"372 -12 OFFCURVE",
"437 -4 OFFCURVE",
"504 19 CURVE SMOOTH",
"516 22 OFFCURVE",
"518 26 OFFCURVE",
"522 42 CURVE SMOOTH",
"549 157 LINE SMOOTH",
"550 160 OFFCURVE",
"542 165 OFFCURVE",
"538 160 CURVE SMOOTH",
"461 56 OFFCURVE",
"393 8 OFFCURVE",
"326 8 CURVE SMOOTH",
"206 8 OFFCURVE",
"146 164 OFFCURVE",
"172 346 CURVE SMOOTH",
"195 511 OFFCURVE",
"280 609 OFFCURVE",
"395 609 CURVE SMOOTH",
"482 609 OFFCURVE",
"543 549 OFFCURVE",
"566 450 CURVE SMOOTH",
"567 446 OFFCURVE",
"577 446 OFFCURVE",
"577 450 CURVE SMOOTH",
"593 584 LINE SMOOTH",
"594 598 OFFCURVE",
"594 602 OFFCURVE",
"585 607 CURVE SMOOTH",
"554 623 OFFCURVE",
"490 636 OFFCURVE",
"436 636 CURVE SMOOTH",
"269 636 OFFCURVE",
"97 519 OFFCURVE",
"60 313 CURVE SMOOTH",
"33 164 OFFCURVE",
"83 -12 OFFCURVE",
"320 -12 CURVE SMOOTH"
);
}
);
width = 588;
}
);
leftKerningGroup = O;
leftMetricsKey = "=O";
rightKerningGroup = C;
unicode = 0043;
},
{
glyphname = D;
layers = (
{
anchors = (
{
name = bottom;
position = "{260, 0}";
},
{
name = center;
position = "{326, 312}";
},
{
name = top;
position = "{325, 625}";
}
);
layerId = "2373B5BC-5F65-41C1-A640-5B37284EFBFD";
rightMetricsKey = "=O";
paths = (
{
closed = 1;
nodes = (
"389 -4 OFFCURVE",
"549 123 OFFCURVE",
"584 323 CURVE SMOOTH",
"614 495 OFFCURVE",
"513 627 OFFCURVE",
"331 627 CURVE SMOOTH",
"302 627 OFFCURVE",
"255 622 OFFCURVE",
"219 622 CURVE SMOOTH",
"180 622 OFFCURVE",
"145 625 OFFCURVE",
"118 625 CURVE SMOOTH",
"115 625 OFFCURVE",
"115 613 OFFCURVE",
"118 613 CURVE SMOOTH",
"182 613 OFFCURVE",
"192 601 OFFCURVE",
"181 544 CURVE SMOOTH",
"99 81 LINE SMOOTH",
"89 23 OFFCURVE",
"75 12 OFFCURVE",
"11 12 CURVE SMOOTH",
"7 12 OFFCURVE",
"7 0 OFFCURVE",
"11 0 CURVE SMOOTH",
"37 0 OFFCURVE",
"70 2 OFFCURVE",
"110 2 CURVE SMOOTH",
"149 2 OFFCURVE",
"200 -4 OFFCURVE",
"232 -4 CURVE SMOOTH"
);
},
{
closed = 1;
nodes = (
"150 9 OFFCURVE",
"138 35 OFFCURVE",
"149 92 CURVE SMOOTH",
"228 542 LINE SMOOTH",
"240 605 OFFCURVE",
"267 614 OFFCURVE",
"337 614 CURVE SMOOTH",
"484 614 OFFCURVE",
"553 476 OFFCURVE",
"522 301 CURVE SMOOTH",
"488 112 OFFCURVE",
"367 9 OFFCURVE",
"226 9 CURVE SMOOTH"
);
}
);
width = 606;
},
{
anchors = (
{
name = bottom;
position = "{284, 0}";
},
{
name = center;
position = "{339, 312}";
},
{
name = top;
position = "{339, 625}";
}
);
layerId = "A1717557-2B81-457C-987E-D55DA76CA63F";
rightMetricsKey = "=O";
paths = (
{
closed = 1;
nodes = (
"414 -4 OFFCURVE",
"586 125 OFFCURVE",
"621 323 CURVE SMOOTH",
"653 502 OFFCURVE",
"542 627 OFFCURVE",
"349 627 CURVE SMOOTH",
"312 627 OFFCURVE",
"270 622 OFFCURVE",
"233 622 CURVE SMOOTH",
"189 622 OFFCURVE",
"151 625 OFFCURVE",
"120 625 CURVE SMOOTH",
"117 625 OFFCURVE",
"117 613 OFFCURVE",
"120 613 CURVE SMOOTH",
"171 613 OFFCURVE",
"180 601 OFFCURVE",
"170 544 CURVE SMOOTH",
"88 81 LINE SMOOTH",
"77 23 OFFCURVE",
"67 12 OFFCURVE",
"13 12 CURVE SMOOTH",
"9 12 OFFCURVE",
"9 0 OFFCURVE",
"13 0 CURVE SMOOTH",
"43 0 OFFCURVE",
"80 2 OFFCURVE",
"124 2 CURVE SMOOTH",
"165 2 OFFCURVE",
"219 -4 OFFCURVE",
"251 -4 CURVE SMOOTH"
);
},
{
closed = 1;
nodes = (
"189 16 OFFCURVE",
"179 40 OFFCURVE",
"188 92 CURVE SMOOTH",
"268 542 LINE SMOOTH",
"276 587 OFFCURVE",
"289 607 OFFCURVE",
"340 607 CURVE SMOOTH",
"502 607 OFFCURVE",
"532 443 OFFCURVE",
"508 301 CURVE SMOOTH",
"476 119 OFFCURVE",
"373 16 OFFCURVE",
"247 16 CURVE SMOOTH"
);
}
);
width = 636;
}
);
leftMetricsKey = H;
rightKerningGroup = O;
rightMetricsKey = O;
unicode = 0044;
},
{
glyphname = Eth;
layers = (
{
components = (
{
name = D;
}
);
layerId = "2373B5BC-5F65-41C1-A640-5B37284EFBFD";
paths = (
{
closed = 1;
nodes = (
"315 302 LINE SMOOTH",
"320 302 OFFCURVE",
"320 320 OFFCURVE",
"315 320 CURVE SMOOTH",
"53 320 LINE SMOOTH",
"47 320 OFFCURVE",
"47 302 OFFCURVE",
"53 302 CURVE SMOOTH"
);
}
);
width = 606;
},
{
components = (
{
name = D;
}
);
layerId = "A1717557-2B81-457C-987E-D55DA76CA63F";
paths = (
{
closed = 1;
nodes = (
"331 297 LINE SMOOTH",
"337 297 OFFCURVE",
"337 325 OFFCURVE",
"331 325 CURVE SMOOTH",
"69 325 LINE SMOOTH",
"63 325 OFFCURVE",
"63 297 OFFCURVE",
"69 297 CURVE SMOOTH"
);
}
);
width = 636;
}
);
rightKerningGroup = O;
unicode = 00D0;
},
{
glyphname = E;
layers = (
{
anchors = (
{
name = bottom;
position = "{270, 0}";
},
{
name = ogonek;
position = "{404, 12}";
},
{
name = top;
position = "{331, 625}";
},
{
name = topleft;
position = "{99, 625}";
}
);
layerId = "2373B5BC-5F65-41C1-A640-5B37284EFBFD";
paths = (
{
closed = 1;
nodes = (
"419 0 LINE SMOOTH",
"429 0 OFFCURVE",
"433 4 OFFCURVE",
"435 15 CURVE SMOOTH",
"442 56 OFFCURVE",
"454 110 OFFCURVE",
"465 145 CURVE SMOOTH",
"467 149 OFFCURVE",
"455 151 OFFCURVE",
"454 147 CURVE SMOOTH",
"432 71 OFFCURVE",
"388 18 OFFCURVE",
"344 18 CURVE SMOOTH",
"213 18 LINE SMOOTH",
"150 18 OFFCURVE",
"142 29 OFFCURVE",
"151 85 CURVE SMOOTH",
"232 543 LINE SMOOTH",
"242 600 OFFCURVE",
"254 611 OFFCURVE",
"317 611 CURVE SMOOTH",
"416 611 LINE SMOOTH",
"467 611 OFFCURVE",
"490 564 OFFCURVE",
"478 495 CURVE SMOOTH",
"477 491 OFFCURVE",
"489 489 OFFCURVE",
"490 494 CURVE SMOOTH",
"495 522 OFFCURVE",
"503 580 OFFCURVE",
"509 616 CURVE SMOOTH",
"510 622 OFFCURVE",
"509 625 OFFCURVE",
"503 625 CURVE SMOOTH",
"122 625 LINE SMOOTH",
"118 625 OFFCURVE",
"118 613 OFFCURVE",
"122 613 CURVE SMOOTH",
"186 613 OFFCURVE",
"195 601 OFFCURVE",
"185 544 CURVE SMOOTH",
"103 81 LINE SMOOTH",
"92 23 OFFCURVE",
"80 12 OFFCURVE",
"15 12 CURVE SMOOTH",
"12 12 OFFCURVE",
"12 0 OFFCURVE",
"15 0 CURVE SMOOTH"
);
},
{
closed = 1;
nodes = (
"411 268 OFFCURVE",
"414 295 OFFCURVE",
"419 325 CURVE SMOOTH",
"422 349 OFFCURVE",
"427 365 OFFCURVE",
"433 402 CURVE SMOOTH",
"434 408 OFFCURVE",
"422 409 OFFCURVE",
"421 404 CURVE SMOOTH",
"413 353 OFFCURVE",
"394 335 OFFCURVE",
"343 335 CURVE SMOOTH",
"174 335 LINE",
"171 316 LINE SMOOTH",
"336 316 LINE SMOOTH",
"391 316 OFFCURVE",
"404 295 OFFCURVE",
"393 235 CURVE SMOOTH",
"392 229 OFFCURVE",
"404 228 OFFCURVE",
"405 234 CURVE SMOOTH"
);
}
);
width = 510;
},
{
anchors = (
{
name = bottom;
position = "{298, 0}";
},
{
name = ogonek;
position = "{420, 12}";
},
{
name = top;
position = "{350, 625}";
},
{
name = topleft;
position = "{99, 625}";
}
);
layerId = "A1717557-2B81-457C-987E-D55DA76CA63F";
paths = (
{
closed = 1;
nodes = (
"435 0 LINE SMOOTH",
"446 0 OFFCURVE",
"449 4 OFFCURVE",
"451 15 CURVE SMOOTH",
"460 60 OFFCURVE",
"473 118 OFFCURVE",
"485 157 CURVE SMOOTH",
"487 160 OFFCURVE",
"476 163 OFFCURVE",
"474 159 CURVE SMOOTH",
"425 75 OFFCURVE",
"345 21 OFFCURVE",
"267 21 CURVE SMOOTH",
"241 21 LINE SMOOTH",
"192 21 OFFCURVE",
"184 32 OFFCURVE",
"193 85 CURVE SMOOTH",
"274 543 LINE SMOOTH",
"283 594 OFFCURVE",
"289 604 OFFCURVE",
"345 604 CURVE SMOOTH",
"363 604 LINE SMOOTH",
"436 604 OFFCURVE",
"487 557 OFFCURVE",
"492 483 CURVE SMOOTH",
"492 480 OFFCURVE",
"503 477 OFFCURVE",
"504 482 CURVE SMOOTH",
"509 512 OFFCURVE",
"519 577 OFFCURVE",
"525 616 CURVE SMOOTH",
"526 622 OFFCURVE",
"525 625 OFFCURVE",
"519 625 CURVE SMOOTH",
"126 625 LINE SMOOTH",
"123 625 OFFCURVE",
"123 613 OFFCURVE",
"126 613 CURVE SMOOTH",
"177 613 OFFCURVE",
"186 601 OFFCURVE",
"175 544 CURVE SMOOTH",
"94 81 LINE SMOOTH",
"83 23 OFFCURVE",
"74 12 OFFCURVE",
"20 12 CURVE SMOOTH",
"16 12 OFFCURVE",
"16 0 OFFCURVE",
"20 0 CURVE SMOOTH"
);
},
{
closed = 1;
nodes = (
"441 261 OFFCURVE",
"444 291 OFFCURVE",
"450 325 CURVE SMOOTH",
"455 352 OFFCURVE",
"460 371 OFFCURVE",
"467 414 CURVE SMOOTH",
"468 420 OFFCURVE",
"456 421 OFFCURVE",
"455 415 CURVE SMOOTH",
"443 360 OFFCURVE",
"411 339 OFFCURVE",
"351 339 CURVE SMOOTH",
"191 339 LINE",
"187 311 LINE SMOOTH",
"344 311 LINE SMOOTH",
"401 311 OFFCURVE",
"432 281 OFFCURVE",
"422 223 CURVE SMOOTH",
"421 218 OFFCURVE",
"433 216 OFFCURVE",
"434 222 CURVE SMOOTH"
);
}
);
width = 531;
}
);
leftMetricsKey = B;
unicode = 0045;
},
{
glyphname = F;
layers = (
{
anchors = (
{
name = bottom;
position = "{208, 0}";
},
{
name = top;
position = "{318, 625}";
}
);
layerId = "2373B5BC-5F65-41C1-A640-5B37284EFBFD";
paths = (
{
closed = 1;
nodes = (
"39 0 OFFCURVE",
"74 2 OFFCURVE",
"110 2 CURVE SMOOTH",
"164 2 OFFCURVE",
"211 0 OFFCURVE",
"247 0 CURVE SMOOTH",
"250 0 OFFCURVE",
"250 12 OFFCURVE",
"247 12 CURVE SMOOTH",
"145 12 OFFCURVE",
"138 26 OFFCURVE",
"149 85 CURVE SMOOTH",
"229 543 LINE SMOOTH",
"240 600 OFFCURVE",
"251 611 OFFCURVE",
"315 611 CURVE SMOOTH",
"414 611 LINE SMOOTH",
"464 611 OFFCURVE",
"488 564 OFFCURVE",
"476 495 CURVE SMOOTH",
"475 491 OFFCURVE",
"487 489 OFFCURVE",
"488 494 CURVE SMOOTH",
"492 522 OFFCURVE",
"501 580 OFFCURVE",
"506 616 CURVE SMOOTH",
"508 622 OFFCURVE",
"506 625 OFFCURVE",
"501 625 CURVE SMOOTH",
"119 625 LINE SMOOTH",
"116 625 OFFCURVE",
"116 613 OFFCURVE",
"119 613 CURVE SMOOTH",
"184 613 OFFCURVE",
"193 600 OFFCURVE",
"182 544 CURVE SMOOTH",
"101 81 LINE SMOOTH",
"90 23 OFFCURVE",
"77 12 OFFCURVE",
"13 12 CURVE SMOOTH",
"9 12 OFFCURVE",
"9 0 OFFCURVE",
"13 0 CURVE"
);
},
{
closed = 1;
nodes = (
"396 256 OFFCURVE",
"399 283 OFFCURVE",
"405 313 CURVE SMOOTH",
"409 337 OFFCURVE",
"413 353 OFFCURVE",
"419 391 CURVE SMOOTH",
"420 396 OFFCURVE",
"408 398 OFFCURVE",
"407 392 CURVE SMOOTH",
"399 342 OFFCURVE",
"380 323 OFFCURVE",
"329 323 CURVE SMOOTH",
"160 323 LINE",
"157 304 LINE SMOOTH",
"322 304 LINE SMOOTH",
"377 304 OFFCURVE",
"389 283 OFFCURVE",
"379 223 CURVE SMOOTH",
"378 218 OFFCURVE",
"389 216 OFFCURVE",
"391 222 CURVE SMOOTH"
);
}
);
width = 483;
},
{
anchors = (
{
name = bottom;
position = "{209, 0}";
},
{
name = top;
position = "{319, 625}";
}
);
layerId = "A1717557-2B81-457C-987E-D55DA76CA63F";
paths = (
{
closed = 1;
nodes = (
"44 0 OFFCURVE",
"83 2 OFFCURVE",
"124 2 CURVE SMOOTH",
"201 2 OFFCURVE",
"248 0 OFFCURVE",
"273 0 CURVE SMOOTH",
"276 0 OFFCURVE",
"276 12 OFFCURVE",
"273 12 CURVE SMOOTH",
"194 12 OFFCURVE",
"179 25 OFFCURVE",
"189 85 CURVE SMOOTH",
"270 543 LINE SMOOTH",
"280 594 OFFCURVE",
"285 604 OFFCURVE",
"342 604 CURVE SMOOTH",
"359 604 LINE SMOOTH",
"433 604 OFFCURVE",
"483 557 OFFCURVE",
"489 483 CURVE SMOOTH",
"489 480 OFFCURVE",
"499 477 OFFCURVE",
"501 482 CURVE SMOOTH",
"505 512 OFFCURVE",
"516 577 OFFCURVE",
"522 616 CURVE SMOOTH",
"523 622 OFFCURVE",
"522 625 OFFCURVE",
"516 625 CURVE SMOOTH",
"123 625 LINE SMOOTH",
"119 625 OFFCURVE",
"119 613 OFFCURVE",
"123 613 CURVE SMOOTH",
"173 613 OFFCURVE",
"182 601 OFFCURVE",
"172 544 CURVE SMOOTH",
"90 81 LINE SMOOTH",
"80 23 OFFCURVE",
"69 12 OFFCURVE",
"15 12 CURVE SMOOTH",
"12 12 OFFCURVE",
"12 0 OFFCURVE",
"15 0 CURVE SMOOTH"
);
},
{
closed = 1;
nodes = (
"414 249 OFFCURVE",
"418 280 OFFCURVE",
"423 313 CURVE SMOOTH",
"428 340 OFFCURVE",
"433 359 OFFCURVE",
"440 402 CURVE SMOOTH",
"441 408 OFFCURVE",
"429 409 OFFCURVE",
"428 404 CURVE SMOOTH",
"416 349 OFFCURVE",
"384 327 OFFCURVE",
"324 327 CURVE SMOOTH",
"187 327 LINE",
"184 299 LINE",
"317 299 LINE SMOOTH",
"374 299 OFFCURVE",
"405 269 OFFCURVE",
"395 212 CURVE SMOOTH",
"394 206 OFFCURVE",
"406 205 OFFCURVE",
"407 211 CURVE SMOOTH"
);
}
);
width = 485;
}
);
rightKerningGroup = F;
unicode = 0046;
},
{
glyphname = G;
layers = (
{
anchors = (
{
name = bottom;
position = "{344, 0}";
},
{
name = top;
position = "{443, 625}";
}
);
layerId = "2373B5BC-5F65-41C1-A640-5B37284EFBFD";
leftMetricsKey = "=O";
paths = (
{
closed = 1;
nodes = (
"387 -12 OFFCURVE",
"453 0 OFFCURVE",
"512 16 CURVE SMOOTH",
"520 19 OFFCURVE",
"523 20 OFFCURVE",
"524 28 CURVE SMOOTH",
"527 44 OFFCURVE",
"522 49 OFFCURVE",
"533 116 CURVE SMOOTH",
"552 222 OFFCURVE",
"558 234 OFFCURVE",
"600 233 CURVE SMOOTH",
"606 233 OFFCURVE",
"605 247 OFFCURVE",
"600 247 CURVE SMOOTH",
"536 243 OFFCURVE",
"483 243 OFFCURVE",
"414 249 CURVE SMOOTH",
"408 249 OFFCURVE",
"407 233 OFFCURVE",
"414 233 CURVE SMOOTH",
"506 233 OFFCURVE",
"509 222 OFFCURVE",
"492 126 CURVE SMOOTH",
"475 23 OFFCURVE",
"440 5 OFFCURVE",
"354 5 CURVE SMOOTH",
"191 5 OFFCURVE",
"95 142 OFFCURVE",
"132 344 CURVE SMOOTH",
"163 508 OFFCURVE",
"271 615 OFFCURVE",
"429 615 CURVE SMOOTH",
"525 615 OFFCURVE",
"582 566 OFFCURVE",
"586 470 CURVE SMOOTH",
"586 465 OFFCURVE",
"596 464 OFFCURVE",
"598 470 CURVE SMOOTH",
"606 575 LINE SMOOTH",
"607 586 OFFCURVE",
"609 589 OFFCURVE",
"601 598 CURVE SMOOTH",
"572 623 OFFCURVE",
"522 636 OFFCURVE",
"468 636 CURVE SMOOTH",
"275 636 OFFCURVE",
"105 501 OFFCURVE",
"70 308 CURVE SMOOTH",
"37 127 OFFCURVE",
"131 -12 OFFCURVE",
"330 -12 CURVE SMOOTH"
);
}
);
width = 630;
},
{
anchors = (
{
name = bottom;
position = "{342, 0}";
},
{
name = top;
position = "{429, 625}";
}
);
layerId = "A1717557-2B81-457C-987E-D55DA76CA63F";
leftMetricsKey = "=O";
paths = (
{
closed = 1;
nodes = (
"392 -12 OFFCURVE",
"468 0 OFFCURVE",
"536 16 CURVE SMOOTH",
"544 19 OFFCURVE",
"546 20 OFFCURVE",
"547 28 CURVE SMOOTH",
"551 44 OFFCURVE",
"547 49 OFFCURVE",
"557 116 CURVE SMOOTH",
"572 221 OFFCURVE",
"572 234 OFFCURVE",
"598 233 CURVE SMOOTH",
"604 233 OFFCURVE",
"602 247 OFFCURVE",
"598 247 CURVE SMOOTH",
"522 243 OFFCURVE",
"458 243 OFFCURVE",
"377 249 CURVE SMOOTH",
"371 249 OFFCURVE",
"370 233 OFFCURVE",
"377 233 CURVE SMOOTH",
"468 233 OFFCURVE",
"477 222 OFFCURVE",
"464 126 CURVE SMOOTH",
"453 35 OFFCURVE",
"427 9 OFFCURVE",
"363 9 CURVE SMOOTH",
"219 9 OFFCURVE",
"143 146 OFFCURVE",
"174 356 CURVE SMOOTH",
"198 512 OFFCURVE",
"285 611 OFFCURVE",
"405 611 CURVE SMOOTH",
"498 611 OFFCURVE",
"557 549 OFFCURVE",
"580 450 CURVE SMOOTH",
"581 446 OFFCURVE",
"589 446 OFFCURVE",
"591 450 CURVE SMOOTH",
"607 584 LINE SMOOTH",
"608 598 OFFCURVE",
"608 602 OFFCURVE",
"599 607 CURVE SMOOTH",
"568 623 OFFCURVE",
"505 636 OFFCURVE",
"447 636 CURVE SMOOTH",
"261 636 OFFCURVE",
"95 506 OFFCURVE",
"61 319 CURVE SMOOTH",
"27 132 OFFCURVE",
"122 -12 OFFCURVE",
"330 -12 CURVE SMOOTH"
);
}
);
width = 633;
}
);
leftKerningGroup = O;
leftMetricsKey = O;
unicode = 0047;
},
{
glyphname = H;
layers = (
{
anchors = (
{
name = bottom;
position = "{313, 0}";
},
{
name = center;
position = "{325, 312}";
},
{
name = top;
position = "{412, 625}";
},
{
name = topleft;
position = "{99, 625}";
}
);
layerId = "2373B5BC-5F65-41C1-A640-5B37284EFBFD";
paths = (
{
closed = 1;
nodes = (
"36 0 OFFCURVE",
"71 2 OFFCURVE",
"108 2 CURVE SMOOTH",
"147 2 OFFCURVE",
"182 0 OFFCURVE",
"209 0 CURVE SMOOTH",
"213 0 OFFCURVE",
"213 12 OFFCURVE",
"209 12 CURVE SMOOTH",
"144 12 OFFCURVE",
"136 23 OFFCURVE",
"146 81 CURVE SMOOTH",
"228 542 LINE SMOOTH",
"239 599 OFFCURVE",
"251 613 OFFCURVE",
"316 613 CURVE SMOOTH",
"319 613 OFFCURVE",
"319 625 OFFCURVE",
"316 625 CURVE SMOOTH",
"290 625 OFFCURVE",
"253 622 OFFCURVE",
"215 622 CURVE SMOOTH",
"178 622 OFFCURVE",
"144 625 OFFCURVE",
"118 625 CURVE SMOOTH",
"115 625 OFFCURVE",
"115 613 OFFCURVE",
"118 613 CURVE SMOOTH",
"182 613 OFFCURVE",
"191 601 OFFCURVE",
"181 544 CURVE SMOOTH",
"99 81 LINE SMOOTH",
"89 23 OFFCURVE",
"75 12 OFFCURVE",
"11 12 CURVE SMOOTH",
"7 12 OFFCURVE",
"7 0 OFFCURVE",
"11 0 CURVE SMOOTH"
);
},
{
closed = 1;
nodes = (
"545 316 LINE",
"547 335 LINE",
"165 335 LINE",
"161 316 LINE"
);
},
{
closed = 1;
nodes = (
"422 0 OFFCURVE",
"458 2 OFFCURVE",
"496 2 CURVE SMOOTH",
"533 2 OFFCURVE",
"568 0 OFFCURVE",
"594 0 CURVE SMOOTH",
"598 0 OFFCURVE",
"598 12 OFFCURVE",
"594 12 CURVE SMOOTH",
"530 12 OFFCURVE",
"520 23 OFFCURVE",
"530 81 CURVE SMOOTH",
"612 544 LINE SMOOTH",
"622 601 OFFCURVE",
"636 613 OFFCURVE",
"699 613 CURVE SMOOTH",
"703 613 OFFCURVE",
"703 625 OFFCURVE",
"699 625 CURVE SMOOTH",
"674 625 OFFCURVE",
"636 622 OFFCURVE",
"600 622 CURVE SMOOTH",
"563 622 OFFCURVE",
"527 625 OFFCURVE",
"502 625 CURVE SMOOTH",
"498 625 OFFCURVE",
"498 613 OFFCURVE",
"502 613 CURVE SMOOTH",
"567 613 OFFCURVE",
"574 599 OFFCURVE",
"564 542 CURVE SMOOTH",
"483 81 LINE SMOOTH",
"473 23 OFFCURVE",
"461 12 OFFCURVE",
"395 12 CURVE SMOOTH",
"392 12 OFFCURVE",
"392 0 OFFCURVE",
"395 0 CURVE SMOOTH"
);
}
);
width = 670;
},
{
anchors = (
{
name = bottom;
position = "{315, 0}";
},
{
name = center;
position = "{327, 312}";
},
{
name = top;
position = "{414, 625}";
},
{
name = topleft;
position = "{99, 625}";
}
);
layerId = "A1717557-2B81-457C-987E-D55DA76CA63F";
paths = (
{
closed = 1;
nodes = (
"42 0 OFFCURVE",
"81 2 OFFCURVE",
"122 2 CURVE SMOOTH",
"166 2 OFFCURVE",
"205 0 OFFCURVE",
"235 0 CURVE SMOOTH",
"239 0 OFFCURVE",
"239 12 OFFCURVE",
"235 12 CURVE SMOOTH",
"184 12 OFFCURVE",
"175 23 OFFCURVE",
"186 81 CURVE SMOOTH",
"268 542 LINE SMOOTH",
"278 598 OFFCURVE",
"288 613 OFFCURVE",
"342 613 CURVE SMOOTH",
"345 613 OFFCURVE",
"345 625 OFFCURVE",
"342 625 CURVE SMOOTH",
"312 625 OFFCURVE",
"271 622 OFFCURVE",
"229 622 CURVE SMOOTH",
"187 622 OFFCURVE",
"150 625 OFFCURVE",
"120 625 CURVE SMOOTH",
"117 625 OFFCURVE",
"117 613 OFFCURVE",
"120 613 CURVE SMOOTH",
"171 613 OFFCURVE",
"180 600 OFFCURVE",
"170 544 CURVE SMOOTH",
"88 81 LINE SMOOTH",
"77 23 OFFCURVE",
"67 12 OFFCURVE",
"13 12 CURVE SMOOTH",
"9 12 OFFCURVE",
"9 0 OFFCURVE",
"13 0 CURVE SMOOTH"
);
},
{
closed = 1;
nodes = (
"547 311 LINE",
"550 339 LINE",
"167 339 LINE",
"164 311 LINE"
);
},
{
closed = 1;
nodes = (
"405 0 OFFCURVE",
"444 2 OFFCURVE",
"487 2 CURVE SMOOTH",
"529 2 OFFCURVE",
"571 0 OFFCURVE",
"596 0 CURVE SMOOTH",
"600 0 OFFCURVE",
"600 12 OFFCURVE",
"596 12 CURVE SMOOTH",
"546 12 OFFCURVE",
"536 23 OFFCURVE",
"546 81 CURVE SMOOTH",
"628 544 LINE SMOOTH",
"639 600 OFFCURVE",
"649 613 OFFCURVE",
"702 613 CURVE SMOOTH",
"705 613 OFFCURVE",
"705 625 OFFCURVE",
"702 625 CURVE SMOOTH",
"673 625 OFFCURVE",
"632 622 OFFCURVE",
"591 622 CURVE SMOOTH",
"549 622 OFFCURVE",
"510 625 OFFCURVE",
"481 625 CURVE SMOOTH",
"477 625 OFFCURVE",
"477 613 OFFCURVE",
"481 613 CURVE SMOOTH",
"531 613 OFFCURVE",
"538 598 OFFCURVE",
"529 542 CURVE SMOOTH",
"448 81 LINE SMOOTH",
"437 23 OFFCURVE",
"429 12 OFFCURVE",
"374 12 CURVE SMOOTH",
"371 12 OFFCURVE",
"371 0 OFFCURVE",
"374 0 CURVE SMOOTH"
);
}
);
width = 675;
}
);
unicode = 0048;
},
{
glyphname = Hbar;
layers = (
{
anchors = (
{
name = bottom;
position = "{302, 0}";
},
{
name = center;
position = "{379, 312}";
},
{
name = top;
position = "{379, 625}";
}
);
layerId = "2373B5BC-5F65-41C1-A640-5B37284EFBFD";
paths = (
{
closed = 1;
nodes = (
"36 0 OFFCURVE",
"71 2 OFFCURVE",
"108 2 CURVE SMOOTH",
"147 2 OFFCURVE",
"182 0 OFFCURVE",
"209 0 CURVE SMOOTH",
"213 0 OFFCURVE",
"213 12 OFFCURVE",
"209 12 CURVE SMOOTH",
"144 12 OFFCURVE",
"136 23 OFFCURVE",
"146 81 CURVE SMOOTH",
"228 542 LINE SMOOTH",
"239 599 OFFCURVE",
"251 613 OFFCURVE",
"316 613 CURVE SMOOTH",
"319 613 OFFCURVE",
"319 625 OFFCURVE",
"316 625 CURVE SMOOTH",
"290 625 OFFCURVE",
"253 622 OFFCURVE",
"215 622 CURVE SMOOTH",
"178 622 OFFCURVE",
"144 625 OFFCURVE",
"118 625 CURVE SMOOTH",
"115 625 OFFCURVE",
"115 613 OFFCURVE",
"118 613 CURVE SMOOTH",
"182 613 OFFCURVE",
"192 601 OFFCURVE",
"181 544 CURVE SMOOTH",
"99 81 LINE SMOOTH",
"89 23 OFFCURVE",
"75 12 OFFCURVE",
"11 12 CURVE SMOOTH",
"7 12 OFFCURVE",
"7 0 OFFCURVE",
"11 0 CURVE SMOOTH"
);
},
{
closed = 1;
nodes = (
"533 222 LINE",
"536 241 LINE",
"153 241 LINE",
"150 222 LINE"
);
},
{
closed = 1;
nodes = (
"557 409 LINE",
"559 428 LINE",
"177 428 LINE",
"173 409 LINE"
);
},
{
closed = 1;
nodes = (
"422 0 OFFCURVE",
"458 2 OFFCURVE",
"496 2 CURVE SMOOTH",
"533 2 OFFCURVE",
"568 0 OFFCURVE",
"594 0 CURVE SMOOTH",
"598 0 OFFCURVE",
"598 12 OFFCURVE",
"594 12 CURVE SMOOTH",
"530 12 OFFCURVE",
"519 23 OFFCURVE",
"530 81 CURVE SMOOTH",
"612 544 LINE SMOOTH",
"622 601 OFFCURVE",
"636 613 OFFCURVE",
"699 613 CURVE SMOOTH",
"703 613 OFFCURVE",
"703 625 OFFCURVE",
"699 625 CURVE SMOOTH",
"674 625 OFFCURVE",
"636 622 OFFCURVE",
"600 622 CURVE SMOOTH",
"563 622 OFFCURVE",
"527 625 OFFCURVE",
"502 625 CURVE SMOOTH",
"498 625 OFFCURVE",
"498 613 OFFCURVE",
"502 613 CURVE SMOOTH",
"567 613 OFFCURVE",
"574 599 OFFCURVE",
"564 542 CURVE SMOOTH",
"483 81 LINE SMOOTH",
"473 23 OFFCURVE",
"461 12 OFFCURVE",
"395 12 CURVE SMOOTH",
"392 12 OFFCURVE",
"392 0 OFFCURVE",
"395 0 CURVE SMOOTH"
);
}
);
width = 670;
},
{
anchors = (
{
name = bottom;
position = "{302, 0}";
},
{
name = center;
position = "{379, 312}";
},
{
name = top;
position = "{379, 625}";
}
);
layerId = "A1717557-2B81-457C-987E-D55DA76CA63F";
paths = (
{
closed = 1;
nodes = (
"42 0 OFFCURVE",
"81 2 OFFCURVE",
"122 2 CURVE SMOOTH",
"166 2 OFFCURVE",
"205 0 OFFCURVE",
"235 0 CURVE SMOOTH",
"239 0 OFFCURVE",
"239 12 OFFCURVE",
"235 12 CURVE SMOOTH",
"184 12 OFFCURVE",
"175 23 OFFCURVE",
"186 81 CURVE SMOOTH",
"268 542 LINE SMOOTH",
"278 598 OFFCURVE",
"288 613 OFFCURVE",
"342 613 CURVE SMOOTH",
"345 613 OFFCURVE",
"345 625 OFFCURVE",
"342 625 CURVE SMOOTH",
"312 625 OFFCURVE",
"271 622 OFFCURVE",
"229 622 CURVE SMOOTH",
"187 622 OFFCURVE",
"150 625 OFFCURVE",
"120 625 CURVE SMOOTH",
"117 625 OFFCURVE",
"117 613 OFFCURVE",
"120 613 CURVE SMOOTH",
"171 613 OFFCURVE",
"180 600 OFFCURVE",
"170 544 CURVE SMOOTH",
"88 81 LINE SMOOTH",
"77 23 OFFCURVE",
"67 12 OFFCURVE",
"13 12 CURVE SMOOTH",
"9 12 OFFCURVE",
"9 0 OFFCURVE",
"13 0 CURVE SMOOTH"
);
},
{
closed = 1;
nodes = (
"547 218 LINE",
"550 246 LINE",
"167 246 LINE",
"164 218 LINE"
);
},
{
closed = 1;
nodes = (
"547 405 LINE",
"550 433 LINE",
"167 433 LINE",
"164 405 LINE"
);
},
{
closed = 1;
nodes = (
"405 0 OFFCURVE",
"444 2 OFFCURVE",
"487 2 CURVE SMOOTH",
"529 2 OFFCURVE",
"571 0 OFFCURVE",
"596 0 CURVE SMOOTH",
"600 0 OFFCURVE",
"600 12 OFFCURVE",
"596 12 CURVE SMOOTH",
"546 12 OFFCURVE",
"536 23 OFFCURVE",
"546 81 CURVE SMOOTH",
"628 544 LINE SMOOTH",
"639 600 OFFCURVE",
"649 613 OFFCURVE",
"702 613 CURVE SMOOTH",
"705 613 OFFCURVE",
"705 625 OFFCURVE",
"702 625 CURVE SMOOTH",
"673 625 OFFCURVE",
"632 622 OFFCURVE",
"591 622 CURVE SMOOTH",
"549 622 OFFCURVE",
"510 625 OFFCURVE",
"481 625 CURVE SMOOTH",
"477 625 OFFCURVE",
"477 613 OFFCURVE",
"481 613 CURVE SMOOTH",
"531 613 OFFCURVE",
"538 598 OFFCURVE",
"529 542 CURVE SMOOTH",
"448 81 LINE SMOOTH",
"437 23 OFFCURVE",
"429 12 OFFCURVE",
"374 12 CURVE SMOOTH",
"371 12 OFFCURVE",
"371 0 OFFCURVE",
"374 0 CURVE SMOOTH"
);
}
);
width = 675;
}
);
unicode = 0126;
},
{
glyphname = I;
layers = (
{
anchors = (
{
name = bottom;
position = "{117, 0}";
},
{
name = ogonek;
position = "{131, 12}";
},
{
name = top;
position = "{223, 625}";
},
{
name = topleft;
position = "{99, 625}";
}
);
layerId = "2373B5BC-5F65-41C1-A640-5B37284EFBFD";
paths = (
{
closed = 1;
nodes = (
"46 0 OFFCURVE",
"81 2 OFFCURVE",
"118 2 CURVE SMOOTH",
"159 2 OFFCURVE",
"192 0 OFFCURVE",
"219 0 CURVE SMOOTH",
"222 0 OFFCURVE",
"222 12 OFFCURVE",
"219 12 CURVE SMOOTH",
"153 12 OFFCURVE",
"144 23 OFFCURVE",
"154 81 CURVE SMOOTH",
"236 542 LINE SMOOTH",
"247 599 OFFCURVE",
"260 613 OFFCURVE",
"324 613 CURVE SMOOTH",
"327 613 OFFCURVE",
"327 625 OFFCURVE",
"324 625 CURVE SMOOTH",
"298 625 OFFCURVE",
"264 622 OFFCURVE",
"222 622 CURVE SMOOTH",
"185 622 OFFCURVE",
"151 625 OFFCURVE",
"124 625 CURVE SMOOTH",
"120 625 OFFCURVE",
"120 613 OFFCURVE",
"124 613 CURVE SMOOTH",
"188 613 OFFCURVE",
"199 601 OFFCURVE",
"188 544 CURVE SMOOTH",
"106 81 LINE SMOOTH",
"96 23 OFFCURVE",
"83 12 OFFCURVE",
"19 12 CURVE SMOOTH",
"15 12 OFFCURVE",
"15 0 OFFCURVE",
"19 0 CURVE SMOOTH"
);
}
);
width = 301;
},
{
anchors = (
{
name = bottom;
position = "{135, 0}";
},
{
name = ogonek;
position = "{145, 12}";
},
{
name = top;
position = "{241, 625}";
},
{
name = topleft;
position = "{99, 625}";
}
);
layerId = "A1717557-2B81-457C-987E-D55DA76CA63F";
paths = (
{
closed = 1;
nodes = (
"55 0 OFFCURVE",
"94 2 OFFCURVE",
"136 2 CURVE SMOOTH",
"181 2 OFFCURVE",
"218 0 OFFCURVE",
"248 0 CURVE SMOOTH",
"251 0 OFFCURVE",
"251 12 OFFCURVE",
"248 12 CURVE SMOOTH",
"196 12 OFFCURVE",
"187 23 OFFCURVE",
"198 81 CURVE SMOOTH",
"280 542 LINE SMOOTH",
"290 599 OFFCURVE",
"299 613 OFFCURVE",
"353 613 CURVE SMOOTH",
"357 613 OFFCURVE",
"357 625 OFFCURVE",
"353 625 CURVE SMOOTH",
"324 625 OFFCURVE",
"287 622 OFFCURVE",
"240 622 CURVE SMOOTH",
"198 622 OFFCURVE",
"160 625 OFFCURVE",
"130 625 CURVE SMOOTH",
"126 625 OFFCURVE",
"126 613 OFFCURVE",
"130 613 CURVE SMOOTH",
"180 613 OFFCURVE",
"191 601 OFFCURVE",
"180 544 CURVE SMOOTH",
"98 81 LINE SMOOTH",
"88 23 OFFCURVE",
"78 12 OFFCURVE",
"25 12 CURVE SMOOTH",
"21 12 OFFCURVE",
"21 0 OFFCURVE",
"25 0 CURVE SMOOTH"
);
}
);
width = 336;
}
);
leftMetricsKey = "H+5";
rightMetricsKey = "H+5";
unicode = 0049;
},
{
glyphname = IJ;
layers = (
{
layerId = "2373B5BC-5F65-41C1-A640-5B37284EFBFD";
paths = (
{
closed = 1;
nodes = (
"400 -13 OFFCURVE",
"499 82 OFFCURVE",
"530 258 CURVE SMOOTH",
"579 542 LINE SMOOTH",
"589 599 OFFCURVE",
"601 613 OFFCURVE",
"662 613 CURVE SMOOTH",
"667 613 OFFCURVE",
"667 625 OFFCURVE",
"662 625 CURVE SMOOTH",
"637 625 OFFCURVE",
"604 622 OFFCURVE",
"566 622 CURVE SMOOTH",
"524 622 OFFCURVE",
"485 625 OFFCURVE",
"451 625 CURVE SMOOTH",
"447 625 OFFCURVE",
"447 613 OFFCURVE",
"451 613 CURVE SMOOTH",
"530 613 OFFCURVE",
"539 601 OFFCURVE",
"529 544 CURVE SMOOTH",
"468 200 LINE SMOOTH",
"447 80 OFFCURVE",
"391 1 OFFCURVE",
"278 1 CURVE SMOOTH",
"177 1 OFFCURVE",
"165 67 OFFCURVE",
"163 111 CURVE SMOOTH",
"161 142 OFFCURVE",
"160 167 OFFCURVE",
"131 167 CURVE SMOOTH",
"117 167 OFFCURVE",
"104 156 OFFCURVE",
"102 136 CURVE SMOOTH",
"92 71 OFFCURVE",
"159 -13 OFFCURVE",
"283 -13 CURVE SMOOTH"
);
},
{
closed = 1;
nodes = (
"83 269 OFFCURVE",
"120 271 OFFCURVE",
"159 271 CURVE SMOOTH",
"201 271 OFFCURVE",
"236 269 OFFCURVE",
"264 269 CURVE SMOOTH",
"269 269 OFFCURVE",
"269 281 OFFCURVE",
"264 281 CURVE SMOOTH",
"194 281 OFFCURVE",
"187 292 OFFCURVE",
"198 350 CURVE SMOOTH",
"232 542 LINE SMOOTH",
"242 599 OFFCURVE",
"255 613 OFFCURVE",
"324 613 CURVE SMOOTH",
"330 613 OFFCURVE",
"330 625 OFFCURVE",
"324 625 CURVE SMOOTH",
"297 625 OFFCURVE",
"261 622 OFFCURVE",
"219 622 CURVE SMOOTH",
"180 622 OFFCURVE",
"143 625 OFFCURVE",
"113 625 CURVE SMOOTH",
"108 625 OFFCURVE",
"108 613 OFFCURVE",
"113 613 CURVE SMOOTH",
"181 613 OFFCURVE",
"191 601 OFFCURVE",
"180 544 CURVE SMOOTH",
"146 350 LINE SMOOTH",
"136 292 OFFCURVE",
"123 281 OFFCURVE",
"55 281 CURVE SMOOTH",
"49 281 OFFCURVE",
"49 269 OFFCURVE",
"55 269 CURVE SMOOTH"
);
}
);
width = 619;
},
{
layerId = "A1717557-2B81-457C-987E-D55DA76CA63F";
paths = (
{
closed = 1;
nodes = (
"415 -14 OFFCURVE",
"525 81 OFFCURVE",
"556 258 CURVE SMOOTH",
"605 542 LINE SMOOTH",
"614 599 OFFCURVE",
"623 613 OFFCURVE",
"674 613 CURVE SMOOTH",
"678 613 OFFCURVE",
"678 625 OFFCURVE",
"674 625 CURVE SMOOTH",
"646 625 OFFCURVE",
"608 622 OFFCURVE",
"566 622 CURVE SMOOTH",
"519 622 OFFCURVE",
"477 625 OFFCURVE",
"440 625 CURVE SMOOTH",
"435 625 OFFCURVE",
"435 613 OFFCURVE",
"440 613 CURVE SMOOTH",
"504 613 OFFCURVE",
"513 601 OFFCURVE",
"503 544 CURVE SMOOTH",
"442 200 LINE SMOOTH",
"421 76 OFFCURVE",
"372 7 OFFCURVE",
"277 7 CURVE SMOOTH",
"193 7 OFFCURVE",
"191 62 OFFCURVE",
"189 112 CURVE SMOOTH",
"188 153 OFFCURVE",
"187 191 OFFCURVE",
"139 191 CURVE SMOOTH",
"101 191 OFFCURVE",
"83 167 OFFCURVE",
"78 136 CURVE SMOOTH",
"67 61 OFFCURVE",
"154 -14 OFFCURVE",
"277 -14 CURVE SMOOTH"
);
},
{
closed = 1;
nodes = (
"75 269 OFFCURVE",
"116 271 OFFCURVE",
"159 271 CURVE SMOOTH",
"206 271 OFFCURVE",
"244 269 OFFCURVE",
"276 269 CURVE SMOOTH",
"281 269 OFFCURVE",
"281 281 OFFCURVE",
"276 281 CURVE SMOOTH",
"221 281 OFFCURVE",
"213 292 OFFCURVE",
"223 350 CURVE SMOOTH",
"257 542 LINE SMOOTH",
"268 599 OFFCURVE",
"277 613 OFFCURVE",
"336 613 CURVE SMOOTH",
"342 613 OFFCURVE",
"342 625 OFFCURVE",
"336 625 CURVE SMOOTH",
"305 625 OFFCURVE",
"265 622 OFFCURVE",
"219 622 CURVE SMOOTH",
"175 622 OFFCURVE",
"135 625 OFFCURVE",
"102 625 CURVE SMOOTH",
"96 625 OFFCURVE",
"96 613 OFFCURVE",
"102 613 CURVE SMOOTH",
"156 613 OFFCURVE",
"165 601 OFFCURVE",
"154 544 CURVE SMOOTH",
"120 350 LINE SMOOTH",
"110 292 OFFCURVE",
"101 281 OFFCURVE",
"43 281 CURVE SMOOTH",
"37 281 OFFCURVE",
"37 269 OFFCURVE",
"43 269 CURVE SMOOTH"
);
}
);
width = 619;
}
);
leftKerningGroup = U;
rightKerningGroup = U;
unicode = 0132;
},
{
glyphname = J;
layers = (
{
anchors = (
{
name = bottom;
position = "{102, 0}";
},
{
name = top;
position = "{212, 625}";
}
);
layerId = "2373B5BC-5F65-41C1-A640-5B37284EFBFD";
paths = (
{
closed = 1;
nodes = (
"76 -146 OFFCURVE",
"113 -89 OFFCURVE",
"142 67 CURVE SMOOTH",
"226 542 LINE SMOOTH",
"236 599 OFFCURVE",
"249 613 OFFCURVE",
"313 613 CURVE SMOOTH",
"317 613 OFFCURVE",
"317 625 OFFCURVE",
"313 625 CURVE SMOOTH",
"288 625 OFFCURVE",
"254 622 OFFCURVE",
"212 622 CURVE SMOOTH",
"174 622 OFFCURVE",
"140 625 OFFCURVE",
"113 625 CURVE SMOOTH",
"110 625 OFFCURVE",
"110 613 OFFCURVE",
"113 613 CURVE SMOOTH",
"178 613 OFFCURVE",
"188 601 OFFCURVE",
"178 544 CURVE SMOOTH",
"89 40 LINE SMOOTH",
"69 -70 OFFCURVE",
"37 -145 OFFCURVE",
"-25 -182 CURVE SMOOTH",
"-28 -185 OFFCURVE",
"-22 -195 OFFCURVE",
"-19 -193 CURVE SMOOTH"
);
}
);
width = 271;
},
{
anchors = (
{
name = bottom;
position = "{87, 0}";
},
{
name = top;
position = "{237, 625}";
}
);
layerId = "A1717557-2B81-457C-987E-D55DA76CA63F";
paths = (
{
closed = 1;
nodes = (
"101 -146 OFFCURVE",
"159 -90 OFFCURVE",
"187 67 CURVE SMOOTH",
"271 542 LINE SMOOTH",
"282 599 OFFCURVE",
"291 613 OFFCURVE",
"345 613 CURVE SMOOTH",
"349 613 OFFCURVE",
"349 625 OFFCURVE",
"345 625 CURVE SMOOTH",
"316 625 OFFCURVE",
"278 622 OFFCURVE",
"232 622 CURVE SMOOTH",
"189 622 OFFCURVE",
"152 625 OFFCURVE",
"122 625 CURVE SMOOTH",
"118 625 OFFCURVE",
"118 613 OFFCURVE",
"122 613 CURVE SMOOTH",
"172 613 OFFCURVE",
"182 601 OFFCURVE",
"172 544 CURVE SMOOTH",
"83 40 LINE SMOOTH",
"63 -70 OFFCURVE",
"32 -145 OFFCURVE",
"-30 -182 CURVE SMOOTH",
"-34 -185 OFFCURVE",
"-28 -194 OFFCURVE",
"-25 -193 CURVE SMOOTH"
);
}
);
width = 317;
}
);
rightKerningGroup = J;
unicode = 004A;
},
{
glyphname = K;
layers = (
{
anchors = (
{
name = bottom;
position = "{290, 0}";
},
{
name = top;
position = "{379, 625}";
}
);
layerId = "2373B5BC-5F65-41C1-A640-5B37284EFBFD";
paths = (
{
closed = 1;
nodes = (
"36 0 OFFCURVE",
"71 2 OFFCURVE",
"108 2 CURVE SMOOTH",
"147 2 OFFCURVE",
"171 0 OFFCURVE",
"198 0 CURVE SMOOTH",
"201 0 OFFCURVE",
"201 12 OFFCURVE",
"198 12 CURVE SMOOTH",
"132 12 OFFCURVE",
"136 23 OFFCURVE",
"146 81 CURVE SMOOTH",
"228 542 LINE SMOOTH",
"239 599 OFFCURVE",
"251 613 OFFCURVE",
"316 613 CURVE SMOOTH",
"319 613 OFFCURVE",
"319 625 OFFCURVE",
"316 625 CURVE SMOOTH",
"290 625 OFFCURVE",
"253 622 OFFCURVE",
"215 622 CURVE SMOOTH",
"178 622 OFFCURVE",
"144 625 OFFCURVE",
"118 625 CURVE SMOOTH",
"115 625 OFFCURVE",
"115 613 OFFCURVE",
"118 613 CURVE SMOOTH",
"182 613 OFFCURVE",
"191 601 OFFCURVE",
"181 544 CURVE SMOOTH",
"99 81 LINE SMOOTH",
"89 23 OFFCURVE",
"75 12 OFFCURVE",
"11 12 CURVE SMOOTH",
"7 12 OFFCURVE",
"7 0 OFFCURVE",
"11 0 CURVE SMOOTH"
);
},
{
closed = 1;
nodes = (
"470 0 OFFCURVE",
"496 0 OFFCURVE",
"540 0 CURVE SMOOTH",
"544 0 OFFCURVE",
"544 12 OFFCURVE",
"540 12 CURVE SMOOTH",
"489 12 OFFCURVE",
"469 15 OFFCURVE",
"364 199 CURVE SMOOTH",
"260 380 LINE",
"218 349 LINE",
"335 145 LINE SMOOTH",
"422 -7 OFFCURVE",
"400 0 OFFCURVE",
"457 0 CURVE SMOOTH"
);
},
{
closed = 1;
nodes = (
"171 295 LINE",
"456 544 LINE SMOOTH",
"513 599 OFFCURVE",
"570 613 OFFCURVE",
"609 613 CURVE SMOOTH",
"613 613 OFFCURVE",
"613 625 OFFCURVE",
"609 625 CURVE SMOOTH",
"586 625 OFFCURVE",
"565 622 OFFCURVE",
"523 622 CURVE SMOOTH",
"477 622 OFFCURVE",
"455 625 OFFCURVE",
"428 625 CURVE SMOOTH",
"425 625 OFFCURVE",
"425 613 OFFCURVE",
"428 613 CURVE SMOOTH",
"488 613 OFFCURVE",
"490 601 OFFCURVE",
"437 550 CURVE SMOOTH",
"150 294 LINE"
);
}
);
width = 587;
},
{
anchors = (
{
name = bottom;
position = "{304, 0}";
},
{
name = top;
position = "{393, 625}";
}
);
layerId = "A1717557-2B81-457C-987E-D55DA76CA63F";
paths = (
{
closed = 1;
nodes = (
"42 0 OFFCURVE",
"81 2 OFFCURVE",
"122 2 CURVE SMOOTH",
"172 2 OFFCURVE",
"201 0 OFFCURVE",
"235 0 CURVE SMOOTH",
"239 0 OFFCURVE",
"239 12 OFFCURVE",
"235 12 CURVE SMOOTH",
"173 12 OFFCURVE",
"175 23 OFFCURVE",
"186 81 CURVE SMOOTH",
"268 542 LINE SMOOTH",
"278 599 OFFCURVE",
"288 613 OFFCURVE",
"342 613 CURVE SMOOTH",
"345 613 OFFCURVE",
"345 625 OFFCURVE",
"342 625 CURVE SMOOTH",
"312 625 OFFCURVE",
"271 622 OFFCURVE",
"229 622 CURVE SMOOTH",
"187 622 OFFCURVE",
"150 625 OFFCURVE",
"120 625 CURVE SMOOTH",
"117 625 OFFCURVE",
"117 613 OFFCURVE",
"120 613 CURVE SMOOTH",
"171 613 OFFCURVE",
"180 601 OFFCURVE",
"170 544 CURVE SMOOTH",
"88 81 LINE SMOOTH",
"77 23 OFFCURVE",
"67 12 OFFCURVE",
"13 12 CURVE SMOOTH",
"9 12 OFFCURVE",
"9 0 OFFCURVE",
"13 0 CURVE SMOOTH"
);
},
{
closed = 1;
nodes = (
"510 0 OFFCURVE",
"539 0 OFFCURVE",
"589 0 CURVE SMOOTH",
"593 0 OFFCURVE",
"593 12 OFFCURVE",
"589 12 CURVE SMOOTH",
"542 12 OFFCURVE",
"530 32 OFFCURVE",
"437 216 CURVE SMOOTH",
"340 411 LINE",
"263 342 LINE",
"353 160 LINE SMOOTH",
"434 -2 OFFCURVE",
"391 0 OFFCURVE",
"495 0 CURVE SMOOTH"
);
},
{
closed = 1;
nodes = (
"185 260 LINE",
"464 518 LINE SMOOTH",
"530 578 OFFCURVE",
"606 613 OFFCURVE",
"658 613 CURVE SMOOTH",
"662 613 OFFCURVE",
"662 625 OFFCURVE",
"658 625 CURVE SMOOTH",
"632 625 OFFCURVE",
"608 622 OFFCURVE",
"560 622 CURVE SMOOTH",
"515 622 OFFCURVE",
"457 625 OFFCURVE",
"430 625 CURVE SMOOTH",
"427 625 OFFCURVE",
"427 613 OFFCURVE",
"430 613 CURVE SMOOTH",
"482 613 OFFCURVE",
"485 567 OFFCURVE",
"439 524 CURVE SMOOTH",
"160 262 LINE"
);
}
);
width = 625;
}
);
leftMetricsKey = H;
rightKerningGroup = K;
unicode = 004B;
},
{
glyphname = L;
layers = (
{
anchors = (
{
name = bottom;
position = "{247, 0}";
},
{
name = center;
position = "{268, 312}";
},
{
name = top;
position = "{216, 625}";
},
{
name = topright;
position = "{513, 625}";
}
);
layerId = "2373B5BC-5F65-41C1-A640-5B37284EFBFD";
paths = (
{
closed = 1;
nodes = (
"426 0 LINE SMOOTH",
"436 0 OFFCURVE",
"440 4 OFFCURVE",
"442 15 CURVE SMOOTH",
"449 56 OFFCURVE",
"462 110 OFFCURVE",
"473 145 CURVE SMOOTH",
"474 149 OFFCURVE",
"461 151 OFFCURVE",
"461 147 CURVE SMOOTH",
"439 71 OFFCURVE",
"401 18 OFFCURVE",
"329 18 CURVE SMOOTH",
"209 18 LINE SMOOTH",
"146 18 OFFCURVE",
"138 29 OFFCURVE",
"147 85 CURVE SMOOTH",
"228 543 LINE SMOOTH",
"239 600 OFFCURVE",
"251 613 OFFCURVE",
"316 613 CURVE SMOOTH",
"319 613 OFFCURVE",
"319 625 OFFCURVE",
"316 625 CURVE SMOOTH",
"290 625 OFFCURVE",
"253 622 OFFCURVE",
"215 622 CURVE SMOOTH",
"178 622 OFFCURVE",
"144 625 OFFCURVE",
"118 625 CURVE SMOOTH",
"115 625 OFFCURVE",
"115 613 OFFCURVE",
"118 613 CURVE SMOOTH",
"182 613 OFFCURVE",
"191 601 OFFCURVE",
"181 544 CURVE SMOOTH",
"99 81 LINE SMOOTH",
"89 23 OFFCURVE",
"76 12 OFFCURVE",
"12 12 CURVE SMOOTH",
"8 12 OFFCURVE",
"8 0 OFFCURVE",
"12 0 CURVE SMOOTH"
);
}
);
width = 494;
},
{
anchors = (
{
name = bottom;
position = "{261, 0}";
},
{
name = center;
position = "{274, 312}";
},
{
name = top;
position = "{230, 625}";
},
{
name = topright;
position = "{527, 625}";
}
);
layerId = "A1717557-2B81-457C-987E-D55DA76CA63F";
paths = (
{
closed = 1;
nodes = (
"440 0 LINE SMOOTH",
"450 0 OFFCURVE",
"454 4 OFFCURVE",
"456 15 CURVE SMOOTH",
"464 63 OFFCURVE",
"480 127 OFFCURVE",
"491 168 CURVE SMOOTH",
"492 172 OFFCURVE",
"482 174 OFFCURVE",
"480 171 CURVE SMOOTH",
"420 68 OFFCURVE",
"347 21 OFFCURVE",
"249 21 CURVE SMOOTH",
"223 21 LINE SMOOTH",
"186 21 OFFCURVE",
"178 32 OFFCURVE",
"187 85 CURVE SMOOTH",
"268 543 LINE SMOOTH",
"278 600 OFFCURVE",
"288 613 OFFCURVE",
"342 613 CURVE SMOOTH",
"345 613 OFFCURVE",
"345 625 OFFCURVE",
"342 625 CURVE SMOOTH",
"312 625 OFFCURVE",
"271 622 OFFCURVE",
"229 622 CURVE SMOOTH",
"187 622 OFFCURVE",
"150 625 OFFCURVE",
"120 625 CURVE SMOOTH",
"117 625 OFFCURVE",
"117 613 OFFCURVE",
"120 613 CURVE SMOOTH",
"171 613 OFFCURVE",
"180 601 OFFCURVE",
"170 544 CURVE SMOOTH",
"88 81 LINE SMOOTH",
"77 23 OFFCURVE",
"68 12 OFFCURVE",
"14 12 CURVE SMOOTH",
"11 12 OFFCURVE",
"11 0 OFFCURVE",
"14 0 CURVE SMOOTH"
);
}
);
width = 505;
}
);
leftMetricsKey = H;
rightKerningGroup = L;
unicode = 004C;
},
{
glyphname = Lslash;
layers = (
{
components = (
{
name = L;
}
);
layerId = "2373B5BC-5F65-41C1-A640-5B37284EFBFD";
paths = (
{
closed = 1;
nodes = (
"292 366 LINE SMOOTH",
"297 368 OFFCURVE",
"288 385 OFFCURVE",
"283 382 CURVE SMOOTH",
"64 256 LINE SMOOTH",
"60 254 OFFCURVE",
"69 237 OFFCURVE",
"74 240 CURVE SMOOTH"
);
}
);
width = 494;
},
{
components = (
{
name = L;
}
);
layerId = "A1717557-2B81-457C-987E-D55DA76CA63F";
paths = (
{
closed = 1;
nodes = (
"292 366 LINE SMOOTH",
"297 368 OFFCURVE",
"288 385 OFFCURVE",
"283 382 CURVE SMOOTH",
"64 256 LINE SMOOTH",
"60 254 OFFCURVE",
"69 237 OFFCURVE",
"74 240 CURVE SMOOTH"
);
}
);
width = 505;
}
);
rightKerningGroup = L;
rightMetricsKey = L;
unicode = 0141;
},
{
glyphname = M;
layers = (
{
anchors = (
{
name = bottom;
position = "{331, 0}";
},
{
name = top;
position = "{429, 625}";
}
);
layerId = "2373B5BC-5F65-41C1-A640-5B37284EFBFD";
paths = (
{
closed = 1;
nodes = (
"494 0 OFFCURVE",
"527 2 OFFCURVE",
"566 2 CURVE SMOOTH",
"605 2 OFFCURVE",
"640 0 OFFCURVE",
"665 0 CURVE SMOOTH",
"669 0 OFFCURVE",
"669 12 OFFCURVE",
"665 12 CURVE SMOOTH",
"601 12 OFFCURVE",
"593 23 OFFCURVE",
"601 81 CURVE SMOOTH",
"670 546 LINE SMOOTH",
"678 602 OFFCURVE",
"709 613 OFFCURVE",
"764 613 CURVE SMOOTH",
"766 613 OFFCURVE",
"766 625 OFFCURVE",
"764 625 CURVE SMOOTH",
"744 625 OFFCURVE",
"727 623 OFFCURVE",
"698 623 CURVE SMOOTH",
"684 623 OFFCURVE",
"668 625 OFFCURVE",
"661 625 CURVE SMOOTH",
"651 625 OFFCURVE",
"639 615 OFFCURVE",
"630 600 CURVE SMOOTH",
"325 35 LINE",
"351 74 LINE",
"244 573 LINE SMOOTH",
"235 616 OFFCURVE",
"229 625 OFFCURVE",
"214 625 CURVE SMOOTH",
"207 625 OFFCURVE",
"196 623 OFFCURVE",
"180 623 CURVE SMOOTH",
"167 623 OFFCURVE",
"144 625 OFFCURVE",
"127 625 CURVE SMOOTH",
"124 625 OFFCURVE",
"124 613 OFFCURVE",
"127 613 CURVE SMOOTH",
"153 613 OFFCURVE",
"189 605 OFFCURVE",
"202 542 CURVE SMOOTH",
"315 8 LINE SMOOTH",
"316 2 OFFCURVE",
"326 2 OFFCURVE",
"329 7 CURVE SMOOTH",
"656 613 LINE",
"630 589 LINE",
"554 81 LINE SMOOTH",
"546 23 OFFCURVE",
"532 12 OFFCURVE",
"467 12 CURVE SMOOTH",
"463 12 OFFCURVE",
"463 0 OFFCURVE",
"467 0 CURVE SMOOTH"
);
},
{
closed = 1;
nodes = (
"41 0 OFFCURVE",
"67 2 OFFCURVE",
"94 2 CURVE SMOOTH",
"124 2 OFFCURVE",
"146 0 OFFCURVE",
"167 0 CURVE SMOOTH",
"171 0 OFFCURVE",
"171 12 OFFCURVE",
"167 12 CURVE SMOOTH",
"119 12 OFFCURVE",
"109 36 OFFCURVE",
"120 104 CURVE SMOOTH",
"209 600 LINE",
"193 602 LINE",
"102 104 LINE SMOOTH",
"89 36 OFFCURVE",
"67 12 OFFCURVE",
"19 12 CURVE SMOOTH",
"15 12 OFFCURVE",
"15 0 OFFCURVE",
"19 0 CURVE SMOOTH"
);
}
);
width = 730;
},
{
anchors = (
{
name = bottom;
position = "{337, 0}";
},
{
name = top;
position = "{447, 625}";
}
);
layerId = "A1717557-2B81-457C-987E-D55DA76CA63F";
paths = (
{
closed = 1;
nodes = (
"491 0 OFFCURVE",
"529 2 OFFCURVE",
"572 2 CURVE SMOOTH",
"615 2 OFFCURVE",
"654 0 OFFCURVE",
"683 0 CURVE SMOOTH",
"687 0 OFFCURVE",
"687 12 OFFCURVE",
"683 12 CURVE SMOOTH",
"633 12 OFFCURVE",
"625 23 OFFCURVE",
"633 81 CURVE SMOOTH",
"702 546 LINE SMOOTH",
"710 602 OFFCURVE",
"730 613 OFFCURVE",
"770 613 CURVE SMOOTH",
"772 613 OFFCURVE",
"772 625 OFFCURVE",
"770 625 CURVE SMOOTH",
"750 625 OFFCURVE",
"733 623 OFFCURVE",
"704 623 CURVE SMOOTH",
"682 623 OFFCURVE",
"651 625 OFFCURVE",
"639 625 CURVE SMOOTH",
"623 625 OFFCURVE",
"609 615 OFFCURVE",
"602 600 CURVE SMOOTH",
"329 39 LINE",
"394 132 LINE",
"301 573 LINE SMOOTH",
"291 616 OFFCURVE",
"285 625 OFFCURVE",
"270 625 CURVE SMOOTH",
"255 625 OFFCURVE",
"223 623 OFFCURVE",
"186 623 CURVE SMOOTH",
"159 623 OFFCURVE",
"138 625 OFFCURVE",
"122 625 CURVE SMOOTH",
"118 625 OFFCURVE",
"118 613 OFFCURVE",
"122 613 CURVE SMOOTH",
"151 613 OFFCURVE",
"193 605 OFFCURVE",
"208 542 CURVE SMOOTH",
"320 8 LINE SMOOTH",
"322 2 OFFCURVE",
"332 2 OFFCURVE",
"335 7 CURVE SMOOTH",
"633 613 LINE",
"609 580 LINE",
"535 81 LINE SMOOTH",
"526 23 OFFCURVE",
"516 12 OFFCURVE",
"461 12 CURVE SMOOTH",
"457 12 OFFCURVE",
"457 0 OFFCURVE",
"461 0 CURVE SMOOTH"
);
},
{
closed = 1;
nodes = (
"39 0 OFFCURVE",
"68 2 OFFCURVE",
"99 2 CURVE SMOOTH",
"135 2 OFFCURVE",
"165 0 OFFCURVE",
"189 0 CURVE SMOOTH",
"193 0 OFFCURVE",
"193 12 OFFCURVE",
"189 12 CURVE SMOOTH",
"143 12 OFFCURVE",
"124 57 OFFCURVE",
"137 130 CURVE SMOOTH",
"222 600 LINE",
"198 602 LINE",
"109 127 LINE SMOOTH",
"96 56 OFFCURVE",
"58 12 OFFCURVE",
"13 12 CURVE SMOOTH",
"9 12 OFFCURVE",
"9 0 OFFCURVE",
"13 0 CURVE SMOOTH"
);
}
);
width = 742;
}
);
unicode = 004D;
},
{
glyphname = N;
layers = (
{
anchors = (
{
name = bottom;
position = "{309, 0}";
},
{
name = top;
position = "{389, 625}";
}
);
layerId = "2373B5BC-5F65-41C1-A640-5B37284EFBFD";
paths = (
{
closed = 1;
nodes = (
"495 -16 OFFCURVE",
"503 -15 OFFCURVE",
"504 -11 CURVE SMOOTH",
"510 65 LINE",
"251 573 LINE SMOOTH",
"233 611 OFFCURVE",
"237 625 OFFCURVE",
"222 625 CURVE SMOOTH",
"215 625 OFFCURVE",
"200 623 OFFCURVE",
"184 623 CURVE SMOOTH",
"167 623 OFFCURVE",
"143 625 OFFCURVE",
"124 625 CURVE SMOOTH",
"120 625 OFFCURVE",
"120 613 OFFCURVE",
"124 613 CURVE SMOOTH",
"152 613 OFFCURVE",
"179 598 OFFCURVE",
"207 543 CURVE SMOOTH",
"492 -11 LINE SMOOTH"
);
},
{
closed = 1;
nodes = (
"37 0 OFFCURVE",
"63 2 OFFCURVE",
"90 2 CURVE SMOOTH",
"120 2 OFFCURVE",
"143 0 OFFCURVE",
"164 0 CURVE SMOOTH",
"167 0 OFFCURVE",
"167 12 OFFCURVE",
"164 12 CURVE SMOOTH",
"116 12 OFFCURVE",
"105 36 OFFCURVE",
"117 104 CURVE SMOOTH",
"202 600 LINE",
"186 602 LINE",
"98 104 LINE SMOOTH",
"87 36 OFFCURVE",
"63 12 OFFCURVE",
"15 12 CURVE SMOOTH",
"12 12 OFFCURVE",
"12 0 OFFCURVE",
"15 0 CURVE SMOOTH"
);
},
{
closed = 1;
nodes = (
"598 520 LINE SMOOTH",
"609 588 OFFCURVE",
"633 613 OFFCURVE",
"681 613 CURVE SMOOTH",
"684 613 OFFCURVE",
"684 625 OFFCURVE",
"681 625 CURVE SMOOTH",
"658 625 OFFCURVE",
"633 622 OFFCURVE",
"606 622 CURVE SMOOTH",
"575 622 OFFCURVE",
"553 625 OFFCURVE",
"532 625 CURVE SMOOTH",
"529 625 OFFCURVE",
"529 613 OFFCURVE",
"532 613 CURVE SMOOTH",
"580 613 OFFCURVE",
"591 588 OFFCURVE",
"579 520 CURVE SMOOTH",
"492 20 LINE",
"504 -11 LINE"
);
}
);
width = 650;
},
{
anchors = (
{
name = bottom;
position = "{315, 0}";
},
{
name = top;
position = "{401, 625}";
}
);
layerId = "A1717557-2B81-457C-987E-D55DA76CA63F";
paths = (
{
closed = 1;
nodes = (
"491 -19 OFFCURVE",
"516 -14 OFFCURVE",
"516 -7 CURVE SMOOTH",
"523 143 LINE",
"287 573 LINE SMOOTH",
"265 611 OFFCURVE",
"269 625 OFFCURVE",
"254 625 CURVE SMOOTH",
"247 625 OFFCURVE",
"211 623 OFFCURVE",
"189 623 CURVE SMOOTH",
"166 623 OFFCURVE",
"129 625 OFFCURVE",
"102 625 CURVE SMOOTH",
"98 625 OFFCURVE",
"98 613 OFFCURVE",
"102 613 CURVE SMOOTH",
"130 613 OFFCURVE",
"154 598 OFFCURVE",
"185 543 CURVE SMOOTH",
"487 -9 LINE SMOOTH"
);
},
{
closed = 1;
nodes = (
"27 0 OFFCURVE",
"61 2 OFFCURVE",
"96 2 CURVE SMOOTH",
"136 2 OFFCURVE",
"165 0 OFFCURVE",
"193 0 CURVE SMOOTH",
"196 0 OFFCURVE",
"196 12 OFFCURVE",
"193 12 CURVE SMOOTH",
"142 12 OFFCURVE",
"116 51 OFFCURVE",
"127 116 CURVE SMOOTH",
"214 600 LINE",
"187 602 LINE",
"99 116 LINE SMOOTH",
"88 51 OFFCURVE",
"48 12 OFFCURVE",
"-2 12 CURVE SMOOTH",
"-6 12 OFFCURVE",
"-6 0 OFFCURVE",
"-2 0 CURVE SMOOTH"
);
},
{
closed = 1;
nodes = (
"608 509 LINE SMOOTH",
"620 573 OFFCURVE",
"660 613 OFFCURVE",
"710 613 CURVE SMOOTH",
"713 613 OFFCURVE",
"713 625 OFFCURVE",
"710 625 CURVE SMOOTH",
"681 625 OFFCURVE",
"647 622 OFFCURVE",
"612 622 CURVE SMOOTH",
"572 622 OFFCURVE",
"539 625 OFFCURVE",
"515 625 CURVE SMOOTH",
"511 625 OFFCURVE",
"511 613 OFFCURVE",
"515 613 CURVE SMOOTH",
"567 613 OFFCURVE",
"592 573 OFFCURVE",
"580 509 CURVE SMOOTH",
"497 54 LINE",
"516 -7 LINE"
);
}
);
width = 655;
}
);
unicode = 004E;
},
{
glyphname = Eng;
layers = (
{
anchors = (
{
name = bottom;
position = "{239, 0}";
},
{
name = top;
position = "{448, 625}";
}
);
components = (
{
name = N;
}
);
layerId = "2373B5BC-5F65-41C1-A640-5B37284EFBFD";
leftMetricsKey = "=N";
rightMetricsKey = "=N";
paths = (
{
closed = 1;
nodes = (
"432 -191 OFFCURVE",
"483 -129 OFFCURVE",
"504 -11 CURVE SMOOTH",
"489 0 LINE",
"468 -116 OFFCURVE",
"430 -173 OFFCURVE",
"386 -173 CURVE SMOOTH",
"337 -173 OFFCURVE",
"373 -104 OFFCURVE",
"326 -104 CURVE SMOOTH",
"312 -104 OFFCURVE",
"298 -111 OFFCURVE",
"295 -130 CURVE SMOOTH",
"289 -159 OFFCURVE",
"316 -191 OFFCURVE",
"364 -191 CURVE SMOOTH"
);
}
);
width = 650;
},
{
anchors = (
{
name = bottom;
position = "{239, 0}";
},
{
name = top;
position = "{448, 625}";
}
);
components = (
{
name = N;
}
);
layerId = "A1717557-2B81-457C-987E-D55DA76CA63F";
leftMetricsKey = "=N";
rightMetricsKey = "=N";
paths = (
{
closed = 1;
nodes = (
"440 -191 OFFCURVE",
"492 -131 OFFCURVE",
"516 -7 CURVE",
"490 8 LINE",
"473 -104 OFFCURVE",
"441 -149 OFFCURVE",
"402 -149 CURVE SMOOTH",
"352 -149 OFFCURVE",
"387 -69 OFFCURVE",
"319 -69 CURVE SMOOTH",
"288 -69 OFFCURVE",
"267 -85 OFFCURVE",
"262 -116 CURVE SMOOTH",
"255 -161 OFFCURVE",
"297 -191 OFFCURVE",
"356 -191 CURVE SMOOTH"
);
}
);
width = 650;
}
);
leftMetricsKey = N;
rightMetricsKey = N;
unicode = 014A;
},
{
glyphname = O;
layers = (
{
anchors = (
{
name = bottom;
position = "{308, 0}";
},
{
name = center;
position = "{343, 312}";
},
{
name = ogonek;
position = "{398, 12}";
},
{
name = top;
position = "{399, 625}";
},
{
name = topleft;
position = "{99, 625}";
},
{
name = topright;
position = "{579, 577}";
}
);
layerId = "2373B5BC-5F65-41C1-A640-5B37284EFBFD";
paths = (
{
closed = 1;
nodes = (
"441 -12 OFFCURVE",
"592 122 OFFCURVE",
"626 313 CURVE SMOOTH",
"657 487 OFFCURVE",
"579 636 OFFCURVE",
"409 636 CURVE SMOOTH",
"249 636 OFFCURVE",
"104 502 OFFCURVE",
"71 313 CURVE SMOOTH",
"40 135 OFFCURVE",
"122 -12 OFFCURVE",
"285 -12 CURVE SMOOTH"
);
},
{
closed = 1;
nodes = (
"164 14 OFFCURVE",
"88 177 OFFCURVE",
"125 366 CURVE SMOOTH",
"154 516 OFFCURVE",
"242 612 OFFCURVE",
"368 612 CURVE SMOOTH",
"529 612 OFFCURVE",
"613 460 OFFCURVE",
"571 260 CURVE SMOOTH",
"537 99 OFFCURVE",
"446 14 OFFCURVE",
"327 14 CURVE SMOOTH"
);
}
);
width = 650;
},
{
anchors = (
{
name = bottom;
position = "{308, 0}";
},
{
name = center;
position = "{343, 312}";
},
{
name = ogonek;
position = "{398, 12}";
},
{
name = top;
position = "{399, 625}";
},
{
name = topleft;
position = "{99, 625}";
},
{
name = topright;
position = "{612, 580}";
}
);
layerId = "A1717557-2B81-457C-987E-D55DA76CA63F";
paths = (
{
closed = 1;
nodes = (
"440 -12 OFFCURVE",
"601 111 OFFCURVE",
"637 313 CURVE SMOOTH",
"670 494 OFFCURVE",
"582 636 OFFCURVE",
"411 636 CURVE SMOOTH",
"240 636 OFFCURVE",
"92 499 OFFCURVE",
"60 313 CURVE SMOOTH",
"28 133 OFFCURVE",
"112 -12 OFFCURVE",
"281 -12 CURVE SMOOTH"
);
},
{
closed = 1;
nodes = (
"196 14 OFFCURVE",
"143 187 OFFCURVE",
"173 366 CURVE SMOOTH",
"199 518 OFFCURVE",
"277 612 OFFCURVE",
"372 612 CURVE SMOOTH",
"498 612 OFFCURVE",
"554 443 OFFCURVE",
"523 260 CURVE SMOOTH",
"497 109 OFFCURVE",
"419 14 OFFCURVE",
"324 14 CURVE SMOOTH"
);
}
);
width = 655;
}
);
leftKerningGroup = O;
rightKerningGroup = O;
unicode = 004F;
},
{
glyphname = Oslash;
layers = (
{
anchors = (
{
name = bottom;
position = "{291, 0}";
},
{
name = top;
position = "{384, 625}";
}
);
components = (
{
name = O;
}
);
layerId = "2373B5BC-5F65-41C1-A640-5B37284EFBFD";
paths = (
{
closed = 1;
nodes = (
"662 618 LINE SMOOTH",
"667 622 OFFCURVE",
"651 633 OFFCURVE",
"648 629 CURVE SMOOTH",
"35 7 LINE SMOOTH",
"30 2 OFFCURVE",
"44 -11 OFFCURVE",
"48 -7 CURVE SMOOTH"
);
}
);
width = 650;
},
{
anchors = (
{
name = bottom;
position = "{294, 0}";
},
{
name = top;
position = "{395, 625}";
}
);
components = (
{
name = O;
}
);
layerId = "A1717557-2B81-457C-987E-D55DA76CA63F";
paths = (
{
closed = 1;
nodes = (
"668 616 LINE SMOOTH",
"673 621 OFFCURVE",
"650 639 OFFCURVE",
"647 635 CURVE SMOOTH",
"27 7 LINE SMOOTH",
"22 2 OFFCURVE",
"43 -18 OFFCURVE",
"47 -14 CURVE SMOOTH"
);
}
);
width = 655;
}
);
leftKerningGroup = O;
rightKerningGroup = O;
unicode = 00D8;
},
{
glyphname = OE;
layers = (
{
anchors = (
{
name = bottom;
position = "{75, 0}";
},
{
name = ogonek;
position = "{243, 12}";
},
{
name = top;
position = "{284, 625}";
}
);
layerId = "2373B5BC-5F65-41C1-A640-5B37284EFBFD";
leftMetricsKey = "=O";
rightMetricsKey = "=E";
paths = (
{
closed = 1;
nodes = (
"360 -4 OFFCURVE",
"411 0 OFFCURVE",
"451 0 CURVE SMOOTH",
"715 0 LINE SMOOTH",
"725 0 OFFCURVE",
"729 4 OFFCURVE",
"731 15 CURVE SMOOTH",
"738 56 OFFCURVE",
"750 110 OFFCURVE",
"761 145 CURVE SMOOTH",
"763 149 OFFCURVE",
"751 151 OFFCURVE",
"750 147 CURVE SMOOTH",
"727 71 OFFCURVE",
"684 18 OFFCURVE",
"640 18 CURVE SMOOTH",
"551 18 LINE SMOOTH",
"484 18 OFFCURVE",
"476 29 OFFCURVE",
"485 85 CURVE SMOOTH",
"566 543 LINE SMOOTH",
"577 600 OFFCURVE",
"589 611 OFFCURVE",
"655 611 CURVE SMOOTH",
"718 611 LINE",
"768 611 OFFCURVE",
"795 564 OFFCURVE",
"784 495 CURVE SMOOTH",
"782 491 OFFCURVE",
"794 489 OFFCURVE",
"795 494 CURVE SMOOTH",
"800 522 OFFCURVE",
"808 580 OFFCURVE",
"814 616 CURVE SMOOTH",
"815 622 OFFCURVE",
"814 625 OFFCURVE",
"808 625 CURVE SMOOTH",
"556 625 LINE SMOOTH",
"515 625 OFFCURVE",
"460 627 OFFCURVE",
"426 627 CURVE SMOOTH",
"265 627 OFFCURVE",
"103 501 OFFCURVE",
"69 301 CURVE SMOOTH",
"40 129 OFFCURVE",
"143 -4 OFFCURVE",
"327 -4 CURVE SMOOTH"
);
},
{
closed = 1;
nodes = (
"174 9 OFFCURVE",
"105 147 OFFCURVE",
"135 323 CURVE SMOOTH",
"166 511 OFFCURVE",
"288 614 OFFCURVE",
"433 614 CURVE SMOOTH",
"513 614 OFFCURVE",
"524 588 OFFCURVE",
"513 531 CURVE SMOOTH",
"435 82 LINE SMOOTH",
"425 19 OFFCURVE",
"394 9 OFFCURVE",
"320 9 CURVE SMOOTH"
);
},
{
closed = 1;
nodes = (
"716 268 OFFCURVE",
"719 295 OFFCURVE",
"724 325 CURVE SMOOTH",
"727 349 OFFCURVE",
"732 365 OFFCURVE",
"738 402 CURVE SMOOTH",
"739 408 OFFCURVE",
"727 409 OFFCURVE",
"726 404 CURVE SMOOTH",
"718 353 OFFCURVE",
"699 335 OFFCURVE",
"648 335 CURVE SMOOTH",
"506 335 LINE",
"504 316 LINE SMOOTH",
"641 316 LINE SMOOTH",
"696 316 OFFCURVE",
"709 295 OFFCURVE",
"698 235 CURVE SMOOTH",
"697 229 OFFCURVE",
"709 228 OFFCURVE",
"710 234 CURVE SMOOTH"
);
}
);
width = 806;
},
{
anchors = (
{
name = bottom;
position = "{74, 0}";
},
{
name = ogonek;
position = "{242, 12}";
},
{
name = top;
position = "{283, 625}";
}
);
layerId = "A1717557-2B81-457C-987E-D55DA76CA63F";
leftMetricsKey = "=O";
rightMetricsKey = "=E";
paths = (
{
closed = 1;
nodes = (
"359 -4 OFFCURVE",
"409 0 OFFCURVE",
"450 0 CURVE SMOOTH",
"713 0 LINE SMOOTH",
"724 0 OFFCURVE",
"727 4 OFFCURVE",
"730 15 CURVE SMOOTH",
"738 60 OFFCURVE",
"751 118 OFFCURVE",
"764 157 CURVE SMOOTH",
"765 160 OFFCURVE",
"754 163 OFFCURVE",
"752 159 CURVE SMOOTH",
"703 73 OFFCURVE",
"660 18 OFFCURVE",
"581 18 CURVE SMOOTH",
"556 18 LINE SMOOTH",
"506 18 OFFCURVE",
"498 29 OFFCURVE",
"508 85 CURVE SMOOTH",
"588 543 LINE SMOOTH",
"598 594 OFFCURVE",
"604 604 OFFCURVE",
"660 604 CURVE SMOOTH",
"677 604 LINE SMOOTH",
"751 604 OFFCURVE",
"774 557 OFFCURVE",
"780 483 CURVE SMOOTH",
"780 480 OFFCURVE",
"791 477 OFFCURVE",
"792 482 CURVE SMOOTH",
"796 512 OFFCURVE",
"807 577 OFFCURVE",
"813 616 CURVE SMOOTH",
"814 622 OFFCURVE",
"813 625 OFFCURVE",
"807 625 CURVE SMOOTH",
"554 625 LINE SMOOTH",
"513 625 OFFCURVE",
"458 627 OFFCURVE",
"425 627 CURVE SMOOTH",
"260 627 OFFCURVE",
"95 504 OFFCURVE",
"58 309 CURVE SMOOTH",
"26 132 OFFCURVE",
"135 -4 OFFCURVE",
"326 -4 CURVE SMOOTH"
);
},
{
closed = 1;
nodes = (
"204 16 OFFCURVE",
"139 151 OFFCURVE",
"171 331 CURVE SMOOTH",
"202 513 OFFCURVE",
"305 606 OFFCURVE",
"432 606 CURVE SMOOTH",
"487 606 OFFCURVE",
"497 588 OFFCURVE",
"487 531 CURVE SMOOTH",
"408 82 LINE SMOOTH",
"398 19 OFFCURVE",
"377 16 OFFCURVE",
"319 16 CURVE SMOOTH"
);
},
{
closed = 1;
nodes = (
"732 261 OFFCURVE",
"736 291 OFFCURVE",
"742 325 CURVE SMOOTH",
"746 352 OFFCURVE",
"751 371 OFFCURVE",
"758 414 CURVE SMOOTH",
"759 420 OFFCURVE",
"747 421 OFFCURVE",
"746 415 CURVE SMOOTH",
"735 360 OFFCURVE",
"702 339 OFFCURVE",
"642 339 CURVE SMOOTH",
"505 339 LINE",
"502 311 LINE",
"635 311 LINE SMOOTH",
"692 311 OFFCURVE",
"723 281 OFFCURVE",
"713 223 CURVE SMOOTH",
"712 218 OFFCURVE",
"724 216 OFFCURVE",
"725 222 CURVE SMOOTH"
);
}
);
width = 809;
}
);
leftKerningGroup = O;
leftMetricsKey = O;
rightMetricsKey = E;
unicode = 0152;
},
{
glyphname = P;
layers = (
{
anchors = (
{
name = bottom;
position = "{214, 0}";
},
{
name = top;
position = "{324, 625}";
}
);
layerId = "2373B5BC-5F65-41C1-A640-5B37284EFBFD";
leftMetricsKey = "=F";
paths = (
{
closed = 1;
nodes = (
"37 0 OFFCURVE",
"73 2 OFFCURVE",
"109 2 CURVE SMOOTH",
"149 2 OFFCURVE",
"184 0 OFFCURVE",
"211 0 CURVE SMOOTH",
"214 0 OFFCURVE",
"214 12 OFFCURVE",
"211 12 CURVE SMOOTH",
"145 12 OFFCURVE",
"137 23 OFFCURVE",
"147 81 CURVE SMOOTH",
"228 542 LINE SMOOTH",
"241 613 OFFCURVE",
"254 615 OFFCURVE",
"318 615 CURVE SMOOTH",
"396 615 OFFCURVE",
"462 549 OFFCURVE",
"440 433 CURVE SMOOTH",
"419 325 OFFCURVE",
"325 276 OFFCURVE",
"246 276 CURVE SMOOTH",
"236 276 OFFCURVE",
"226 277 OFFCURVE",
"216 280 CURVE SMOOTH",
"212 281 OFFCURVE",
"208 268 OFFCURVE",
"212 267 CURVE SMOOTH",
"225 263 OFFCURVE",
"237 262 OFFCURVE",
"253 262 CURVE SMOOTH",
"343 262 OFFCURVE",
"475 319 OFFCURVE",
"499 453 CURVE SMOOTH",
"522 575 OFFCURVE",
"439 628 OFFCURVE",
"340 628 CURVE SMOOTH",
"291 628 OFFCURVE",
"246 622 OFFCURVE",
"216 622 CURVE SMOOTH",
"179 622 OFFCURVE",
"145 625 OFFCURVE",
"119 625 CURVE SMOOTH",
"116 625 OFFCURVE",
"116 613 OFFCURVE",
"119 613 CURVE SMOOTH",
"184 613 OFFCURVE",
"193 601 OFFCURVE",
"182 544 CURVE SMOOTH",
"101 81 LINE SMOOTH",
"90 23 OFFCURVE",
"76 12 OFFCURVE",
"12 12 CURVE SMOOTH",
"8 12 OFFCURVE",
"8 0 OFFCURVE",
"12 0 CURVE SMOOTH"
);
}
);
width = 496;
},
{
anchors = (
{
name = bottom;
position = "{233, 0}";
},
{
name = top;
position = "{343, 625}";
}
);
layerId = "A1717557-2B81-457C-987E-D55DA76CA63F";
leftMetricsKey = "=F";
paths = (
{
closed = 1;
nodes = (
"44 0 OFFCURVE",
"83 2 OFFCURVE",
"124 2 CURVE SMOOTH",
"168 2 OFFCURVE",
"207 0 OFFCURVE",
"237 0 CURVE SMOOTH",
"241 0 OFFCURVE",
"241 12 OFFCURVE",
"237 12 CURVE SMOOTH",
"187 12 OFFCURVE",
"178 23 OFFCURVE",
"188 81 CURVE SMOOTH",
"269 542 LINE SMOOTH",
"280 595 OFFCURVE",
"290 607 OFFCURVE",
"333 607 CURVE SMOOTH",
"394 607 OFFCURVE",
"446 544 OFFCURVE",
"428 433 CURVE SMOOTH",
"412 327 OFFCURVE",
"349 283 OFFCURVE",
"285 283 CURVE SMOOTH",
"276 283 OFFCURVE",
"265 284 OFFCURVE",
"256 287 CURVE SMOOTH",
"251 288 OFFCURVE",
"247 268 OFFCURVE",
"250 267 CURVE SMOOTH",
"263 263 OFFCURVE",
"276 262 OFFCURVE",
"291 262 CURVE SMOOTH",
"381 262 OFFCURVE",
"513 318 OFFCURVE",
"538 453 CURVE SMOOTH",
"560 571 OFFCURVE",
"475 628 OFFCURVE",
"352 628 CURVE SMOOTH",
"312 628 OFFCURVE",
"258 622 OFFCURVE",
"232 622 CURVE SMOOTH",
"189 622 OFFCURVE",
"152 625 OFFCURVE",
"123 625 CURVE SMOOTH",
"119 625 OFFCURVE",
"119 613 OFFCURVE",
"123 613 CURVE SMOOTH",
"173 613 OFFCURVE",
"182 602 OFFCURVE",
"172 544 CURVE SMOOTH",
"90 81 LINE SMOOTH",
"80 23 OFFCURVE",
"69 12 OFFCURVE",
"15 12 CURVE SMOOTH",
"12 12 OFFCURVE",
"12 0 OFFCURVE",
"15 0 CURVE SMOOTH"
);
}
);
width = 532;
}
);
leftMetricsKey = F;
rightKerningGroup = P;
unicode = 0050;
},
{
glyphname = Thorn;
layers = (
{
anchors = (
{
name = bottom;
position = "{232, 0}";
},
{
name = top;
position = "{342, 625}";
}
);
layerId = "2373B5BC-5F65-41C1-A640-5B37284EFBFD";
paths = (
{
closed = 1;
nodes = (
"37 0 OFFCURVE",
"73 2 OFFCURVE",
"109 2 CURVE SMOOTH",
"158 2 OFFCURVE",
"201 0 OFFCURVE",
"234 0 CURVE SMOOTH",
"237 0 OFFCURVE",
"237 12 OFFCURVE",
"234 12 CURVE SMOOTH",
"144 12 OFFCURVE",
"137 22 OFFCURVE",
"147 81 CURVE SMOOTH",
"228 542 LINE SMOOTH",
"240 606 OFFCURVE",
"251 613 OFFCURVE",
"342 613 CURVE SMOOTH",
"345 613 OFFCURVE",
"345 625 OFFCURVE",
"342 625 CURVE SMOOTH",
"310 625 OFFCURVE",
"268 622 OFFCURVE",
"216 622 CURVE",
"179 622 OFFCURVE",
"145 625 OFFCURVE",
"119 625 CURVE SMOOTH",
"116 625 OFFCURVE",
"116 613 OFFCURVE",
"119 613 CURVE SMOOTH",
"184 613 OFFCURVE",
"193 601 OFFCURVE",
"182 544 CURVE SMOOTH",
"101 81 LINE SMOOTH",
"90 23 OFFCURVE",
"76 12 OFFCURVE",
"12 12 CURVE SMOOTH",
"8 12 OFFCURVE",
"8 0 OFFCURVE",
"12 0 CURVE SMOOTH"
);
},
{
closed = 1;
nodes = (
"332 122 OFFCURVE",
"485 179 OFFCURVE",
"511 312 CURVE SMOOTH",
"537 444 OFFCURVE",
"437 499 OFFCURVE",
"317 499 CURVE SMOOTH",
"268 499 OFFCURVE",
"218 495 OFFCURVE",
"180 483 CURVE",
"186 471 LINE",
"211 480 OFFCURVE",
"237 487 OFFCURVE",
"295 487 CURVE SMOOTH",
"395 487 OFFCURVE",
"478 415 OFFCURVE",
"451 292 CURVE SMOOTH",
"428 185 OFFCURVE",
"316 136 OFFCURVE",
"222 136 CURVE SMOOTH",
"213 136 OFFCURVE",
"202 137 OFFCURVE",
"193 139 CURVE SMOOTH",
"188 140 OFFCURVE",
"185 127 OFFCURVE",
"188 126 CURVE SMOOTH",
"201 123 OFFCURVE",
"214 122 OFFCURVE",
"229 122 CURVE SMOOTH"
);
}
);
width = 531;
},
{
anchors = (
{
name = bottom;
position = "{240, 0}";
},
{
name = top;
position = "{350, 625}";
}
);
layerId = "A1717557-2B81-457C-987E-D55DA76CA63F";
paths = (
{
closed = 1;
nodes = (
"44 0 OFFCURVE",
"83 2 OFFCURVE",
"124 2 CURVE SMOOTH",
"178 2 OFFCURVE",
"225 0 OFFCURVE",
"261 0 CURVE SMOOTH",
"264 0 OFFCURVE",
"264 12 OFFCURVE",
"261 12 CURVE SMOOTH",
"185 12 OFFCURVE",
"178 22 OFFCURVE",
"188 81 CURVE SMOOTH",
"269 542 LINE SMOOTH",
"281 606 OFFCURVE",
"290 613 OFFCURVE",
"368 613 CURVE SMOOTH",
"372 613 OFFCURVE",
"372 625 OFFCURVE",
"368 625 CURVE SMOOTH",
"333 625 OFFCURVE",
"288 622 OFFCURVE",
"232 622 CURVE SMOOTH",
"189 622 OFFCURVE",
"152 625 OFFCURVE",
"123 625 CURVE SMOOTH",
"119 625 OFFCURVE",
"119 613 OFFCURVE",
"123 613 CURVE SMOOTH",
"173 613 OFFCURVE",
"182 601 OFFCURVE",
"172 544 CURVE SMOOTH",
"90 81 LINE SMOOTH",
"80 23 OFFCURVE",
"69 12 OFFCURVE",
"15 12 CURVE SMOOTH",
"12 12 OFFCURVE",
"12 0 OFFCURVE",
"15 0 CURVE SMOOTH"
);
},
{
closed = 1;
nodes = (
"375 133 OFFCURVE",
"510 185 OFFCURVE",
"538 312 CURVE SMOOTH",
"565 433 OFFCURVE",
"473 499 OFFCURVE",
"325 499 CURVE SMOOTH",
"285 499 OFFCURVE",
"233 495 OFFCURVE",
"195 483 CURVE",
"201 463 LINE",
"225 471 OFFCURVE",
"258 478 OFFCURVE",
"290 478 CURVE SMOOTH",
"406 478 OFFCURVE",
"446 388 OFFCURVE",
"427 292 CURVE SMOOTH",
"406 184 OFFCURVE",
"331 153 OFFCURVE",
"274 153 CURVE SMOOTH",
"264 153 OFFCURVE",
"254 154 OFFCURVE",
"244 157 CURVE SMOOTH",
"240 158 OFFCURVE",
"235 139 OFFCURVE",
"239 138 CURVE SMOOTH",
"251 135 OFFCURVE",
"264 133 OFFCURVE",
"280 133 CURVE SMOOTH"
);
}
);
width = 546;
}
);
leftMetricsKey = F;
rightKerningGroup = O;
unicode = 00DE;
},
{
glyphname = Q;
layers = (
{
anchors = (
{
name = bottom;
position = "{291, 0}";
},
{
name = top;
position = "{401, 625}";
}
);
components = (
{
name = O;
}
);
layerId = "2373B5BC-5F65-41C1-A640-5B37284EFBFD";
paths = (
{
closed = 1;
nodes = (
"620 -195 OFFCURVE",
"650 -191 OFFCURVE",
"681 -184 CURVE SMOOTH",
"684 -182 OFFCURVE",
"681 -172 OFFCURVE",
"677 -173 CURVE SMOOTH",
"668 -175 OFFCURVE",
"653 -177 OFFCURVE",
"641 -177 CURVE SMOOTH",
"567 -177 OFFCURVE",
"473 -91 OFFCURVE",
"423 29 CURVE",
"366 9 LINE",
"427 -124 OFFCURVE",
"522 -195 OFFCURVE",
"595 -195 CURVE SMOOTH"
);
}
);
width = 650;
},
{
anchors = (
{
name = bottom;
position = "{294, 0}";
},
{
name = top;
position = "{404, 625}";
}
);
components = (
{
name = O;
}
);
layerId = "A1717557-2B81-457C-987E-D55DA76CA63F";
paths = (
{
closed = 1;
nodes = (
"648 -200 OFFCURVE",
"675 -194 OFFCURVE",
"701 -185 CURVE SMOOTH",
"704 -184 OFFCURVE",
"701 -173 OFFCURVE",
"697 -174 CURVE SMOOTH",
"687 -177 OFFCURVE",
"677 -178 OFFCURVE",
"665 -178 CURVE SMOOTH",
"611 -178 OFFCURVE",
"501 -84 OFFCURVE",
"455 48 CURVE",
"363 1 LINE",
"433 -130 OFFCURVE",
"530 -200 OFFCURVE",
"627 -200 CURVE SMOOTH"
);
}
);
width = 655;
}
);
leftKerningGroup = O;
rightKerningGroup = O;
unicode = 0051;
},
{
glyphname = R;
layers = (
{
anchors = (
{
name = bottom;
position = "{299, 0}";
},
{
name = top;
position = "{312, 625}";
}
);
layerId = "2373B5BC-5F65-41C1-A640-5B37284EFBFD";
paths = (
{
closed = 1;
nodes = (
"42 0 OFFCURVE",
"81 2 OFFCURVE",
"119 2 CURVE SMOOTH",
"160 2 OFFCURVE",
"194 0 OFFCURVE",
"223 0 CURVE SMOOTH",
"227 0 OFFCURVE",
"227 12 OFFCURVE",
"222 12 CURVE SMOOTH",
"153 12 OFFCURVE",
"146 23 OFFCURVE",
"157 81 CURVE SMOOTH",
"200 320 LINE",
"211 319 OFFCURVE",
"227 318 OFFCURVE",
"237 318 CURVE SMOOTH",
"342 318 OFFCURVE",
"441 404 OFFCURVE",
"458 503 CURVE SMOOTH",
"473 580 OFFCURVE",
"430 628 OFFCURVE",
"335 628 CURVE SMOOTH",
"308 628 OFFCURVE",
"258 622 OFFCURVE",
"228 622 CURVE SMOOTH",
"189 622 OFFCURVE",
"153 625 OFFCURVE",
"125 625 CURVE SMOOTH",
"120 625 OFFCURVE",
"120 613 OFFCURVE",
"125 613 CURVE SMOOTH",
"194 613 OFFCURVE",
"202 601 OFFCURVE",
"192 544 CURVE SMOOTH",
"110 81 LINE SMOOTH",
"99 23 OFFCURVE",
"82 12 OFFCURVE",
"14 12 CURVE SMOOTH",
"9 12 OFFCURVE",
"9 0 OFFCURVE",
"14 0 CURVE SMOOTH"
);
},
{
closed = 1;
nodes = (
"501 0 OFFCURVE",
"532 0 OFFCURVE",
"582 0 CURVE SMOOTH",
"587 0 OFFCURVE",
"587 12 OFFCURVE",
"582 12 CURVE SMOOTH",
"506 12 OFFCURVE",
"448 97 OFFCURVE",
"337 349 CURVE",
"297 333 LINE",
"382 127 OFFCURVE",
"453 0 OFFCURVE",
"485 0 CURVE SMOOTH"
);
},
{
closed = 1;
nodes = (
"241 340 OFFCURVE",
"220 342 OFFCURVE",
"204 344 CURVE",
"239 542 LINE SMOOTH",
"251 613 OFFCURVE",
"267 615 OFFCURVE",
"311 615 CURVE SMOOTH",
"378 615 OFFCURVE",
"421 577 OFFCURVE",
"402 469 CURVE SMOOTH",
"386 378 OFFCURVE",
"344 340 OFFCURVE",
"256 340 CURVE SMOOTH"
);
}
);
width = 608;
},
{
anchors = (
{
name = bottom;
position = "{342, 0}";
},
{
name = top;
position = "{343, 625}";
}
);
layerId = "A1717557-2B81-457C-987E-D55DA76CA63F";
paths = (
{
closed = 1;
nodes = (
"50 0 OFFCURVE",
"92 2 OFFCURVE",
"136 2 CURVE SMOOTH",
"181 2 OFFCURVE",
"219 0 OFFCURVE",
"251 0 CURVE SMOOTH",
"255 0 OFFCURVE",
"255 12 OFFCURVE",
"250 12 CURVE SMOOTH",
"196 12 OFFCURVE",
"188 25 OFFCURVE",
"199 81 CURVE SMOOTH",
"241 318 LINE",
"244 317 OFFCURVE",
"249 316 OFFCURVE",
"253 316 CURVE SMOOTH",
"374 316 OFFCURVE",
"491 404 OFFCURVE",
"512 503 CURVE SMOOTH",
"529 580 OFFCURVE",
"476 628 OFFCURVE",
"351 628 CURVE SMOOTH",
"324 628 OFFCURVE",
"275 622 OFFCURVE",
"244 622 CURVE SMOOTH",
"201 622 OFFCURVE",
"161 625 OFFCURVE",
"130 625 CURVE SMOOTH",
"125 625 OFFCURVE",
"125 613 OFFCURVE",
"130 613 CURVE SMOOTH",
"185 613 OFFCURVE",
"193 601 OFFCURVE",
"182 544 CURVE SMOOTH",
"101 81 LINE SMOOTH",
"90 25 OFFCURVE",
"77 12 OFFCURVE",
"19 12 CURVE SMOOTH",
"14 12 OFFCURVE",
"14 0 OFFCURVE",
"19 0 CURVE SMOOTH"
);
},
{
closed = 1;
nodes = (
"484 0 OFFCURVE",
"530 0 OFFCURVE",
"611 0 CURVE SMOOTH",
"615 0 OFFCURVE",
"615 12 OFFCURVE",
"611 12 CURVE SMOOTH",
"542 12 OFFCURVE",
"485 101 OFFCURVE",
"388 360 CURVE",
"308 333 LINE",
"378 92 OFFCURVE",
"434 0 OFFCURVE",
"460 0 CURVE SMOOTH"
);
},
{
closed = 1;
nodes = (
"264 343 OFFCURVE",
"254 344 OFFCURVE",
"246 346 CURVE",
"281 542 LINE SMOOTH",
"292 605 OFFCURVE",
"298 607 OFFCURVE",
"342 607 CURVE SMOOTH",
"385 607 OFFCURVE",
"420 571 OFFCURVE",
"405 469 CURVE SMOOTH",
"391 378 OFFCURVE",
"352 343 OFFCURVE",
"273 343 CURVE SMOOTH"
);
}
);
width = 635;
}
);
leftMetricsKey = "=B";
rightKerningGroup = R;
unicode = 0052;
},
{
glyphname = S;
layers = (
{
anchors = (
{
name = bottom;
position = "{211, 0}";
},
{
name = top;
position = "{318, 625}";
}
);
layerId = "2373B5BC-5F65-41C1-A640-5B37284EFBFD";
paths = (
{
closed = 1;
nodes = (
"310 -12 OFFCURVE",
"389 65 OFFCURVE",
"405 157 CURVE SMOOTH",
"421 253 OFFCURVE",
"356 296 OFFCURVE",
"291 338 CURVE SMOOTH",
"229 379 OFFCURVE",
"168 419 OFFCURVE",
"184 504 CURVE SMOOTH",
"194 561 OFFCURVE",
"233 623 OFFCURVE",
"315 623 CURVE SMOOTH",
"406 623 OFFCURVE",
"422 547 OFFCURVE",
"422 489 CURVE SMOOTH",
"422 484 OFFCURVE",
"434 484 OFFCURVE",
"434 489 CURVE SMOOTH",
"446 595 LINE SMOOTH",
"447 602 OFFCURVE",
"442 608 OFFCURVE",
"434 612 CURVE SMOOTH",
"396 629 OFFCURVE",
"361 636 OFFCURVE",
"329 636 CURVE SMOOTH",
"243 636 OFFCURVE",
"150 585 OFFCURVE",
"131 481 CURVE SMOOTH",
"115 387 OFFCURVE",
"175 346 OFFCURVE",
"237 304 CURVE SMOOTH",
"301 261 OFFCURVE",
"364 218 OFFCURVE",
"346 122 CURVE SMOOTH",
"330 32 OFFCURVE",
"264 2 OFFCURVE",
"205 2 CURVE SMOOTH",
"102 2 OFFCURVE",
"67 91 OFFCURVE",
"71 171 CURVE SMOOTH",
"71 177 OFFCURVE",
"60 177 OFFCURVE",
"60 171 CURVE SMOOTH",
"50 41 LINE SMOOTH",
"50 32 OFFCURVE",
"50 26 OFFCURVE",
"56 22 CURVE SMOOTH",
"101 -4 OFFCURVE",
"139 -12 OFFCURVE",
"181 -12 CURVE SMOOTH"
);
}
);
width = 460;
},
{
anchors = (
{
name = bottom;
position = "{216, 0}";
},
{
name = top;
position = "{309, 625}";
}
);
layerId = "A1717557-2B81-457C-987E-D55DA76CA63F";
paths = (
{
closed = 1;
nodes = (
"333 -12 OFFCURVE",
"416 64 OFFCURVE",
"434 160 CURVE SMOOTH",
"450 253 OFFCURVE",
"380 309 OFFCURVE",
"315 360 CURVE SMOOTH",
"256 407 OFFCURVE",
"199 447 OFFCURVE",
"213 526 CURVE SMOOTH",
"220 566 OFFCURVE",
"248 615 OFFCURVE",
"309 615 CURVE SMOOTH",
"368 615 OFFCURVE",
"418 558 OFFCURVE",
"439 465 CURVE SMOOTH",
"440 461 OFFCURVE",
"449 461 OFFCURVE",
"450 465 CURVE SMOOTH",
"465 595 LINE SMOOTH",
"467 602 OFFCURVE",
"462 608 OFFCURVE",
"454 612 CURVE SMOOTH",
"412 629 OFFCURVE",
"372 636 OFFCURVE",
"336 636 CURVE SMOOTH",
"236 636 OFFCURVE",
"135 586 OFFCURVE",
"113 481 CURVE SMOOTH",
"96 392 OFFCURVE",
"159 344 OFFCURVE",
"222 296 CURVE SMOOTH",
"282 250 OFFCURVE",
"340 199 OFFCURVE",
"327 115 CURVE SMOOTH",
"318 51 OFFCURVE",
"277 12 OFFCURVE",
"219 12 CURVE SMOOTH",
"150 12 OFFCURVE",
"102 67 OFFCURVE",
"77 182 CURVE SMOOTH",
"76 188 OFFCURVE",
"65 188 OFFCURVE",
"65 182 CURVE SMOOTH",
"33 41 LINE SMOOTH",
"30 32 OFFCURVE",
"33 26 OFFCURVE",
"39 22 CURVE SMOOTH",
"94 -4 OFFCURVE",
"142 -12 OFFCURVE",
"192 -12 CURVE SMOOTH"
);
}
);
width = 470;
}
);
leftKerningGroup = S;
unicode = 0053;
},
{
glyphname = Germandbls;
layers = (
{
anchors = (
{
name = bottom;
position = "{282, 0}";
},
{
name = top;
position = "{392, 625}";
}
);
layerId = "2373B5BC-5F65-41C1-A640-5B37284EFBFD";
paths = (
{
closed = 1;
nodes = (
"494 -12 OFFCURVE",
"564 80 OFFCURVE",
"579 166 CURVE SMOOTH",
"592 240 OFFCURVE",
"551 297 OFFCURVE",
"436 385 CURVE",
"626 625 LINE SMOOTH",
"628 628 OFFCURVE",
"620 634 OFFCURVE",
"616 629 CURVE SMOOTH",
"581 588 OFFCURVE",
"581 585 OFFCURVE",
"543 601 CURVE SMOOTH",
"510 615 OFFCURVE",
"450 636 OFFCURVE",
"399 636 CURVE SMOOTH",
"258 636 OFFCURVE",
"159 504 OFFCURVE",
"137 382 CURVE SMOOTH",
"83 81 LINE SMOOTH",
"73 23 OFFCURVE",
"55 12 OFFCURVE",
"-13 12 CURVE SMOOTH",
"-18 12 OFFCURVE",
"-18 0 OFFCURVE",
"-13 0 CURVE SMOOTH",
"18 0 OFFCURVE",
"53 1 OFFCURVE",
"94 1 CURVE SMOOTH",
"129 1 OFFCURVE",
"172 0 OFFCURVE",
"206 0 CURVE SMOOTH",
"211 0 OFFCURVE",
"211 12 OFFCURVE",
"206 12 CURVE SMOOTH",
"131 12 OFFCURVE",
"122 23 OFFCURVE",
"132 81 CURVE SMOOTH",
"189 404 LINE SMOOTH",
"218 559 OFFCURVE",
"267 605 OFFCURVE",
"349 605 CURVE SMOOTH",
"400 605 OFFCURVE",
"468 585 OFFCURVE",
"538 540 CURVE",
"398 361 LINE SMOOTH",
"393 356 OFFCURVE",
"393 351 OFFCURVE",
"399 346 CURVE SMOOTH",
"504 258 OFFCURVE",
"545 196 OFFCURVE",
"532 124 CURVE SMOOTH",
"519 48 OFFCURVE",
"473 8 OFFCURVE",
"413 8 CURVE SMOOTH",
"346 8 OFFCURVE",
"281 74 OFFCURVE",
"281 137 CURVE SMOOTH",
"281 143 OFFCURVE",
"269 143 OFFCURVE",
"269 136 CURVE SMOOTH",
"267 41 LINE SMOOTH",
"267 32 OFFCURVE",
"265 26 OFFCURVE",
"271 22 CURVE SMOOTH",
"308 -5 OFFCURVE",
"339 -12 OFFCURVE",
"377 -12 CURVE SMOOTH"
);
}
);
width = 630;
},
{
anchors = (
{
name = bottom;
position = "{294, 0}";
},
{
name = top;
position = "{404, 625}";
}
);
layerId = "A1717557-2B81-457C-987E-D55DA76CA63F";
paths = (
{
closed = 1;
nodes = (
"523 -12 OFFCURVE",
"607 71 OFFCURVE",
"623 166 CURVE SMOOTH",
"637 249 OFFCURVE",
"592 325 OFFCURVE",
"477 408 CURVE",
"647 625 LINE SMOOTH",
"649 628 OFFCURVE",
"641 634 OFFCURVE",
"637 629 CURVE SMOOTH",
"613 598 OFFCURVE",
"595 600 OFFCURVE",
"584 604 CURVE SMOOTH",
"533 620 OFFCURVE",
"481 636 OFFCURVE",
"422 636 CURVE SMOOTH",
"264 636 OFFCURVE",
"145 517 OFFCURVE",
"120 382 CURVE SMOOTH",
"67 81 LINE SMOOTH",
"56 23 OFFCURVE",
"43 12 OFFCURVE",
"-15 12 CURVE SMOOTH",
"-20 12 OFFCURVE",
"-20 0 OFFCURVE",
"-15 0 CURVE SMOOTH",
"19 0 OFFCURVE",
"57 1 OFFCURVE",
"103 1 CURVE SMOOTH",
"138 1 OFFCURVE",
"181 0 OFFCURVE",
"215 0 CURVE SMOOTH",
"220 0 OFFCURVE",
"220 12 OFFCURVE",
"215 12 CURVE SMOOTH",
"166 12 OFFCURVE",
"157 23 OFFCURVE",
"167 81 CURVE SMOOTH",
"232 444 LINE SMOOTH",
"251 557 OFFCURVE",
"273 588 OFFCURVE",
"332 588 CURVE SMOOTH",
"380 588 OFFCURVE",
"468 561 OFFCURVE",
"536 517 CURVE",
"404 346 LINE SMOOTH",
"399 340 OFFCURVE",
"399 336 OFFCURVE",
"405 331 CURVE SMOOTH",
"499 260 OFFCURVE",
"535 189 OFFCURVE",
"530 124 CURVE SMOOTH",
"526 78 OFFCURVE",
"504 19 OFFCURVE",
"456 19 CURVE SMOOTH",
"408 19 OFFCURVE",
"340 82 OFFCURVE",
"313 160 CURVE SMOOTH",
"311 166 OFFCURVE",
"302 166 OFFCURVE",
"302 159 CURVE SMOOTH",
"288 41 LINE SMOOTH",
"287 32 OFFCURVE",
"287 26 OFFCURVE",
"292 22 CURVE SMOOTH",
"319 1 OFFCURVE",
"358 -12 OFFCURVE",
"405 -12 CURVE SMOOTH"
);
}
);
width = 655;
}
);
unicode = 1E9E;
},
{
glyphname = Schwa;
layers = (
{
anchors = (
{
name = bottom;
position = "{247, 0}";
},
{
name = top;
position = "{428, 625}";
}
);
layerId = "2373B5BC-5F65-41C1-A640-5B37284EFBFD";
paths = (
{
closed = 1;
nodes = (
"373 -12 OFFCURVE",
"525 109 OFFCURVE",
"564 324 CURVE SMOOTH",
"589 470 OFFCURVE",
"556 636 OFFCURVE",
"346 636 CURVE SMOOTH",
"297 636 OFFCURVE",
"264 627 OFFCURVE",
"209 607 CURVE SMOOTH",
"189 600 OFFCURVE",
"181 611 OFFCURVE",
"189 635 CURVE SMOOTH",
"192 640 OFFCURVE",
"180 644 OFFCURVE",
"178 639 CURVE SMOOTH",
"116 490 LINE SMOOTH",
"115 487 OFFCURVE",
"125 482 OFFCURVE",
"127 487 CURVE SMOOTH",
"175 582 OFFCURVE",
"274 625 OFFCURVE",
"345 625 CURVE SMOOTH",
"478 625 OFFCURVE",
"533 477 OFFCURVE",
"498 288 CURVE SMOOTH",
"467 115 OFFCURVE",
"382 7 OFFCURVE",
"254 7 CURVE SMOOTH",
"153 7 OFFCURVE",
"94 74 OFFCURVE",
"112 175 CURVE",
"64 175 LINE SMOOTH",
"57 175 OFFCURVE",
"54 173 OFFCURVE",
"51 163 CURVE SMOOTH",
"40 94 OFFCURVE",
"76 -12 OFFCURVE",
"219 -12 CURVE SMOOTH"
);
},
{
closed = 1;
nodes = (
"480 158 LINE",
"482 177 LINE",
"98 175 LINE",
"94 153 LINE"
);
}
);
width = 591;
},
{
anchors = (
{
name = bottom;
position = "{247, 0}";
},
{
name = top;
position = "{428, 625}";
}
);
layerId = "A1717557-2B81-457C-987E-D55DA76CA63F";
paths = (
{
closed = 1;
nodes = (
"380 -12 OFFCURVE",
"537 109 OFFCURVE",
"575 324 CURVE SMOOTH",
"601 465 OFFCURVE",
"573 636 OFFCURVE",
"339 636 CURVE SMOOTH",
"296 636 OFFCURVE",
"257 630 OFFCURVE",
"198 619 CURVE SMOOTH",
"177 614 OFFCURVE",
"170 622 OFFCURVE",
"178 647 CURVE SMOOTH",
"180 651 OFFCURVE",
"168 656 OFFCURVE",
"166 650 CURVE SMOOTH",
"104 467 LINE SMOOTH",
"103 463 OFFCURVE",
"112 458 OFFCURVE",
"116 463 CURVE SMOOTH",
"191 568 OFFCURVE",
"267 615 OFFCURVE",
"333 615 CURVE SMOOTH",
"447 615 OFFCURVE",
"480 482 OFFCURVE",
"447 288 CURVE SMOOTH",
"416 106 OFFCURVE",
"353 13 OFFCURVE",
"257 13 CURVE SMOOTH",
"174 13 OFFCURVE",
"139 83 OFFCURVE",
"152 175 CURVE",
"53 175 LINE SMOOTH",
"46 175 OFFCURVE",
"42 173 OFFCURVE",
"40 163 CURVE SMOOTH",
"27 91 OFFCURVE",
"68 -12 OFFCURVE",
"218 -12 CURVE SMOOTH"
);
},
{
closed = 1;
nodes = (
"480 157 LINE",
"482 177 LINE",
"98 175 LINE",
"94 152 LINE"
);
}
);
width = 591;
}
);
rightKerningGroup = O;
rightMetricsKey = O;
unicode = 018F;
},
{
glyphname = T;
layers = (
{
anchors = (
{
name = bottom;
position = "{246, 0}";
},
{
name = center;
position = "{275, 312}";
},
{
name = top;
position = "{353, 625}";
}
);
layerId = "2373B5BC-5F65-41C1-A640-5B37284EFBFD";
paths = (
{
closed = 1;
nodes = (
"175 0 OFFCURVE",
"211 2 OFFCURVE",
"248 2 CURVE SMOOTH",
"289 2 OFFCURVE",
"322 0 OFFCURVE",
"349 0 CURVE SMOOTH",
"352 0 OFFCURVE",
"352 12 OFFCURVE",
"349 12 CURVE SMOOTH",
"283 12 OFFCURVE",
"274 23 OFFCURVE",
"284 81 CURVE SMOOTH",
"365 542 LINE SMOOTH",
"374 595 OFFCURVE",
"385 609 OFFCURVE",
"441 609 CURVE SMOOTH",
"468 609 LINE SMOOTH",
"558 609 OFFCURVE",
"575 577 OFFCURVE",
"557 473 CURVE SMOOTH",
"556 468 OFFCURVE",
"567 467 OFFCURVE",
"568 471 CURVE SMOOTH",
"573 502 OFFCURVE",
"596 611 OFFCURVE",
"607 648 CURVE SMOOTH",
"608 653 OFFCURVE",
"598 654 OFFCURVE",
"596 650 CURVE SMOOTH",
"587 629 OFFCURVE",
"567 625 OFFCURVE",
"530 625 CURVE SMOOTH",
"485 625 OFFCURVE",
"434 622 OFFCURVE",
"354 622 CURVE SMOOTH",
"291 622 OFFCURVE",
"220 623 OFFCURVE",
"171 625 CURVE SMOOTH",
"156 625 OFFCURVE",
"129 626 OFFCURVE",
"132 646 CURVE SMOOTH",
"133 650 OFFCURVE",
"122 651 OFFCURVE",
"120 647 CURVE SMOOTH",
"112 604 OFFCURVE",
"88 504 OFFCURVE",
"77 471 CURVE SMOOTH",
"76 468 OFFCURVE",
"88 465 OFFCURVE",
"89 469 CURVE SMOOTH",
"119 575 OFFCURVE",
"151 609 OFFCURVE",
"235 609 CURVE SMOOTH",
"262 609 LINE SMOOTH",
"319 609 OFFCURVE",
"327 598 OFFCURVE",
"318 544 CURVE SMOOTH",
"236 81 LINE SMOOTH",
"226 23 OFFCURVE",
"213 12 OFFCURVE",
"149 12 CURVE SMOOTH",
"145 12 OFFCURVE",
"145 0 OFFCURVE",
"149 0 CURVE SMOOTH"
);
}
);
width = 553;
},
{
anchors = (
{
name = bottom;
position = "{246, 0}";
},
{
name = center;
position = "{275, 312}";
},
{
name = top;
position = "{353, 625}";
}
);
layerId = "A1717557-2B81-457C-987E-D55DA76CA63F";
paths = (
{
closed = 1;
nodes = (
"150 0 OFFCURVE",
"198 2 OFFCURVE",
"248 2 CURVE SMOOTH",
"303 2 OFFCURVE",
"347 0 OFFCURVE",
"384 0 CURVE SMOOTH",
"387 0 OFFCURVE",
"387 12 OFFCURVE",
"384 12 CURVE SMOOTH",
"309 12 OFFCURVE",
"299 23 OFFCURVE",
"310 81 CURVE SMOOTH",
"391 542 LINE SMOOTH",
"399 589 OFFCURVE",
"404 602 OFFCURVE",
"440 602 CURVE SMOOTH",
"451 602 LINE SMOOTH",
"522 602 OFFCURVE",
"567 532 OFFCURVE",
"552 449 CURVE SMOOTH",
"551 444 OFFCURVE",
"563 443 OFFCURVE",
"564 448 CURVE SMOOTH",
"568 482 OFFCURVE",
"595 606 OFFCURVE",
"607 648 CURVE SMOOTH",
"608 653 OFFCURVE",
"598 654 OFFCURVE",
"596 650 CURVE SMOOTH",
"587 629 OFFCURVE",
"567 625 OFFCURVE",
"530 625 CURVE SMOOTH",
"485 625 OFFCURVE",
"434 622 OFFCURVE",
"354 622 CURVE SMOOTH",
"291 622 OFFCURVE",
"220 623 OFFCURVE",
"171 625 CURVE SMOOTH",
"156 625 OFFCURVE",
"129 626 OFFCURVE",
"132 646 CURVE SMOOTH",
"133 650 OFFCURVE",
"122 651 OFFCURVE",
"120 647 CURVE SMOOTH",
"111 598 OFFCURVE",
"84 485 OFFCURVE",
"73 448 CURVE SMOOTH",
"71 444 OFFCURVE",
"83 442 OFFCURVE",
"84 446 CURVE SMOOTH",
"109 531 OFFCURVE",
"185 602 OFFCURVE",
"249 602 CURVE SMOOTH",
"261 602 LINE SMOOTH",
"294 602 OFFCURVE",
"301 591 OFFCURVE",
"292 544 CURVE SMOOTH",
"211 81 LINE SMOOTH",
"200 23 OFFCURVE",
"185 12 OFFCURVE",
"113 12 CURVE SMOOTH",
"110 12 OFFCURVE",
"110 0 OFFCURVE",
"113 0 CURVE SMOOTH"
);
}
);
width = 553;
}
);
leftKerningGroup = T;
rightKerningGroup = T;
unicode = 0054;
},
{
glyphname = Tbar;
layers = (
{
components = (
{
name = T;
}
);
layerId = "2373B5BC-5F65-41C1-A640-5B37284EFBFD";
paths = (
{
closed = 1;
nodes = (
"433 313 LINE SMOOTH",
"439 313 OFFCURVE",
"439 332 OFFCURVE",
"433 332 CURVE SMOOTH",
"175 332 LINE SMOOTH",
"170 332 OFFCURVE",
"170 313 OFFCURVE",
"175 313 CURVE SMOOTH"
);
}
);
width = 553;
},
{
components = (
{
name = T;
}
);
layerId = "A1717557-2B81-457C-987E-D55DA76CA63F";
paths = (
{
closed = 1;
nodes = (
"441 309 LINE SMOOTH",
"447 309 OFFCURVE",
"447 337 OFFCURVE",
"441 337 CURVE SMOOTH",
"160 337 LINE SMOOTH",
"154 337 OFFCURVE",
"154 309 OFFCURVE",
"160 309 CURVE SMOOTH"
);
}
);
width = 553;
}
);
leftKerningGroup = T;
leftMetricsKey = T;
rightKerningGroup = T;
rightMetricsKey = T;
unicode = 0166;
},
{
glyphname = U;
layers = (
{
anchors = (
{
name = bottom;
position = "{275, 0}";
},
{
name = ogonek;
position = "{361, 13}";
},
{
name = top;
position = "{402, 625}";
},
{
name = topright;
position = "{670, 625}";
}
);
layerId = "2373B5BC-5F65-41C1-A640-5B37284EFBFD";
paths = (
{
closed = 1;
nodes = (
"512 234 LINE SMOOTH",
"489 99 OFFCURVE",
"407 16 OFFCURVE",
"296 16 CURVE SMOOTH",
"186 16 OFFCURVE",
"126 97 OFFCURVE",
"154 258 CURVE SMOOTH",
"205 540 LINE SMOOTH",
"215 598 OFFCURVE",
"229 613 OFFCURVE",
"298 613 CURVE SMOOTH",
"303 613 OFFCURVE",
"303 625 OFFCURVE",
"298 625 CURVE SMOOTH",
"273 625 OFFCURVE",
"236 622 OFFCURVE",
"194 622 CURVE SMOOTH",
"156 622 OFFCURVE",
"120 625 OFFCURVE",
"91 625 CURVE SMOOTH",
"87 625 OFFCURVE",
"87 613 OFFCURVE",
"91 613 CURVE SMOOTH",
"158 613 OFFCURVE",
"168 602 OFFCURVE",
"158 545 CURVE SMOOTH",
"102 226 LINE SMOOTH",
"76 80 OFFCURVE",
"142 -13 OFFCURVE",
"275 -13 CURVE SMOOTH",
"404 -13 OFFCURVE",
"504 75 OFFCURVE",
"532 233 CURVE SMOOTH",
"582 519 LINE SMOOTH",
"594 582 OFFCURVE",
"621 613 OFFCURVE",
"671 613 CURVE SMOOTH",
"676 613 OFFCURVE",
"676 625 OFFCURVE",
"671 625 CURVE SMOOTH",
"649 625 OFFCURVE",
"620 622 OFFCURVE",
"591 622 CURVE SMOOTH",
"558 622 OFFCURVE",
"531 625 OFFCURVE",
"504 625 CURVE SMOOTH",
"499 625 OFFCURVE",
"499 613 OFFCURVE",
"504 613 CURVE SMOOTH",
"556 613 OFFCURVE",
"574 585 OFFCURVE",
"564 522 CURVE SMOOTH"
);
}
);
width = 618;
},
{
anchors = (
{
name = bottom;
position = "{276, 0}";
},
{
name = ogonek;
position = "{371, 12}";
},
{
name = top;
position = "{413, 625}";
},
{
name = topright;
position = "{673, 625}";
}
);
layerId = "A1717557-2B81-457C-987E-D55DA76CA63F";
paths = (
{
closed = 1;
nodes = (
"505 198 LINE SMOOTH",
"487 89 OFFCURVE",
"415 23 OFFCURVE",
"313 23 CURVE SMOOTH",
"216 23 OFFCURVE",
"164 83 OFFCURVE",
"189 229 CURVE SMOOTH",
"244 538 LINE SMOOTH",
"254 595 OFFCURVE",
"267 613 OFFCURVE",
"323 613 CURVE SMOOTH",
"325 613 OFFCURVE",
"326 625 OFFCURVE",
"323 625 CURVE SMOOTH",
"294 625 OFFCURVE",
"254 622 OFFCURVE",
"207 622 CURVE SMOOTH",
"165 622 OFFCURVE",
"126 625 OFFCURVE",
"94 625 CURVE SMOOTH",
"92 625 OFFCURVE",
"90 613 OFFCURVE",
"95 613 CURVE SMOOTH",
"147 613 OFFCURVE",
"156 605 OFFCURVE",
"146 547 CURVE SMOOTH",
"84 201 LINE SMOOTH",
"61 68 OFFCURVE",
"142 -14 OFFCURVE",
"277 -14 CURVE SMOOTH",
"408 -14 OFFCURVE",
"512 64 OFFCURVE",
"535 192 CURVE SMOOTH",
"588 494 LINE SMOOTH",
"600 565 OFFCURVE",
"636 613 OFFCURVE",
"684 613 CURVE SMOOTH",
"687 613 OFFCURVE",
"689 625 OFFCURVE",
"684 625 CURVE SMOOTH",
"660 625 OFFCURVE",
"627 622 OFFCURVE",
"594 622 CURVE SMOOTH",
"557 622 OFFCURVE",
"526 625 OFFCURVE",
"496 625 CURVE SMOOTH",
"494 625 OFFCURVE",
"492 613 OFFCURVE",
"496 613 CURVE SMOOTH",
"547 613 OFFCURVE",
"571 572 OFFCURVE",
"559 501 CURVE SMOOTH"
);
}
);
width = 620;
}
);
leftKerningGroup = U;
rightKerningGroup = U.ss02;
unicode = 0055;
},
{
color = 9;
glyphname = Uhorn;
layers = (
{
anchors = (
{
name = bottom;
position = "{258, 0}";
},
{
name = top;
position = "{402, 625}";
}
);
layerId = "2373B5BC-5F65-41C1-A640-5B37284EFBFD";
paths = (
{
closed = 1;
nodes = (
"595 593 OFFCURVE",
"626 608 OFFCURVE",
"644 614 CURVE SMOOTH",
"687 633 OFFCURVE",
"729 663 OFFCURVE",
"736 704 CURVE SMOOTH",
"740 730 OFFCURVE",
"733 753 OFFCURVE",
"710 753 CURVE SMOOTH",
"695 753 OFFCURVE",
"675 742 OFFCURVE",
"671 720 CURVE SMOOTH",
"667 697 OFFCURVE",
"683 698 OFFCURVE",
"678 673 CURVE SMOOTH",
"671 635 OFFCURVE",
"646 622 OFFCURVE",
"589 622 CURVE SMOOTH",
"557 622 OFFCURVE",
"530 625 OFFCURVE",
"503 625 CURVE SMOOTH",
"501 625 OFFCURVE",
"498 613 OFFCURVE",
"503 613 CURVE SMOOTH",
"554 613 OFFCURVE",
"573 585 OFFCURVE",
"563 522 CURVE SMOOTH",
"511 234 LINE SMOOTH",
"488 99 OFFCURVE",
"406 16 OFFCURVE",
"294 16 CURVE SMOOTH",
"185 16 OFFCURVE",
"125 97 OFFCURVE",
"153 258 CURVE SMOOTH",
"204 540 LINE SMOOTH",
"214 598 OFFCURVE",
"228 613 OFFCURVE",
"297 613 CURVE SMOOTH",
"299 613 OFFCURVE",
"302 625 OFFCURVE",
"297 625 CURVE SMOOTH",
"271 625 OFFCURVE",
"235 622 OFFCURVE",
"193 622 CURVE SMOOTH",
"154 622 OFFCURVE",
"119 625 OFFCURVE",
"90 625 CURVE SMOOTH",
"88 625 OFFCURVE",
"85 613 OFFCURVE",
"90 613 CURVE SMOOTH",
"157 613 OFFCURVE",
"167 602 OFFCURVE",
"157 545 CURVE SMOOTH",
"101 226 LINE SMOOTH",
"75 80 OFFCURVE",
"140 -13 OFFCURVE",
"274 -13 CURVE SMOOTH",
"402 -13 OFFCURVE",
"503 75 OFFCURVE",
"531 233 CURVE SMOOTH",
"581 519 LINE SMOOTH"
);
}
);
width = 616;
},
{
anchors = (
{
name = bottom;
position = "{258, 0}";
},
{
name = top;
position = "{411, 625}";
}
);
layerId = "A1717557-2B81-457C-987E-D55DA76CA63F";
paths = (
{
closed = 1;
nodes = (
"604 578 OFFCURVE",
"630 595 OFFCURVE",
"662 609 CURVE SMOOTH",
"701 626 OFFCURVE",
"759 648 OFFCURVE",
"770 705 CURVE SMOOTH",
"775 737 OFFCURVE",
"764 766 OFFCURVE",
"732 766 CURVE SMOOTH",
"711 766 OFFCURVE",
"688 753 OFFCURVE",
"682 724 CURVE SMOOTH",
"677 697 OFFCURVE",
"694 685 OFFCURVE",
"692 665 CURVE SMOOTH",
"690 634 OFFCURVE",
"648 622 OFFCURVE",
"594 622 CURVE SMOOTH",
"557 622 OFFCURVE",
"526 625 OFFCURVE",
"496 625 CURVE SMOOTH",
"494 625 OFFCURVE",
"492 613 OFFCURVE",
"496 613 CURVE SMOOTH",
"547 613 OFFCURVE",
"571 572 OFFCURVE",
"559 501 CURVE SMOOTH",
"505 198 LINE SMOOTH",
"487 89 OFFCURVE",
"416 23 OFFCURVE",
"311 23 CURVE SMOOTH",
"218 23 OFFCURVE",
"164 83 OFFCURVE",
"189 229 CURVE SMOOTH",
"244 538 LINE SMOOTH",
"254 595 OFFCURVE",
"267 613 OFFCURVE",
"323 613 CURVE SMOOTH",
"325 613 OFFCURVE",
"326 625 OFFCURVE",
"323 625 CURVE SMOOTH",
"294 625 OFFCURVE",
"254 622 OFFCURVE",
"207 622 CURVE SMOOTH",
"165 622 OFFCURVE",
"126 625 OFFCURVE",
"94 625 CURVE SMOOTH",
"92 625 OFFCURVE",
"90 613 OFFCURVE",
"95 613 CURVE SMOOTH",
"147 613 OFFCURVE",
"156 605 OFFCURVE",
"146 547 CURVE SMOOTH",
"84 201 LINE SMOOTH",
"61 68 OFFCURVE",
"142 -14 OFFCURVE",
"277 -14 CURVE SMOOTH",
"408 -14 OFFCURVE",
"512 64 OFFCURVE",
"535 192 CURVE SMOOTH",
"588 494 LINE SMOOTH"
);
}
);
width = 621;
}
);
leftKerningGroup = U;
leftMetricsKey = U.ss02;
rightKerningGroup = U.ss02;
unicode = 01AF;
},
{
glyphname = V;
layers = (
{
anchors = (
{
name = bottom;
position = "{262, 0}";
},
{
name = top;
position = "{372, 625}";
}
);
layerId = "2373B5BC-5F65-41C1-A640-5B37284EFBFD";
paths = (
{
closed = 1;
nodes = (
"261 -4 OFFCURVE",
"276 -5 OFFCURVE",
"280 1 CURVE SMOOTH",
"561 544 LINE SMOOTH",
"591 601 OFFCURVE",
"621 613 OFFCURVE",
"655 613 CURVE SMOOTH",
"660 613 OFFCURVE",
"660 625 OFFCURVE",
"655 625 CURVE SMOOTH",
"626 625 OFFCURVE",
"611 622 OFFCURVE",
"579 622 CURVE SMOOTH",
"540 622 OFFCURVE",
"520 625 OFFCURVE",
"495 625 CURVE SMOOTH",
"491 625 OFFCURVE",
"491 613 OFFCURVE",
"495 613 CURVE SMOOTH",
"558 613 OFFCURVE",
"567 595 OFFCURVE",
"544 550 CURVE SMOOTH",
"271 25 LINE",
"302 56 LINE",
"194 552 LINE SMOOTH",
"184 600 OFFCURVE",
"208 613 OFFCURVE",
"251 613 CURVE SMOOTH",
"256 613 OFFCURVE",
"256 625 OFFCURVE",
"251 625 CURVE SMOOTH",
"226 625 OFFCURVE",
"196 622 OFFCURVE",
"156 622 CURVE SMOOTH",
"133 622 OFFCURVE",
"106 625 OFFCURVE",
"84 625 CURVE SMOOTH",
"81 625 OFFCURVE",
"81 613 OFFCURVE",
"84 613 CURVE SMOOTH",
"119 613 OFFCURVE",
"136 594 OFFCURVE",
"146 542 CURVE SMOOTH",
"260 1 LINE SMOOTH"
);
}
);
width = 591;
},
{
anchors = (
{
name = bottom;
position = "{265, 0}";
},
{
name = top;
position = "{375, 625}";
}
);
layerId = "A1717557-2B81-457C-987E-D55DA76CA63F";
paths = (
{
closed = 1;
nodes = (
"262 -4 OFFCURVE",
"284 -6 OFFCURVE",
"288 1 CURVE SMOOTH",
"551 506 LINE SMOOTH",
"600 601 OFFCURVE",
"636 613 OFFCURVE",
"675 613 CURVE SMOOTH",
"680 613 OFFCURVE",
"680 625 OFFCURVE",
"675 625 CURVE SMOOTH",
"641 625 OFFCURVE",
"623 622 OFFCURVE",
"587 622 CURVE SMOOTH",
"532 622 OFFCURVE",
"504 625 OFFCURVE",
"468 625 CURVE SMOOTH",
"464 625 OFFCURVE",
"464 613 OFFCURVE",
"468 613 CURVE SMOOTH",
"525 613 OFFCURVE",
"553 575 OFFCURVE",
"519 509 CURVE SMOOTH",
"268 15 LINE",
"338 113 LINE",
"233 552 LINE SMOOTH",
"221 600 OFFCURVE",
"247 613 OFFCURVE",
"288 613 CURVE SMOOTH",
"292 613 OFFCURVE",
"292 625 OFFCURVE",
"288 625 CURVE SMOOTH",
"256 625 OFFCURVE",
"220 622 OFFCURVE",
"164 622 CURVE SMOOTH",
"135 622 OFFCURVE",
"98 625 OFFCURVE",
"69 625 CURVE SMOOTH",
"65 625 OFFCURVE",
"65 613 OFFCURVE",
"69 613 CURVE SMOOTH",
"103 613 OFFCURVE",
"117 594 OFFCURVE",
"130 542 CURVE SMOOTH",
"261 1 LINE SMOOTH"
);
}
);
width = 599;
}
);
leftKerningGroup = V;
rightKerningGroup = V;
unicode = 0056;
},
{
glyphname = W;
layers = (
{
anchors = (
{
name = bottom;
position = "{377, 0}";
},
{
name = top;
position = "{491, 625}";
}
);
layerId = "2373B5BC-5F65-41C1-A640-5B37284EFBFD";
leftMetricsKey = "=V";
rightMetricsKey = "=V";
paths = (
{
closed = 1;
nodes = (
"490 -4 OFFCURVE",
"505 -4 OFFCURVE",
"508 1 CURVE SMOOTH",
"791 544 LINE SMOOTH",
"820 601 OFFCURVE",
"849 613 OFFCURVE",
"884 613 CURVE SMOOTH",
"889 613 OFFCURVE",
"889 625 OFFCURVE",
"884 625 CURVE SMOOTH",
"855 625 OFFCURVE",
"840 622 OFFCURVE",
"808 622 CURVE SMOOTH",
"770 622 OFFCURVE",
"750 625 OFFCURVE",
"723 625 CURVE SMOOTH",
"718 625 OFFCURVE",
"718 613 OFFCURVE",
"723 613 CURVE SMOOTH",
"787 613 OFFCURVE",
"799 596 OFFCURVE",
"774 550 CURVE SMOOTH",
"497 11 LINE",
"530 56 LINE",
"423 552 LINE SMOOTH",
"412 607 OFFCURVE",
"414 613 OFFCURVE",
"450 613 CURVE SMOOTH",
"456 613 OFFCURVE",
"456 625 OFFCURVE",
"450 625 CURVE SMOOTH",
"434 625 OFFCURVE",
"413 622 OFFCURVE",
"385 622 CURVE SMOOTH",
"361 622 OFFCURVE",
"335 625 OFFCURVE",
"312 625 CURVE SMOOTH",
"308 625 OFFCURVE",
"308 613 OFFCURVE",
"312 613 CURVE SMOOTH",
"349 613 OFFCURVE",
"363 594 OFFCURVE",
"374 542 CURVE SMOOTH",
"489 1 LINE SMOOTH"
);
},
{
closed = 1;
nodes = (
"261 -4 OFFCURVE",
"276 -4 OFFCURVE",
"280 1 CURVE SMOOTH",
"447 323 LINE",
"437 339 LINE",
"269 11 LINE",
"302 56 LINE",
"194 552 LINE SMOOTH",
"184 600 OFFCURVE",
"208 613 OFFCURVE",
"251 613 CURVE SMOOTH",
"256 613 OFFCURVE",
"256 625 OFFCURVE",
"251 625 CURVE SMOOTH",
"226 625 OFFCURVE",
"196 622 OFFCURVE",
"156 622 CURVE SMOOTH",
"133 622 OFFCURVE",
"106 625 OFFCURVE",
"84 625 CURVE SMOOTH",
"80 625 OFFCURVE",
"80 613 OFFCURVE",
"84 613 CURVE SMOOTH",
"119 613 OFFCURVE",
"136 594 OFFCURVE",
"146 542 CURVE SMOOTH",
"260 1 LINE SMOOTH"
);
},
{
closed = 1;
nodes = (
"567 544 LINE SMOOTH",
"596 601 OFFCURVE",
"627 613 OFFCURVE",
"661 613 CURVE SMOOTH",
"665 613 OFFCURVE",
"665 625 OFFCURVE",
"661 625 CURVE SMOOTH",
"632 625 OFFCURVE",
"616 622 OFFCURVE",
"585 622 CURVE SMOOTH",
"560 622 OFFCURVE",
"547 625 OFFCURVE",
"530 625 CURVE SMOOTH",
"525 625 OFFCURVE",
"525 613 OFFCURVE",
"530 613 CURVE SMOOTH",
"571 613 OFFCURVE",
"575 596 OFFCURVE",
"551 550 CURVE SMOOTH",
"443 339 LINE",
"453 323 LINE"
);
}
);
width = 821;
},
{
anchors = (
{
name = bottom;
position = "{382, 0}";
},
{
name = top;
position = "{488, 625}";
}
);
layerId = "A1717557-2B81-457C-987E-D55DA76CA63F";
leftMetricsKey = "=V";
rightMetricsKey = "=V";
paths = (
{
closed = 1;
nodes = (
"496 -4 OFFCURVE",
"518 -6 OFFCURVE",
"522 1 CURVE SMOOTH",
"785 506 LINE SMOOTH",
"834 601 OFFCURVE",
"870 613 OFFCURVE",
"909 613 CURVE SMOOTH",
"913 613 OFFCURVE",
"913 625 OFFCURVE",
"909 625 CURVE SMOOTH",
"875 625 OFFCURVE",
"857 622 OFFCURVE",
"821 622 CURVE SMOOTH",
"775 622 OFFCURVE",
"752 625 OFFCURVE",
"722 625 CURVE SMOOTH",
"718 625 OFFCURVE",
"718 613 OFFCURVE",
"722 613 CURVE SMOOTH",
"771 613 OFFCURVE",
"782 566 OFFCURVE",
"753 509 CURVE SMOOTH",
"502 15 LINE",
"568 113 LINE",
"463 552 LINE SMOOTH",
"450 607 OFFCURVE",
"454 613 OFFCURVE",
"475 613 CURVE SMOOTH",
"480 613 OFFCURVE",
"480 625 OFFCURVE",
"475 625 CURVE SMOOTH",
"455 625 OFFCURVE",
"433 622 OFFCURVE",
"398 622 CURVE SMOOTH",
"372 622 OFFCURVE",
"340 625 OFFCURVE",
"315 625 CURVE SMOOTH",
"311 625 OFFCURVE",
"311 613 OFFCURVE",
"315 613 CURVE SMOOTH",
"342 613 OFFCURVE",
"351 594 OFFCURVE",
"364 542 CURVE SMOOTH",
"495 1 LINE SMOOTH"
);
},
{
closed = 1;
nodes = (
"262 -4 OFFCURVE",
"284 -6 OFFCURVE",
"288 1 CURVE SMOOTH",
"463 339 LINE",
"447 366 LINE",
"268 15 LINE",
"335 113 LINE",
"229 552 LINE SMOOTH",
"218 599 OFFCURVE",
"241 613 OFFCURVE",
"264 613 CURVE SMOOTH",
"269 613 OFFCURVE",
"269 625 OFFCURVE",
"264 625 CURVE SMOOTH",
"239 625 OFFCURVE",
"209 622 OFFCURVE",
"164 622 CURVE SMOOTH",
"135 622 OFFCURVE",
"98 625 OFFCURVE",
"69 625 CURVE SMOOTH",
"65 625 OFFCURVE",
"65 613 OFFCURVE",
"69 613 CURVE SMOOTH",
"103 613 OFFCURVE",
"117 594 OFFCURVE",
"130 542 CURVE SMOOTH",
"261 1 LINE SMOOTH"
);
},
{
closed = 1;
nodes = (
"568 506 LINE SMOOTH",
"618 600 OFFCURVE",
"643 613 OFFCURVE",
"677 613 CURVE SMOOTH",
"682 613 OFFCURVE",
"682 625 OFFCURVE",
"677 625 CURVE SMOOTH",
"649 625 OFFCURVE",
"635 622 OFFCURVE",
"605 622 CURVE SMOOTH",
"571 622 OFFCURVE",
"554 625 OFFCURVE",
"532 625 CURVE SMOOTH",
"529 625 OFFCURVE",
"529 613 OFFCURVE",
"532 613 CURVE SMOOTH",
"572 613 OFFCURVE",
"573 580 OFFCURVE",
"537 509 CURVE SMOOTH",
"464 366 LINE",
"481 339 LINE"
);
}
);
width = 833;
}
);
leftKerningGroup = V;
leftMetricsKey = "-V";
rightKerningGroup = V;
rightMetricsKey = V;
unicode = 0057;
},
{
glyphname = X;
layers = (
{
anchors = (
{
name = bottom;
position = "{256, 0}";
},
{
name = top;
position = "{366, 625}";
}
);
layerId = "2373B5BC-5F65-41C1-A640-5B37284EFBFD";
paths = (
{
closed = 1;
nodes = (
"365 0 OFFCURVE",
"400 2 OFFCURVE",
"444 2 CURVE SMOOTH",
"475 2 OFFCURVE",
"503 0 OFFCURVE",
"526 0 CURVE SMOOTH",
"531 0 OFFCURVE",
"531 12 OFFCURVE",
"526 12 CURVE SMOOTH",
"477 12 OFFCURVE",
"451 30 OFFCURVE",
"432 83 CURVE SMOOTH",
"242 573 LINE SMOOTH",
"230 602 OFFCURVE",
"242 613 OFFCURVE",
"289 613 CURVE SMOOTH",
"294 613 OFFCURVE",
"294 625 OFFCURVE",
"289 625 CURVE SMOOTH",
"260 625 OFFCURVE",
"221 622 OFFCURVE",
"173 622 CURVE SMOOTH",
"153 622 OFFCURVE",
"131 625 OFFCURVE",
"111 625 CURVE SMOOTH",
"106 625 OFFCURVE",
"106 613 OFFCURVE",
"111 613 CURVE SMOOTH",
"152 613 OFFCURVE",
"175 594 OFFCURVE",
"195 542 CURVE SMOOTH",
"385 51 LINE SMOOTH",
"396 22 OFFCURVE",
"384 12 OFFCURVE",
"337 12 CURVE SMOOTH",
"332 12 OFFCURVE",
"331 0 OFFCURVE",
"337 0 CURVE SMOOTH"
);
},
{
closed = 1;
nodes = (
"18 0 OFFCURVE",
"30 2 OFFCURVE",
"58 2 CURVE SMOOTH",
"102 2 OFFCURVE",
"124 0 OFFCURVE",
"153 0 CURVE SMOOTH",
"158 0 OFFCURVE",
"158 12 OFFCURVE",
"153 12 CURVE SMOOTH",
"99 12 OFFCURVE",
"96 40 OFFCURVE",
"137 92 CURVE SMOOTH",
"299 299 LINE",
"289 309 LINE",
"117 92 LINE SMOOTH",
"75 40 OFFCURVE",
"30 12 OFFCURVE",
"-8 12 CURVE SMOOTH",
"-13 12 OFFCURVE",
"-13 0 OFFCURVE",
"-8 0 CURVE SMOOTH"
);
},
{
closed = 1;
nodes = (
"485 523 LINE SMOOTH",
"531 579 OFFCURVE",
"575 613 OFFCURVE",
"615 613 CURVE SMOOTH",
"621 613 OFFCURVE",
"621 625 OFFCURVE",
"615 625 CURVE SMOOTH",
"591 625 OFFCURVE",
"577 622 OFFCURVE",
"550 622 CURVE SMOOTH",
"505 622 OFFCURVE",
"484 625 OFFCURVE",
"455 625 CURVE SMOOTH",
"450 625 OFFCURVE",
"450 613 OFFCURVE",
"455 613 CURVE SMOOTH",
"508 613 OFFCURVE",
"511 582 OFFCURVE",
"465 524 CURVE SMOOTH",
"311 325 LINE",
"320 316 LINE"
);
}
);
width = 579;
},
{
anchors = (
{
name = bottom;
position = "{256, 0}";
},
{
name = top;
position = "{366, 625}";
}
);
layerId = "A1717557-2B81-457C-987E-D55DA76CA63F";
paths = (
{
closed = 1;
nodes = (
"342 0 OFFCURVE",
"400 2 OFFCURVE",
"444 2 CURVE SMOOTH",
"480 2 OFFCURVE",
"511 0 OFFCURVE",
"538 0 CURVE SMOOTH",
"543 0 OFFCURVE",
"543 12 OFFCURVE",
"538 12 CURVE SMOOTH",
"496 12 OFFCURVE",
"475 32 OFFCURVE",
"455 83 CURVE SMOOTH",
"268 573 LINE SMOOTH",
"257 600 OFFCURVE",
"280 613 OFFCURVE",
"301 613 CURVE SMOOTH",
"305 613 OFFCURVE",
"305 625 OFFCURVE",
"301 625 CURVE SMOOTH",
"271 625 OFFCURVE",
"221 622 OFFCURVE",
"173 622 CURVE SMOOTH",
"150 622 OFFCURVE",
"123 625 OFFCURVE",
"99 625 CURVE SMOOTH",
"95 625 OFFCURVE",
"95 613 OFFCURVE",
"99 613 CURVE SMOOTH",
"133 613 OFFCURVE",
"153 592 OFFCURVE",
"172 542 CURVE SMOOTH",
"359 51 LINE SMOOTH",
"370 23 OFFCURVE",
"336 12 OFFCURVE",
"313 12 CURVE SMOOTH",
"309 12 OFFCURVE",
"308 0 OFFCURVE",
"313 0 CURVE SMOOTH"
);
},
{
closed = 1;
nodes = (
"-7 0 OFFCURVE",
"19 2 OFFCURVE",
"46 2 CURVE SMOOTH",
"90 2 OFFCURVE",
"146 0 OFFCURVE",
"175 0 CURVE SMOOTH",
"180 0 OFFCURVE",
"180 12 OFFCURVE",
"175 12 CURVE SMOOTH",
"123 12 OFFCURVE",
"92 34 OFFCURVE",
"146 103 CURVE SMOOTH",
"292 291 LINE",
"274 310 LINE",
"126 123 LINE SMOOTH",
"64 44 OFFCURVE",
"8 12 OFFCURVE",
"-32 12 CURVE SMOOTH",
"-37 12 OFFCURVE",
"-37 0 OFFCURVE",
"-32 0 CURVE SMOOTH"
);
},
{
closed = 1;
nodes = (
"469 502 LINE SMOOTH",
"530 580 OFFCURVE",
"587 613 OFFCURVE",
"627 613 CURVE SMOOTH",
"633 613 OFFCURVE",
"633 625 OFFCURVE",
"627 625 CURVE SMOOTH",
"602 625 OFFCURVE",
"577 622 OFFCURVE",
"550 622 CURVE SMOOTH",
"505 622 OFFCURVE",
"449 625 OFFCURVE",
"420 625 CURVE SMOOTH",
"415 625 OFFCURVE",
"415 613 OFFCURVE",
"420 613 CURVE SMOOTH",
"473 613 OFFCURVE",
"503 591 OFFCURVE",
"449 522 CURVE SMOOTH",
"303 333 LINE",
"322 315 LINE"
);
}
);
width = 580;
}
);
leftKerningGroup = X;
rightKerningGroup = X;
unicode = 0058;
},
{
glyphname = Y;
layers = (
{
anchors = (
{
name = bottom;
position = "{242, 0}";
},
{
name = top;
position = "{343, 625}";
},
{
name = topleft;
position = "{99, 625}";
}
);
layerId = "2373B5BC-5F65-41C1-A640-5B37284EFBFD";
paths = (
{
closed = 1;
nodes = (
"469 523 LINE SMOOTH",
"512 581 OFFCURVE",
"557 613 OFFCURVE",
"599 613 CURVE SMOOTH",
"604 613 OFFCURVE",
"604 625 OFFCURVE",
"599 625 CURVE SMOOTH",
"574 625 OFFCURVE",
"560 622 OFFCURVE",
"532 622 CURVE SMOOTH",
"489 622 OFFCURVE",
"468 625 OFFCURVE",
"437 625 CURVE SMOOTH",
"433 625 OFFCURVE",
"433 613 OFFCURVE",
"437 613 CURVE SMOOTH",
"488 613 OFFCURVE",
"491 582 OFFCURVE",
"449 524 CURVE SMOOTH",
"273 278 LINE",
"282 270 LINE"
);
},
{
closed = 1;
nodes = (
"161 0 OFFCURVE",
"195 2 OFFCURVE",
"235 2 CURVE SMOOTH",
"274 2 OFFCURVE",
"306 0 OFFCURVE",
"333 0 CURVE SMOOTH",
"338 0 OFFCURVE",
"338 12 OFFCURVE",
"333 12 CURVE SMOOTH",
"268 12 OFFCURVE",
"260 23 OFFCURVE",
"270 81 CURVE SMOOTH",
"312 319 LINE",
"263 310 LINE",
"223 81 LINE SMOOTH",
"214 23 OFFCURVE",
"199 12 OFFCURVE",
"135 12 CURVE SMOOTH",
"130 12 OFFCURVE",
"130 0 OFFCURVE",
"135 0 CURVE SMOOTH"
);
},
{
closed = 1;
nodes = (
"312 317 LINE",
"206 573 LINE SMOOTH",
"194 602 OFFCURVE",
"204 613 OFFCURVE",
"250 613 CURVE SMOOTH",
"255 613 OFFCURVE",
"257 625 OFFCURVE",
"253 625 CURVE SMOOTH",
"223 625 OFFCURVE",
"182 622 OFFCURVE",
"138 622 CURVE SMOOTH",
"118 622 OFFCURVE",
"95 625 OFFCURVE",
"76 625 CURVE SMOOTH",
"71 625 OFFCURVE",
"71 613 OFFCURVE",
"76 613 CURVE SMOOTH",
"117 613 OFFCURVE",
"137 593 OFFCURVE",
"159 542 CURVE SMOOTH",
"274 271 LINE"
);
}
);
width = 527;
},
{
anchors = (
{
name = bottom;
position = "{246, 0}";
},
{
name = top;
position = "{349, 625}";
},
{
name = topleft;
position = "{99, 625}";
}
);
layerId = "A1717557-2B81-457C-987E-D55DA76CA63F";
paths = (
{
closed = 1;
nodes = (
"469 504 LINE SMOOTH",
"519 579 OFFCURVE",
"563 613 OFFCURVE",
"605 613 CURVE SMOOTH",
"609 613 OFFCURVE",
"609 625 OFFCURVE",
"605 625 CURVE SMOOTH",
"580 625 OFFCURVE",
"566 622 OFFCURVE",
"538 622 CURVE SMOOTH",
"495 622 OFFCURVE",
"450 625 OFFCURVE",
"420 625 CURVE SMOOTH",
"415 625 OFFCURVE",
"415 613 OFFCURVE",
"420 613 CURVE SMOOTH",
"468 613 OFFCURVE",
"481 573 OFFCURVE",
"450 526 CURVE SMOOTH",
"294 282 LINE",
"311 265 LINE"
);
},
{
closed = 1;
nodes = (
"150 0 OFFCURVE",
"192 2 OFFCURVE",
"241 2 CURVE SMOOTH",
"289 2 OFFCURVE",
"330 0 OFFCURVE",
"363 0 CURVE SMOOTH",
"367 0 OFFCURVE",
"367 12 OFFCURVE",
"363 12 CURVE SMOOTH",
"299 12 OFFCURVE",
"291 23 OFFCURVE",
"302 81 CURVE SMOOTH",
"344 319 LINE",
"243 310 LINE",
"204 81 LINE SMOOTH",
"194 23 OFFCURVE",
"180 12 OFFCURVE",
"117 12 CURVE SMOOTH",
"112 12 OFFCURVE",
"112 0 OFFCURVE",
"117 0 CURVE SMOOTH"
);
},
{
closed = 1;
nodes = (
"344 317 LINE",
"237 573 LINE SMOOTH",
"225 604 OFFCURVE",
"237 613 OFFCURVE",
"282 613 CURVE SMOOTH",
"287 613 OFFCURVE",
"287 625 OFFCURVE",
"282 625 CURVE SMOOTH",
"257 625 OFFCURVE",
"205 622 OFFCURVE",
"167 622 CURVE SMOOTH",
"136 622 OFFCURVE",
"99 625 OFFCURVE",
"70 625 CURVE SMOOTH",
"65 625 OFFCURVE",
"65 613 OFFCURVE",
"70 613 CURVE SMOOTH",
"97 613 OFFCURVE",
"118 591 OFFCURVE",
"139 542 CURVE SMOOTH",
"254 271 LINE"
);
}
);
width = 535;
}
);
leftKerningGroup = Y;
rightKerningGroup = Y;
unicode = 0059;
},
{
glyphname = Z;
layers = (
{
anchors = (
{
name = bottom;
position = "{239, 0}";
},
{
name = top;
position = "{349, 625}";
}
);
layerId = "2373B5BC-5F65-41C1-A640-5B37284EFBFD";
paths = (
{
closed = 1;
nodes = (
"461 -2 OFFCURVE",
"465 4 OFFCURVE",
"465 8 CURVE SMOOTH",
"499 129 LINE SMOOTH",
"501 133 OFFCURVE",
"489 136 OFFCURVE",
"488 131 CURVE SMOOTH",
"461 49 OFFCURVE",
"422 19 OFFCURVE",
"338 19 CURVE SMOOTH",
"287 19 OFFCURVE",
"205 19 OFFCURVE",
"99 19 CURVE SMOOTH",
"92 19 OFFCURVE",
"91 20 OFFCURVE",
"97 27 CURVE SMOOTH",
"559 612 LINE SMOOTH",
"563 616 OFFCURVE",
"560 625 OFFCURVE",
"554 625 CURVE SMOOTH",
"396 625 OFFCURVE",
"298 625 OFFCURVE",
"226 625 CURVE SMOOTH",
"180 625 OFFCURVE",
"174 628 OFFCURVE",
"181 651 CURVE SMOOTH",
"184 655 OFFCURVE",
"171 658 OFFCURVE",
"170 655 CURVE SMOOTH",
"108 504 LINE SMOOTH",
"105 499 OFFCURVE",
"116 496 OFFCURVE",
"118 501 CURVE SMOOTH",
"167 606 OFFCURVE",
"167 608 OFFCURVE",
"487 608 CURVE SMOOTH",
"495 608 OFFCURVE",
"495 607 OFFCURVE",
"489 600 CURVE SMOOTH",
"22 13 LINE SMOOTH",
"19 8 OFFCURVE",
"20 0 OFFCURVE",
"26 0 CURVE SMOOTH",
"159 0 OFFCURVE",
"323 0 OFFCURVE",
"456 -2 CURVE SMOOTH"
);
}
);
width = 545;
},
{
anchors = (
{
name = bottom;
position = "{280, 0}";
},
{
name = top;
position = "{357, 625}";
}
);
layerId = "A1717557-2B81-457C-987E-D55DA76CA63F";
paths = (
{
closed = 1;
nodes = (
"478 -2 OFFCURVE",
"483 4 OFFCURVE",
"483 8 CURVE SMOOTH",
"522 152 LINE SMOOTH",
"523 157 OFFCURVE",
"513 159 OFFCURVE",
"510 154 CURVE SMOOTH",
"442 51 OFFCURVE",
"366 19 OFFCURVE",
"233 19 CURVE SMOOTH",
"211 19 OFFCURVE",
"175 19 OFFCURVE",
"131 19 CURVE SMOOTH",
"124 19 OFFCURVE",
"123 20 OFFCURVE",
"129 27 CURVE SMOOTH",
"591 612 LINE SMOOTH",
"594 616 OFFCURVE",
"592 625 OFFCURVE",
"586 625 CURVE SMOOTH",
"415 625 OFFCURVE",
"310 625 OFFCURVE",
"232 625 CURVE SMOOTH",
"186 625 OFFCURVE",
"180 628 OFFCURVE",
"187 651 CURVE SMOOTH",
"189 655 OFFCURVE",
"177 658 OFFCURVE",
"175 655 CURVE SMOOTH",
"102 469 LINE SMOOTH",
"99 464 OFFCURVE",
"109 461 OFFCURVE",
"112 465 CURVE SMOOTH",
"193 584 OFFCURVE",
"254 608 OFFCURVE",
"467 608 CURVE SMOOTH",
"475 608 OFFCURVE",
"475 607 OFFCURVE",
"469 600 CURVE SMOOTH",
"2 13 LINE SMOOTH",
"-1 8 OFFCURVE",
"0 0 OFFCURVE",
"6 0 CURVE SMOOTH",
"147 0 OFFCURVE",
"332 0 OFFCURVE",
"474 -2 CURVE SMOOTH"
);
}
);
width = 557;
}
);
rightKerningGroup = Z;
unicode = 005A;
},
{
glyphname = Q.cv01;
layers = (
{
anchors = (
{
name = bottom;
position = "{291, 0}";
},
{
name = top;
position = "{401, 625}";
}
);
components = (
{
name = O;
}
);
layerId = "2373B5BC-5F65-41C1-A640-5B37284EFBFD";
paths = (
{
closed = 1;
nodes = (
"982 -241 OFFCURVE",
"1029 -220 OFFCURVE",
"1071 -184 CURVE",
"1076 -180 OFFCURVE",
"1069 -172 OFFCURVE",
"1064 -175 CURVE",
"1040 -192 OFFCURVE",
"1019 -201 OFFCURVE",
"967 -201 CURVE SMOOTH",
"724 -201 OFFCURVE",
"501 -71 OFFCURVE",
"324 -71 CURVE SMOOTH",
"295 -71 OFFCURVE",
"271 -76 OFFCURVE",
"250 -85 CURVE",
"228 -104 LINE",
"468 51 LINE",
"460 57 LINE",
"157 -131 LINE SMOOTH",
"152 -133 OFFCURVE",
"157 -144 OFFCURVE",
"163 -140 CURVE SMOOTH",
"202 -116 OFFCURVE",
"249 -109 OFFCURVE",
"283 -109 CURVE SMOOTH",
"448 -109 OFFCURVE",
"720 -241 OFFCURVE",
"916 -241 CURVE SMOOTH"
);
}
);
width = 650;
},
{
anchors = (
{
name = bottom;
position = "{294, 0}";
},
{
name = top;
position = "{404, 625}";
}
);
components = (
{
name = O;
}
);
layerId = "A1717557-2B81-457C-987E-D55DA76CA63F";
paths = (
{
closed = 1;
nodes = (
"977 -264 OFFCURVE",
"1030 -235 OFFCURVE",
"1078 -184 CURVE",
"1083 -180 OFFCURVE",
"1076 -172 OFFCURVE",
"1071 -175 CURVE",
"1047 -192 OFFCURVE",
"1026 -201 OFFCURVE",
"974 -201 CURVE SMOOTH",
"731 -201 OFFCURVE",
"508 -71 OFFCURVE",
"331 -71 CURVE SMOOTH",
"302 -71 OFFCURVE",
"278 -76 OFFCURVE",
"257 -85 CURVE",
"235 -104 LINE",
"475 51 LINE",
"463 63 LINE",
"160 -125 LINE SMOOTH",
"156 -127 OFFCURVE",
"164 -144 OFFCURVE",
"170 -140 CURVE SMOOTH",
"192 -133 OFFCURVE",
"218 -132 OFFCURVE",
"236 -132 CURVE SMOOTH",
"409 -132 OFFCURVE",
"695 -264 OFFCURVE",
"899 -264 CURVE SMOOTH"
);
}
);
width = 655;
}
);
leftKerningGroup = O;
leftMetricsKey = O;
rightKerningGroup = O;
},
{
glyphname = Q.cv02;
layers = (
{
anchors = (
{
name = bottom;
position = "{291, 0}";
},
{
name = top;
position = "{401, 625}";
}
);
components = (
{
name = O;
}
);
layerId = "2373B5BC-5F65-41C1-A640-5B37284EFBFD";
paths = (
{
closed = 1;
nodes = (
"1037 -187 OFFCURVE",
"1033 -178 OFFCURVE",
"1028 -179 CURVE SMOOTH",
"998 -186 OFFCURVE",
"965 -189 OFFCURVE",
"931 -189 CURVE SMOOTH",
"770 -189 OFFCURVE",
"574 -115 OFFCURVE",
"404 20 CURVE",
"330 7 LINE",
"533 -145 OFFCURVE",
"705 -219 OFFCURVE",
"863 -219 CURVE SMOOTH",
"922 -219 OFFCURVE",
"978 -209 OFFCURVE",
"1033 -189 CURVE SMOOTH"
);
}
);
width = 650;
},
{
anchors = (
{
name = bottom;
position = "{294, 0}";
},
{
name = top;
position = "{404, 625}";
}
);
components = (
{
name = O;
}
);
layerId = "A1717557-2B81-457C-987E-D55DA76CA63F";
paths = (
{
closed = 1;
nodes = (
"1044 -187 OFFCURVE",
"1040 -178 OFFCURVE",
"1035 -179 CURVE SMOOTH",
"1005 -186 OFFCURVE",
"972 -191 OFFCURVE",
"937 -191 CURVE SMOOTH",
"780 -191 OFFCURVE",
"592 -113 OFFCURVE",
"425 28 CURVE",
"303 -6 LINE",
"512 -157 OFFCURVE",
"699 -220 OFFCURVE",
"862 -220 CURVE SMOOTH",
"923 -220 OFFCURVE",
"981 -209 OFFCURVE",
"1040 -189 CURVE SMOOTH"
);
}
);
width = 655;
}
);
leftKerningGroup = O;
rightKerningGroup = O;
},
{
glyphname = Q.cv03;
layers = (
{
anchors = (
{
name = bottom;
position = "{292, 0}";
},
{
name = top;
position = "{402, 625}";
}
);
layerId = "2373B5BC-5F65-41C1-A640-5B37284EFBFD";
paths = (
{
closed = 1;
nodes = (
"330 -174 OFFCURVE",
"572 35 OFFCURVE",
"618 281 CURVE SMOOTH",
"650 458 OFFCURVE",
"566 636 OFFCURVE",
"384 636 CURVE SMOOTH",
"243 636 OFFCURVE",
"103 524 OFFCURVE",
"75 356 CURVE SMOOTH",
"47 184 OFFCURVE",
"143 39 OFFCURVE",
"287 39 CURVE SMOOTH",
"318 39 OFFCURVE",
"357 46 OFFCURVE",
"389 61 CURVE SMOOTH",
"394 63 OFFCURVE",
"389 73 OFFCURVE",
"385 70 CURVE SMOOTH",
"367 62 OFFCURVE",
"337 57 OFFCURVE",
"317 57 CURVE SMOOTH",
"186 57 OFFCURVE",
"95 208 OFFCURVE",
"123 389 CURVE SMOOTH",
"146 540 OFFCURVE",
"241 612 OFFCURVE",
"342 612 CURVE SMOOTH",
"510 612 OFFCURVE",
"600 435 OFFCURVE",
"568 256 CURVE SMOOTH",
"529 29 OFFCURVE",
"315 -159 OFFCURVE",
"153 -159 CURVE SMOOTH",
"108 -159 OFFCURVE",
"89 -145 OFFCURVE",
"89 -125 CURVE SMOOTH",
"89 -94 OFFCURVE",
"140 -85 OFFCURVE",
"193 -85 CURVE SMOOTH",
"227 -85 OFFCURVE",
"261 -89 OFFCURVE",
"296 -95 CURVE",
"318 -54 LINE",
"295 -50 OFFCURVE",
"271 -48 OFFCURVE",
"246 -48 CURVE SMOOTH",
"149 -48 OFFCURVE",
"68 -67 OFFCURVE",
"68 -126 CURVE SMOOTH",
"68 -154 OFFCURVE",
"90 -174 OFFCURVE",
"149 -174 CURVE SMOOTH"
);
},
{
closed = 1;
nodes = (
"995 -241 OFFCURVE",
"1042 -220 OFFCURVE",
"1084 -184 CURVE",
"1089 -180 OFFCURVE",
"1082 -172 OFFCURVE",
"1077 -175 CURVE",
"1053 -192 OFFCURVE",
"1032 -201 OFFCURVE",
"980 -201 CURVE SMOOTH",
"750 -201 OFFCURVE",
"510 -81 OFFCURVE",
"318 -54 CURVE",
"296 -95 LINE",
"499 -129 OFFCURVE",
"744 -241 OFFCURVE",
"929 -241 CURVE SMOOTH"
);
}
);
width = 653;
},
{
anchors = (
{
name = bottom;
position = "{303, 0}";
},
{
name = top;
position = "{413, 625}";
}
);
layerId = "A1717557-2B81-457C-987E-D55DA76CA63F";
paths = (
{
closed = 1;
nodes = (
"352 -179 OFFCURVE",
"608 37 OFFCURVE",
"650 281 CURVE SMOOTH",
"683 467 OFFCURVE",
"591 636 OFFCURVE",
"399 636 CURVE SMOOTH",
"250 636 OFFCURVE",
"104 536 OFFCURVE",
"68 356 CURVE SMOOTH",
"30 168 OFFCURVE",
"130 39 OFFCURVE",
"299 39 CURVE SMOOTH",
"331 39 OFFCURVE",
"370 46 OFFCURVE",
"402 61 CURVE SMOOTH",
"407 63 OFFCURVE",
"400 78 OFFCURVE",
"395 76 CURVE SMOOTH",
"378 68 OFFCURVE",
"347 63 OFFCURVE",
"327 63 CURVE SMOOTH",
"201 63 OFFCURVE",
"137 218 OFFCURVE",
"167 389 CURVE SMOOTH",
"195 551 OFFCURVE",
"273 609 OFFCURVE",
"356 609 CURVE SMOOTH",
"502 609 OFFCURVE",
"575 428 OFFCURVE",
"550 256 CURVE SMOOTH",
"516 30 OFFCURVE",
"317 -159 OFFCURVE",
"164 -159 CURVE SMOOTH",
"120 -159 OFFCURVE",
"102 -145 OFFCURVE",
"102 -127 CURVE SMOOTH",
"102 -103 OFFCURVE",
"138 -97 OFFCURVE",
"171 -97 CURVE SMOOTH",
"205 -97 OFFCURVE",
"239 -101 OFFCURVE",
"274 -106 CURVE",
"354 -54 LINE",
"331 -50 OFFCURVE",
"308 -48 OFFCURVE",
"244 -48 CURVE SMOOTH",
"170 -48 OFFCURVE",
"76 -68 OFFCURVE",
"76 -127 CURVE SMOOTH",
"76 -158 OFFCURVE",
"99 -179 OFFCURVE",
"161 -179 CURVE SMOOTH"
);
},
{
closed = 1;
nodes = (
"994 -253 OFFCURVE",
"1054 -223 OFFCURVE",
"1109 -172 CURVE",
"1113 -168 OFFCURVE",
"1106 -160 OFFCURVE",
"1102 -164 CURVE",
"1075 -181 OFFCURVE",
"1057 -189 OFFCURVE",
"999 -189 CURVE SMOOTH",
"784 -189 OFFCURVE",
"538 -78 OFFCURVE",
"354 -54 CURVE",
"274 -106 LINE",
"475 -140 OFFCURVE",
"724 -253 OFFCURVE",
"903 -253 CURVE SMOOTH"
);
}
);
width = 674;
}
);
leftKerningGroup = O;
leftMetricsKey = O;
rightKerningGroup = O;
},
{
glyphname = Q.cv04;
layers = (
{
anchors = (
{
name = bottom;
position = "{291, 0}";
},
{
name = top;
position = "{401, 625}";
}
);
components = (
{
name = O;
}
);
layerId = "2373B5BC-5F65-41C1-A640-5B37284EFBFD";
paths = (
{
closed = 1;
nodes = (
"979 -264 OFFCURVE",
"1026 -243 OFFCURVE",
"1068 -207 CURVE SMOOTH",
"1073 -204 OFFCURVE",
"1065 -195 OFFCURVE",
"1061 -199 CURVE SMOOTH",
"1036 -215 OFFCURVE",
"1015 -225 OFFCURVE",
"964 -225 CURVE SMOOTH",
"720 -225 OFFCURVE",
"496 -71 OFFCURVE",
"320 -71 CURVE SMOOTH",
"240 -71 OFFCURVE",
"165 -104 OFFCURVE",
"119 -142 CURVE SMOOTH",
"116 -144 OFFCURVE",
"122 -154 OFFCURVE",
"125 -152 CURVE SMOOTH",
"166 -118 OFFCURVE",
"239 -109 OFFCURVE",
"280 -109 CURVE SMOOTH",
"444 -109 OFFCURVE",
"717 -264 OFFCURVE",
"912 -264 CURVE SMOOTH"
);
}
);
width = 650;
},
{
anchors = (
{
name = bottom;
position = "{294, 0}";
},
{
name = top;
position = "{404, 625}";
}
);
components = (
{
name = O;
}
);
layerId = "A1717557-2B81-457C-987E-D55DA76CA63F";
paths = (
{
closed = 1;
nodes = (
"935 -276 OFFCURVE",
"1005 -249 OFFCURVE",
"1065 -202 CURVE SMOOTH",
"1071 -198 OFFCURVE",
"1062 -187 OFFCURVE",
"1056 -192 CURVE SMOOTH",
"1021 -216 OFFCURVE",
"996 -225 OFFCURVE",
"947 -225 CURVE SMOOTH",
"735 -225 OFFCURVE",
"490 -71 OFFCURVE",
"320 -71 CURVE SMOOTH",
"240 -71 OFFCURVE",
"165 -104 OFFCURVE",
"119 -142 CURVE SMOOTH",
"116 -144 OFFCURVE",
"122 -154 OFFCURVE",
"125 -152 CURVE SMOOTH",
"153 -132 OFFCURVE",
"180 -123 OFFCURVE",
"211 -123 CURVE SMOOTH",
"378 -123 OFFCURVE",
"642 -276 OFFCURVE",
"848 -276 CURVE SMOOTH"
);
}
);
width = 655;
}
);
leftKerningGroup = O;
rightKerningGroup = O;
},
{
glyphname = Q.long;
layers = (
{
anchors = (
{
name = bottom;
position = "{291, 0}";
},
{
name = top;
position = "{401, 625}";
}
);
components = (
{
name = O;
}
);
layerId = "2373B5BC-5F65-41C1-A640-5B37284EFBFD";
paths = (
{
closed = 1;
nodes = (
"982 -241 OFFCURVE",
"1029 -220 OFFCURVE",
"1071 -184 CURVE",
"1076 -180 OFFCURVE",
"1069 -172 OFFCURVE",
"1064 -175 CURVE",
"1040 -192 OFFCURVE",
"1019 -201 OFFCURVE",
"967 -201 CURVE SMOOTH",
"724 -201 OFFCURVE",
"501 -71 OFFCURVE",
"324 -71 CURVE SMOOTH",
"295 -71 OFFCURVE",
"271 -76 OFFCURVE",
"250 -85 CURVE",
"228 -104 LINE",
"468 51 LINE",
"460 57 LINE",
"157 -131 LINE SMOOTH",
"152 -133 OFFCURVE",
"157 -144 OFFCURVE",
"163 -140 CURVE SMOOTH",
"202 -116 OFFCURVE",
"249 -109 OFFCURVE",
"283 -109 CURVE SMOOTH",
"448 -109 OFFCURVE",
"720 -241 OFFCURVE",
"916 -241 CURVE SMOOTH"
);
}
);
width = 650;
},
{
anchors = (
{
name = bottom;
position = "{294, 0}";
},
{
name = top;
position = "{404, 625}";
}
);
components = (
{
name = O;
}
);
layerId = "A1717557-2B81-457C-987E-D55DA76CA63F";
paths = (
{
closed = 1;
nodes = (
"977 -264 OFFCURVE",
"1030 -235 OFFCURVE",
"1078 -184 CURVE",
"1083 -180 OFFCURVE",
"1076 -172 OFFCURVE",
"1071 -175 CURVE",
"1047 -192 OFFCURVE",
"1026 -201 OFFCURVE",
"974 -201 CURVE SMOOTH",
"731 -201 OFFCURVE",
"508 -71 OFFCURVE",
"331 -71 CURVE SMOOTH",
"302 -71 OFFCURVE",
"278 -76 OFFCURVE",
"257 -85 CURVE",
"235 -104 LINE",
"475 51 LINE",
"463 63 LINE",
"160 -125 LINE SMOOTH",
"156 -127 OFFCURVE",
"164 -144 OFFCURVE",
"170 -140 CURVE SMOOTH",
"192 -133 OFFCURVE",
"218 -132 OFFCURVE",
"236 -132 CURVE SMOOTH",
"409 -132 OFFCURVE",
"695 -264 OFFCURVE",
"899 -264 CURVE SMOOTH"
);
}
);
width = 655;
}
);
leftKerningGroup = O;
leftMetricsKey = O;
rightKerningGroup = O;
},
{
glyphname = R.short;
layers = (
{
anchors = (
{
name = bottom;
position = "{280, 0}";
},
{
name = top;
position = "{306, 625}";
}
);
layerId = "2373B5BC-5F65-41C1-A640-5B37284EFBFD";
leftMetricsKey = "=B";
paths = (
{
closed = 1;
nodes = (
"42 0 OFFCURVE",
"80 2 OFFCURVE",
"119 2 CURVE SMOOTH",
"160 2 OFFCURVE",
"194 0 OFFCURVE",
"222 0 CURVE SMOOTH",
"227 0 OFFCURVE",
"227 12 OFFCURVE",
"222 12 CURVE SMOOTH",
"153 12 OFFCURVE",
"146 23 OFFCURVE",
"157 81 CURVE SMOOTH",
"199 320 LINE",
"211 319 OFFCURVE",
"226 318 OFFCURVE",
"237 318 CURVE SMOOTH",
"340 318 OFFCURVE",
"441 404 OFFCURVE",
"458 503 CURVE SMOOTH",
"473 580 OFFCURVE",
"430 628 OFFCURVE",
"335 628 CURVE SMOOTH",
"306 628 OFFCURVE",
"258 622 OFFCURVE",
"228 622 CURVE SMOOTH",
"189 622 OFFCURVE",
"153 625 OFFCURVE",
"125 625 CURVE SMOOTH",
"120 625 OFFCURVE",
"120 613 OFFCURVE",
"125 613 CURVE SMOOTH",
"194 613 OFFCURVE",
"201 601 OFFCURVE",
"191 544 CURVE SMOOTH",
"110 81 LINE SMOOTH",
"99 23 OFFCURVE",
"82 12 OFFCURVE",
"14 12 CURVE SMOOTH",
"9 12 OFFCURVE",
"9 0 OFFCURVE",
"14 0 CURVE SMOOTH"
);
},
{
closed = 1;
nodes = (
"414 0 OFFCURVE",
"458 0 OFFCURVE",
"509 0 CURVE SMOOTH",
"513 0 OFFCURVE",
"513 12 OFFCURVE",
"509 12 CURVE SMOOTH",
"437 12 OFFCURVE",
"408 70 OFFCURVE",
"340 350 CURVE",
"296 337 LINE",
"333 131 OFFCURVE",
"384 0 OFFCURVE",
"399 0 CURVE SMOOTH"
);
},
{
closed = 1;
nodes = (
"241 340 OFFCURVE",
"220 342 OFFCURVE",
"204 344 CURVE",
"239 542 LINE SMOOTH",
"251 613 OFFCURVE",
"267 615 OFFCURVE",
"311 615 CURVE SMOOTH",
"378 615 OFFCURVE",
"421 577 OFFCURVE",
"402 469 CURVE SMOOTH",
"386 378 OFFCURVE",
"344 340 OFFCURVE",
"256 340 CURVE SMOOTH"
);
}
);
width = 554;
},
{
anchors = (
{
name = bottom;
position = "{284, 0}";
},
{
name = top;
position = "{323, 625}";
}
);
layerId = "A1717557-2B81-457C-987E-D55DA76CA63F";
leftMetricsKey = "=B";
paths = (
{
closed = 1;
nodes = (
"47 0 OFFCURVE",
"84 2 OFFCURVE",
"124 2 CURVE SMOOTH",
"165 2 OFFCURVE",
"199 0 OFFCURVE",
"227 0 CURVE SMOOTH",
"232 0 OFFCURVE",
"232 12 OFFCURVE",
"227 12 CURVE SMOOTH",
"185 12 OFFCURVE",
"177 23 OFFCURVE",
"187 81 CURVE SMOOTH",
"229 320 LINE",
"240 319 OFFCURVE",
"255 318 OFFCURVE",
"265 318 CURVE SMOOTH",
"374 318 OFFCURVE",
"480 404 OFFCURVE",
"498 503 CURVE SMOOTH",
"513 581 OFFCURVE",
"462 628 OFFCURVE",
"339 628 CURVE SMOOTH",
"311 628 OFFCURVE",
"263 622 OFFCURVE",
"233 622 CURVE SMOOTH",
"194 622 OFFCURVE",
"158 625 OFFCURVE",
"130 625 CURVE SMOOTH",
"125 625 OFFCURVE",
"125 613 OFFCURVE",
"130 613 CURVE SMOOTH",
"172 613 OFFCURVE",
"180 601 OFFCURVE",
"170 544 CURVE SMOOTH",
"89 81 LINE SMOOTH",
"78 23 OFFCURVE",
"68 12 OFFCURVE",
"19 12 CURVE SMOOTH",
"14 12 OFFCURVE",
"14 0 OFFCURVE",
"19 0 CURVE SMOOTH"
);
},
{
closed = 1;
nodes = (
"388 0 OFFCURVE",
"447 0 OFFCURVE",
"513 0 CURVE SMOOTH",
"518 0 OFFCURVE",
"518 12 OFFCURVE",
"513 12 CURVE SMOOTH",
"457 12 OFFCURVE",
"429 71 OFFCURVE",
"375 360 CURVE",
"294 333 LINE",
"319 127 OFFCURVE",
"358 0 OFFCURVE",
"368 0 CURVE SMOOTH"
);
},
{
closed = 1;
nodes = (
"270 346 OFFCURVE",
"249 347 OFFCURVE",
"234 350 CURVE",
"269 542 LINE SMOOTH",
"280 601 OFFCURVE",
"288 608 OFFCURVE",
"327 608 CURVE SMOOTH",
"371 608 OFFCURVE",
"405 572 OFFCURVE",
"391 469 CURVE SMOOTH",
"379 382 OFFCURVE",
"349 346 OFFCURVE",
"284 346 CURVE SMOOTH"
);
}
);
width = 547;
}
);
leftMetricsKey = H;
rightKerningGroup = R.short;
},
{
glyphname = U.ss01;
layers = (
{
anchors = (
{
name = bottom;
position = "{312, 0}";
},
{
name = ogonek;
position = "{523, 12}";
},
{
name = top;
position = "{415, 625}";
},
{
name = topright;
position = "{745, 625}";
}
);
layerId = "2373B5BC-5F65-41C1-A640-5B37284EFBFD";
paths = (
{
closed = 1;
nodes = (
"364 -12 OFFCURVE",
"437 28 OFFCURVE",
"537 125 CURVE",
"530 133 LINE",
"436 43 OFFCURVE",
"373 13 OFFCURVE",
"304 13 CURVE SMOOTH",
"195 13 OFFCURVE",
"140 83 OFFCURVE",
"165 221 CURVE SMOOTH",
"221 542 LINE SMOOTH",
"232 599 OFFCURVE",
"244 613 OFFCURVE",
"309 613 CURVE SMOOTH",
"312 613 OFFCURVE",
"312 625 OFFCURVE",
"309 625 CURVE SMOOTH",
"283 625 OFFCURVE",
"246 622 OFFCURVE",
"208 622 CURVE SMOOTH",
"171 622 OFFCURVE",
"137 625 OFFCURVE",
"111 625 CURVE SMOOTH",
"108 625 OFFCURVE",
"108 613 OFFCURVE",
"111 613 CURVE SMOOTH",
"175 613 OFFCURVE",
"185 601 OFFCURVE",
"174 544 CURVE SMOOTH",
"111 186 LINE SMOOTH",
"90 64 OFFCURVE",
"161 -12 OFFCURVE",
"281 -12 CURVE SMOOTH"
);
},
{
closed = 1;
nodes = (
"516 0 OFFCURVE",
"529 1 OFFCURVE",
"545 1 CURVE SMOOTH",
"573 1 OFFCURVE",
"598 0 OFFCURVE",
"623 0 CURVE SMOOTH",
"628 0 OFFCURVE",
"628 12 OFFCURVE",
"623 12 CURVE SMOOTH",
"547 12 OFFCURVE",
"537 23 OFFCURVE",
"547 81 CURVE SMOOTH",
"629 544 LINE SMOOTH",
"640 601 OFFCURVE",
"654 613 OFFCURVE",
"717 613 CURVE SMOOTH",
"720 613 OFFCURVE",
"720 625 OFFCURVE",
"717 625 CURVE SMOOTH",
"691 625 OFFCURVE",
"654 622 OFFCURVE",
"618 622 CURVE SMOOTH",
"580 622 OFFCURVE",
"545 625 OFFCURVE",
"519 625 CURVE SMOOTH",
"516 625 OFFCURVE",
"516 613 OFFCURVE",
"519 613 CURVE SMOOTH",
"585 613 OFFCURVE",
"592 599 OFFCURVE",
"581 542 CURVE SMOOTH",
"490 19 LINE SMOOTH",
"488 2 OFFCURVE",
"489 0 OFFCURVE",
"502 0 CURVE SMOOTH"
);
}
);
width = 692;
},
{
anchors = (
{
name = bottom;
position = "{324, 0}";
},
{
name = ogonek;
position = "{505, 12}";
},
{
name = top;
position = "{421, 625}";
},
{
name = topright;
position = "{768, 625}";
}
);
layerId = "A1717557-2B81-457C-987E-D55DA76CA63F";
paths = (
{
closed = 1;
nodes = (
"372 -12 OFFCURVE",
"446 26 OFFCURVE",
"545 123 CURVE",
"532 135 LINE",
"443 53 OFFCURVE",
"386 25 OFFCURVE",
"323 25 CURVE SMOOTH",
"221 25 OFFCURVE",
"173 97 OFFCURVE",
"195 221 CURVE SMOOTH",
"253 542 LINE SMOOTH",
"263 599 OFFCURVE",
"273 613 OFFCURVE",
"326 613 CURVE SMOOTH",
"330 613 OFFCURVE",
"330 625 OFFCURVE",
"326 625 CURVE SMOOTH",
"297 625 OFFCURVE",
"256 622 OFFCURVE",
"214 622 CURVE SMOOTH",
"172 622 OFFCURVE",
"135 625 OFFCURVE",
"105 625 CURVE SMOOTH",
"102 625 OFFCURVE",
"102 613 OFFCURVE",
"105 613 CURVE SMOOTH",
"156 613 OFFCURVE",
"165 601 OFFCURVE",
"154 544 CURVE SMOOTH",
"91 186 LINE SMOOTH",
"70 64 OFFCURVE",
"152 -12 OFFCURVE",
"281 -12 CURVE SMOOTH"
);
},
{
closed = 1;
nodes = (
"504 0 OFFCURVE",
"525 1 OFFCURVE",
"551 1 CURVE SMOOTH",
"584 1 OFFCURVE",
"612 0 OFFCURVE",
"641 0 CURVE SMOOTH",
"646 0 OFFCURVE",
"646 12 OFFCURVE",
"641 12 CURVE SMOOTH",
"579 12 OFFCURVE",
"568 23 OFFCURVE",
"579 81 CURVE SMOOTH",
"661 544 LINE SMOOTH",
"671 601 OFFCURVE",
"682 613 OFFCURVE",
"735 613 CURVE SMOOTH",
"738 613 OFFCURVE",
"738 625 OFFCURVE",
"735 625 CURVE SMOOTH",
"705 625 OFFCURVE",
"664 622 OFFCURVE",
"623 622 CURVE SMOOTH",
"581 622 OFFCURVE",
"543 625 OFFCURVE",
"513 625 CURVE SMOOTH",
"510 625 OFFCURVE",
"510 613 OFFCURVE",
"513 613 CURVE SMOOTH",
"564 613 OFFCURVE",
"572 599 OFFCURVE",
"561 542 CURVE SMOOTH",
"470 19 LINE SMOOTH",
"468 2 OFFCURVE",
"469 0 OFFCURVE",
"482 0 CURVE SMOOTH"
);
}
);
width = 716;
}
);
leftKerningGroup = U;
},
{
color = 9;
glyphname = Uhorn.ss01;
layers = (
{
anchors = (
{
name = bottom;
position = "{337, 0}";
},
{
name = top;
position = "{422, 625}";
}
);
layerId = "2373B5BC-5F65-41C1-A640-5B37284EFBFD";
paths = (
{
closed = 1;
nodes = (
"364 -12 OFFCURVE",
"437 28 OFFCURVE",
"537 125 CURVE",
"530 133 LINE",
"436 43 OFFCURVE",
"373 13 OFFCURVE",
"304 13 CURVE SMOOTH",
"195 13 OFFCURVE",
"140 83 OFFCURVE",
"165 221 CURVE SMOOTH",
"221 542 LINE SMOOTH",
"232 599 OFFCURVE",
"244 613 OFFCURVE",
"309 613 CURVE SMOOTH",
"312 613 OFFCURVE",
"312 625 OFFCURVE",
"309 625 CURVE SMOOTH",
"283 625 OFFCURVE",
"246 622 OFFCURVE",
"208 622 CURVE SMOOTH",
"171 622 OFFCURVE",
"137 625 OFFCURVE",
"111 625 CURVE SMOOTH",
"108 625 OFFCURVE",
"108 613 OFFCURVE",
"111 613 CURVE SMOOTH",
"175 613 OFFCURVE",
"185 601 OFFCURVE",
"174 544 CURVE SMOOTH",
"111 186 LINE SMOOTH",
"90 64 OFFCURVE",
"161 -12 OFFCURVE",
"281 -12 CURVE SMOOTH"
);
},
{
closed = 1;
nodes = (
"516 0 OFFCURVE",
"529 1 OFFCURVE",
"545 1 CURVE SMOOTH",
"573 1 OFFCURVE",
"598 0 OFFCURVE",
"623 0 CURVE SMOOTH",
"628 0 OFFCURVE",
"628 12 OFFCURVE",
"623 12 CURVE SMOOTH",
"547 12 OFFCURVE",
"537 23 OFFCURVE",
"547 81 CURVE SMOOTH",
"629 544 LINE SMOOTH",
"637 588 OFFCURVE",
"641 604 OFFCURVE",
"674 613 CURVE SMOOTH",
"699 622 OFFCURVE",
"781 639 OFFCURVE",
"793 708 CURVE SMOOTH",
"796 730 OFFCURVE",
"787 753 OFFCURVE",
"765 753 CURVE SMOOTH",
"749 753 OFFCURVE",
"730 746 OFFCURVE",
"727 724 CURVE SMOOTH",
"725 703 OFFCURVE",
"739 691 OFFCURVE",
"736 674 CURVE SMOOTH",
"730 642 OFFCURVE",
"685 622 OFFCURVE",
"619 622 CURVE SMOOTH",
"578 622 OFFCURVE",
"542 625 OFFCURVE",
"513 625 CURVE SMOOTH",
"509 625 OFFCURVE",
"510 613 OFFCURVE",
"513 613 CURVE SMOOTH",
"582 613 OFFCURVE",
"592 599 OFFCURVE",
"581 542 CURVE SMOOTH",
"490 19 LINE SMOOTH",
"488 2 OFFCURVE",
"489 0 OFFCURVE",
"502 0 CURVE SMOOTH"
);
}
);
width = 692;
},
{
anchors = (
{
name = bottom;
position = "{336, 0}";
},
{
name = top;
position = "{434, 625}";
}
);
layerId = "A1717557-2B81-457C-987E-D55DA76CA63F";
paths = (
{
closed = 1;
nodes = (
"372 -12 OFFCURVE",
"446 26 OFFCURVE",
"545 123 CURVE",
"532 135 LINE",
"443 53 OFFCURVE",
"386 25 OFFCURVE",
"323 25 CURVE SMOOTH",
"221 25 OFFCURVE",
"173 97 OFFCURVE",
"195 221 CURVE SMOOTH",
"253 542 LINE SMOOTH",
"263 599 OFFCURVE",
"273 613 OFFCURVE",
"326 613 CURVE SMOOTH",
"330 613 OFFCURVE",
"330 625 OFFCURVE",
"326 625 CURVE SMOOTH",
"297 625 OFFCURVE",
"256 622 OFFCURVE",
"214 622 CURVE SMOOTH",
"172 622 OFFCURVE",
"135 625 OFFCURVE",
"105 625 CURVE SMOOTH",
"102 625 OFFCURVE",
"102 613 OFFCURVE",
"105 613 CURVE SMOOTH",
"156 613 OFFCURVE",
"165 601 OFFCURVE",
"154 544 CURVE SMOOTH",
"91 186 LINE SMOOTH",
"70 64 OFFCURVE",
"152 -12 OFFCURVE",
"281 -12 CURVE SMOOTH"
);
},
{
closed = 1;
nodes = (
"504 0 OFFCURVE",
"525 1 OFFCURVE",
"551 1 CURVE SMOOTH",
"584 1 OFFCURVE",
"612 0 OFFCURVE",
"641 0 CURVE SMOOTH",
"646 0 OFFCURVE",
"646 12 OFFCURVE",
"641 12 CURVE SMOOTH",
"579 12 OFFCURVE",
"568 23 OFFCURVE",
"579 81 CURVE SMOOTH",
"661 544 LINE SMOOTH",
"669 588 OFFCURVE",
"676 599 OFFCURVE",
"706 609 CURVE SMOOTH",
"759 628 OFFCURVE",
"821 647 OFFCURVE",
"832 706 CURVE SMOOTH",
"836 736 OFFCURVE",
"823 766 OFFCURVE",
"794 766 CURVE SMOOTH",
"771 766 OFFCURVE",
"749 756 OFFCURVE",
"743 722 CURVE SMOOTH",
"737 690 OFFCURVE",
"757 680 OFFCURVE",
"753 660 CURVE SMOOTH",
"749 632 OFFCURVE",
"709 622 OFFCURVE",
"625 622 CURVE SMOOTH",
"584 622 OFFCURVE",
"543 625 OFFCURVE",
"511 625 CURVE SMOOTH",
"508 625 OFFCURVE",
"506 613 OFFCURVE",
"510 613 CURVE SMOOTH",
"565 613 OFFCURVE",
"572 599 OFFCURVE",
"561 542 CURVE SMOOTH",
"470 19 LINE SMOOTH",
"467 2 OFFCURVE",
"469 0 OFFCURVE",
"482 0 CURVE SMOOTH"
);
}
);
width = 716;
}
);
leftKerningGroup = U;
},
{
glyphname = Y.ss01;
layers = (
{
anchors = (
{
name = bottom;
position = "{250, 0}";
},
{
name = top;
position = "{347, 625}";
},
{
name = topleft;
position = "{99, 625}";
}
);
layerId = "2373B5BC-5F65-41C1-A640-5B37284EFBFD";
paths = (
{
closed = 1;
nodes = (
"464 636 OFFCURVE",
"347 450 OFFCURVE",
"287 201 CURVE",
"295 195 LINE",
"322 451 OFFCURVE",
"285 636 OFFCURVE",
"167 636 CURVE SMOOTH",
"135 636 OFFCURVE",
"96 622 OFFCURVE",
"50 593 CURVE",
"46 589 OFFCURVE",
"55 580 OFFCURVE",
"58 584 CURVE",
"77 594 OFFCURVE",
"90 601 OFFCURVE",
"124 601 CURVE SMOOTH",
"221 601 OFFCURVE",
"292 478 OFFCURVE",
"230 81 CURVE SMOOTH",
"221 23 OFFCURVE",
"202 12 OFFCURVE",
"130 12 CURVE SMOOTH",
"125 12 OFFCURVE",
"125 0 OFFCURVE",
"130 0 CURVE SMOOTH",
"160 0 OFFCURVE",
"199 2 OFFCURVE",
"241 2 CURVE SMOOTH",
"287 2 OFFCURVE",
"323 0 OFFCURVE",
"353 0 CURVE SMOOTH",
"358 0 OFFCURVE",
"358 12 OFFCURVE",
"353 12 CURVE SMOOTH",
"276 12 OFFCURVE",
"269 23 OFFCURVE",
"278 81 CURVE SMOOTH",
"309 269 OFFCURVE",
"411 588 OFFCURVE",
"550 588 CURVE SMOOTH",
"568 588 OFFCURVE",
"574 582 OFFCURVE",
"585 582 CURVE SMOOTH",
"595 582 OFFCURVE",
"606 589 OFFCURVE",
"608 602 CURVE SMOOTH",
"612 621 OFFCURVE",
"591 636 OFFCURVE",
"563 636 CURVE SMOOTH"
);
}
);
width = 545;
},
{
anchors = (
{
name = bottom;
position = "{262, 0}";
},
{
name = top;
position = "{378, 625}";
},
{
name = topleft;
position = "{99, 625}";
}
);
layerId = "A1717557-2B81-457C-987E-D55DA76CA63F";
paths = (
{
closed = 1;
nodes = (
"480 636 OFFCURVE",
"379 474 OFFCURVE",
"324 254 CURVE",
"338 251 LINE",
"358 478 OFFCURVE",
"312 636 OFFCURVE",
"172 636 CURVE SMOOTH",
"125 636 OFFCURVE",
"88 619 OFFCURVE",
"36 581 CURVE SMOOTH",
"32 578 OFFCURVE",
"41 568 OFFCURVE",
"44 572 CURVE",
"63 586 OFFCURVE",
"83 592 OFFCURVE",
"108 592 CURVE SMOOTH",
"240 592 OFFCURVE",
"270 425 OFFCURVE",
"216 81 CURVE SMOOTH",
"207 23 OFFCURVE",
"192 12 OFFCURVE",
"130 12 CURVE SMOOTH",
"125 12 OFFCURVE",
"125 0 OFFCURVE",
"130 0 CURVE SMOOTH",
"164 0 OFFCURVE",
"206 2 OFFCURVE",
"253 2 CURVE SMOOTH",
"308 2 OFFCURVE",
"351 0 OFFCURVE",
"388 0 CURVE SMOOTH",
"393 0 OFFCURVE",
"393 12 OFFCURVE",
"388 12 CURVE SMOOTH",
"312 12 OFFCURVE",
"309 28 OFFCURVE",
"317 87 CURVE SMOOTH",
"343 275 OFFCURVE",
"433 556 OFFCURVE",
"513 556 CURVE SMOOTH",
"538 556 OFFCURVE",
"545 524 OFFCURVE",
"586 524 CURVE SMOOTH",
"616 524 OFFCURVE",
"637 540 OFFCURVE",
"643 574 CURVE SMOOTH",
"650 615 OFFCURVE",
"609 636 OFFCURVE",
"575 636 CURVE SMOOTH"
);
}
);
width = 568;
}
);
leftKerningGroup = Y;
rightKerningGroup = Y;
},
{
glyphname = Q.long.ss01;
layers = (
{
anchors = (
{
name = bottom;
position = "{292, 0}";
},
{
name = top;
position = "{402, 625}";
}
);
layerId = "2373B5BC-5F65-41C1-A640-5B37284EFBFD";
paths = (
{
closed = 1;
nodes = (
"330 -174 OFFCURVE",
"572 35 OFFCURVE",
"618 281 CURVE SMOOTH",
"650 458 OFFCURVE",
"566 636 OFFCURVE",
"384 636 CURVE SMOOTH",
"243 636 OFFCURVE",
"103 524 OFFCURVE",
"75 356 CURVE SMOOTH",
"47 184 OFFCURVE",
"143 39 OFFCURVE",
"287 39 CURVE SMOOTH",
"318 39 OFFCURVE",
"357 46 OFFCURVE",
"389 61 CURVE SMOOTH",
"394 63 OFFCURVE",
"389 73 OFFCURVE",
"385 70 CURVE SMOOTH",
"367 62 OFFCURVE",
"337 57 OFFCURVE",
"317 57 CURVE SMOOTH",
"186 57 OFFCURVE",
"95 208 OFFCURVE",
"123 389 CURVE SMOOTH",
"146 540 OFFCURVE",
"241 612 OFFCURVE",
"342 612 CURVE SMOOTH",
"510 612 OFFCURVE",
"600 435 OFFCURVE",
"568 256 CURVE SMOOTH",
"529 29 OFFCURVE",
"315 -159 OFFCURVE",
"153 -159 CURVE SMOOTH",
"108 -159 OFFCURVE",
"89 -145 OFFCURVE",
"89 -125 CURVE SMOOTH",
"89 -94 OFFCURVE",
"140 -85 OFFCURVE",
"193 -85 CURVE SMOOTH",
"227 -85 OFFCURVE",
"261 -89 OFFCURVE",
"296 -95 CURVE",
"318 -54 LINE",
"295 -50 OFFCURVE",
"271 -48 OFFCURVE",
"246 -48 CURVE SMOOTH",
"149 -48 OFFCURVE",
"68 -67 OFFCURVE",
"68 -126 CURVE SMOOTH",
"68 -154 OFFCURVE",
"90 -174 OFFCURVE",
"149 -174 CURVE SMOOTH"
);
},
{
closed = 1;
nodes = (
"995 -241 OFFCURVE",
"1042 -220 OFFCURVE",
"1084 -184 CURVE",
"1089 -180 OFFCURVE",
"1082 -172 OFFCURVE",
"1077 -175 CURVE",
"1053 -192 OFFCURVE",
"1032 -201 OFFCURVE",
"980 -201 CURVE SMOOTH",
"750 -201 OFFCURVE",
"510 -81 OFFCURVE",
"318 -54 CURVE",
"296 -95 LINE",
"499 -129 OFFCURVE",
"744 -241 OFFCURVE",
"929 -241 CURVE SMOOTH"
);
}
);
width = 653;
},
{
anchors = (
{
name = bottom;
position = "{303, 0}";
},
{
name = top;
position = "{413, 625}";
}
);
layerId = "A1717557-2B81-457C-987E-D55DA76CA63F";
paths = (
{
closed = 1;
nodes = (
"352 -179 OFFCURVE",
"608 37 OFFCURVE",
"650 281 CURVE SMOOTH",
"683 467 OFFCURVE",
"591 636 OFFCURVE",
"399 636 CURVE SMOOTH",
"250 636 OFFCURVE",
"104 536 OFFCURVE",
"68 356 CURVE SMOOTH",
"30 168 OFFCURVE",
"130 39 OFFCURVE",
"299 39 CURVE SMOOTH",
"331 39 OFFCURVE",
"370 46 OFFCURVE",
"402 61 CURVE SMOOTH",
"407 63 OFFCURVE",
"400 78 OFFCURVE",
"395 76 CURVE SMOOTH",
"378 68 OFFCURVE",
"347 63 OFFCURVE",
"327 63 CURVE SMOOTH",
"201 63 OFFCURVE",
"137 218 OFFCURVE",
"167 389 CURVE SMOOTH",
"195 551 OFFCURVE",
"273 609 OFFCURVE",
"356 609 CURVE SMOOTH",
"502 609 OFFCURVE",
"575 428 OFFCURVE",
"550 256 CURVE SMOOTH",
"516 30 OFFCURVE",
"317 -159 OFFCURVE",
"164 -159 CURVE SMOOTH",
"120 -159 OFFCURVE",
"102 -145 OFFCURVE",
"102 -127 CURVE SMOOTH",
"102 -103 OFFCURVE",
"138 -97 OFFCURVE",
"171 -97 CURVE SMOOTH",
"205 -97 OFFCURVE",
"239 -101 OFFCURVE",
"274 -106 CURVE",
"354 -54 LINE",
"331 -50 OFFCURVE",
"308 -48 OFFCURVE",
"244 -48 CURVE SMOOTH",
"170 -48 OFFCURVE",
"76 -68 OFFCURVE",
"76 -127 CURVE SMOOTH",
"76 -158 OFFCURVE",
"99 -179 OFFCURVE",
"161 -179 CURVE SMOOTH"
);
},
{
closed = 1;
nodes = (
"994 -253 OFFCURVE",
"1054 -223 OFFCURVE",
"1109 -172 CURVE",
"1113 -168 OFFCURVE",
"1106 -160 OFFCURVE",
"1102 -164 CURVE",
"1075 -181 OFFCURVE",
"1057 -189 OFFCURVE",
"999 -189 CURVE SMOOTH",
"784 -189 OFFCURVE",
"538 -78 OFFCURVE",
"354 -54 CURVE",
"274 -106 LINE",
"475 -140 OFFCURVE",
"724 -253 OFFCURVE",
"903 -253 CURVE SMOOTH"
);
}
);
width = 674;
}
);
leftKerningGroup = O;
leftMetricsKey = O;
rightKerningGroup = O;
},
{
glyphname = A.ss02;
layers = (
{
anchors = (
{
name = bottom;
position = "{271, 0}";
},
{
name = ogonek;
position = "{415, 12}";
},
{
name = top;
position = "{388, 625}";
}
);
layerId = "2373B5BC-5F65-41C1-A640-5B37284EFBFD";
paths = (
{
closed = 1;
nodes = (
"0 0 OFFCURVE",
"19 4 OFFCURVE",
"58 4 CURVE SMOOTH",
"92 4 OFFCURVE",
"131 0 OFFCURVE",
"157 0 CURVE SMOOTH",
"163 0 OFFCURVE",
"163 12 OFFCURVE",
"158 12 CURVE SMOOTH",
"98 12 OFFCURVE",
"70 26 OFFCURVE",
"129 133 CURVE SMOOTH",
"378 587 LINE",
"361 570 LINE",
"434 84 LINE SMOOTH",
"442 28 OFFCURVE",
"432 12 OFFCURVE",
"367 12 CURVE SMOOTH",
"363 12 OFFCURVE",
"363 0 OFFCURVE",
"367 0 CURVE SMOOTH",
"399 0 OFFCURVE",
"425 4 OFFCURVE",
"462 4 CURVE SMOOTH",
"499 4 OFFCURVE",
"530 0 OFFCURVE",
"561 0 CURVE SMOOTH",
"566 0 OFFCURVE",
"566 12 OFFCURVE",
"561 12 CURVE SMOOTH",
"499 12 OFFCURVE",
"491 29 OFFCURVE",
"483 84 CURVE SMOOTH",
"400 633 LINE SMOOTH",
"399 637 OFFCURVE",
"385 640 OFFCURVE",
"382 635 CURVE SMOOTH",
"94 120 LINE SMOOTH",
"44 33 OFFCURVE",
"0 12 OFFCURVE",
"-34 12 CURVE SMOOTH",
"-39 12 OFFCURVE",
"-39 0 OFFCURVE",
"-34 0 CURVE SMOOTH"
);
},
{
closed = 1;
nodes = (
"430 287 LINE",
"428 305 LINE",
"214 305 LINE",
"199 287 LINE"
);
}
);
width = 599;
},
{
anchors = (
{
name = bottom;
position = "{271, 0}";
},
{
name = ogonek;
position = "{415, 12}";
},
{
name = top;
position = "{386, 625}";
}
);
layerId = "A1717557-2B81-457C-987E-D55DA76CA63F";
paths = (
{
closed = 1;
nodes = (
"0 0 OFFCURVE",
"19 4 OFFCURVE",
"58 4 CURVE SMOOTH",
"101 4 OFFCURVE",
"149 0 OFFCURVE",
"180 0 CURVE SMOOTH",
"186 0 OFFCURVE",
"186 12 OFFCURVE",
"181 12 CURVE SMOOTH",
"99 12 OFFCURVE",
"84 46 OFFCURVE",
"130 129 CURVE SMOOTH",
"379 582 LINE",
"323 505 LINE",
"408 84 LINE SMOOTH",
"420 28 OFFCURVE",
"406 12 OFFCURVE",
"356 12 CURVE SMOOTH",
"351 12 OFFCURVE",
"351 0 OFFCURVE",
"356 0 CURVE SMOOTH",
"391 0 OFFCURVE",
"420 4 OFFCURVE",
"462 4 CURVE SMOOTH",
"504 4 OFFCURVE",
"538 0 OFFCURVE",
"573 0 CURVE SMOOTH",
"578 0 OFFCURVE",
"578 12 OFFCURVE",
"573 12 CURVE SMOOTH",
"522 12 OFFCURVE",
"519 29 OFFCURVE",
"509 84 CURVE SMOOTH",
"400 633 LINE SMOOTH",
"399 637 OFFCURVE",
"385 639 OFFCURVE",
"382 634 CURVE SMOOTH",
"103 136 LINE SMOOTH",
"56 51 OFFCURVE",
"0 12 OFFCURVE",
"-34 12 CURVE SMOOTH",
"-39 12 OFFCURVE",
"-39 0 OFFCURVE",
"-34 0 CURVE SMOOTH"
);
},
{
closed = 1;
nodes = (
"407 229 LINE",
"405 257 LINE",
"186 257 LINE",
"171 229 LINE"
);
}
);
width = 605;
}
);
leftKerningGroup = A;
rightKerningGroup = A;
},
{
glyphname = Aogonek.ss02;
layers = (
{
anchors = (
{
name = bottom;
position = "{271, 0}";
},
{
name = ogonek;
position = "{415, 12}";
},
{
name = top;
position = "{389, 625}";
}
);
layerId = "2373B5BC-5F65-41C1-A640-5B37284EFBFD";
paths = (
{
closed = 1;
nodes = (
"418 -275 OFFCURVE",
"442 -265 OFFCURVE",
"473 -242 CURVE SMOOTH",
"476 -239 OFFCURVE",
"471 -232 OFFCURVE",
"468 -234 CURVE SMOOTH",
"456 -241 OFFCURVE",
"443 -248 OFFCURVE",
"416 -248 CURVE SMOOTH",
"345 -248 OFFCURVE",
"317 -194 OFFCURVE",
"329 -131 CURVE SMOOTH",
"343 -54 OFFCURVE",
"408 1 OFFCURVE",
"499 1 CURVE SMOOTH",
"516 1 OFFCURVE",
"527 0 OFFCURVE",
"561 0 CURVE SMOOTH",
"566 0 OFFCURVE",
"566 12 OFFCURVE",
"561 12 CURVE SMOOTH",
"505 12 OFFCURVE",
"491 26 OFFCURVE",
"481 96 CURVE SMOOTH",
"400 633 LINE SMOOTH",
"399 637 OFFCURVE",
"385 640 OFFCURVE",
"382 635 CURVE SMOOTH",
"99 120 LINE SMOOTH",
"50 30 OFFCURVE",
"0 12 OFFCURVE",
"-34 12 CURVE SMOOTH",
"-39 12 OFFCURVE",
"-39 0 OFFCURVE",
"-34 0 CURVE SMOOTH",
"0 0 OFFCURVE",
"19 4 OFFCURVE",
"58 4 CURVE SMOOTH",
"92 4 OFFCURVE",
"131 0 OFFCURVE",
"157 0 CURVE SMOOTH",
"163 0 OFFCURVE",
"163 12 OFFCURVE",
"158 12 CURVE SMOOTH",
"98 12 OFFCURVE",
"76 25 OFFCURVE",
"135 133 CURVE SMOOTH",
"378 587 LINE",
"361 570 LINE",
"430 84 LINE SMOOTH",
"442 1 OFFCURVE",
"311 -37 OFFCURVE",
"290 -165 CURVE SMOOTH",
"278 -234 OFFCURVE",
"310 -275 OFFCURVE",
"384 -275 CURVE SMOOTH"
);
},
{
closed = 1;
nodes = (
"430 287 LINE",
"428 305 LINE",
"214 305 LINE",
"199 287 LINE"
);
}
);
width = 599;
},
{
anchors = (
{
name = bottom;
position = "{271, 0}";
},
{
name = ogonek;
position = "{415, 12}";
},
{
name = top;
position = "{387, 625}";
}
);
layerId = "A1717557-2B81-457C-987E-D55DA76CA63F";
paths = (
{
closed = 1;
nodes = (
"414 -275 OFFCURVE",
"446 -258 OFFCURVE",
"484 -219 CURVE SMOOTH",
"488 -215 OFFCURVE",
"483 -208 OFFCURVE",
"480 -211 CURVE SMOOTH",
"468 -221 OFFCURVE",
"458 -229 OFFCURVE",
"434 -229 CURVE SMOOTH",
"380 -229 OFFCURVE",
"357 -191 OFFCURVE",
"364 -131 CURVE SMOOTH",
"372 -58 OFFCURVE",
"423 1 OFFCURVE",
"478 1 CURVE SMOOTH",
"497 1 OFFCURVE",
"539 0 OFFCURVE",
"573 0 CURVE SMOOTH",
"578 0 OFFCURVE",
"578 12 OFFCURVE",
"573 12 CURVE SMOOTH",
"535 12 OFFCURVE",
"520 26 OFFCURVE",
"509 84 CURVE SMOOTH",
"400 633 LINE SMOOTH",
"399 637 OFFCURVE",
"385 639 OFFCURVE",
"382 634 CURVE SMOOTH",
"103 136 LINE SMOOTH",
"56 51 OFFCURVE",
"0 12 OFFCURVE",
"-34 12 CURVE SMOOTH",
"-39 12 OFFCURVE",
"-39 0 OFFCURVE",
"-34 0 CURVE SMOOTH",
"0 0 OFFCURVE",
"19 4 OFFCURVE",
"58 4 CURVE SMOOTH",
"101 4 OFFCURVE",
"149 0 OFFCURVE",
"180 0 CURVE SMOOTH",
"186 0 OFFCURVE",
"186 12 OFFCURVE",
"181 12 CURVE SMOOTH",
"99 12 OFFCURVE",
"84 46 OFFCURVE",
"130 129 CURVE SMOOTH",
"379 582 LINE",
"323 505 LINE",
"408 84 LINE SMOOTH",
"433 -36 OFFCURVE",
"291 -69 OFFCURVE",
"278 -177 CURVE SMOOTH",
"270 -247 OFFCURVE",
"324 -275 OFFCURVE",
"375 -275 CURVE SMOOTH"
);
},
{
closed = 1;
nodes = (
"407 229 LINE",
"405 257 LINE",
"186 257 LINE",
"171 229 LINE"
);
}
);
width = 605;
}
);
leftKerningGroup = A;
rightKerningGroup = A;
rightMetricsKey = A;
},
{
glyphname = R.ss02;
layers = (
{
anchors = (
{
name = bottom;
position = "{299, 0}";
},
{
name = top;
position = "{312, 625}";
}
);
layerId = "2373B5BC-5F65-41C1-A640-5B37284EFBFD";
paths = (
{
closed = 1;
nodes = (
"42 0 OFFCURVE",
"81 2 OFFCURVE",
"119 2 CURVE SMOOTH",
"160 2 OFFCURVE",
"194 0 OFFCURVE",
"223 0 CURVE SMOOTH",
"227 0 OFFCURVE",
"227 12 OFFCURVE",
"222 12 CURVE SMOOTH",
"153 12 OFFCURVE",
"146 23 OFFCURVE",
"157 81 CURVE SMOOTH",
"239 542 LINE SMOOTH",
"251 613 OFFCURVE",
"267 615 OFFCURVE",
"311 615 CURVE SMOOTH",
"386 615 OFFCURVE",
"437 577 OFFCURVE",
"412 457 CURVE SMOOTH",
"392 365 OFFCURVE",
"349 329 OFFCURVE",
"254 329 CURVE SMOOTH",
"237 329 OFFCURVE",
"213 330 OFFCURVE",
"195 333 CURVE",
"193 309 LINE",
"202 308 OFFCURVE",
"223 306 OFFCURVE",
"235 306 CURVE SMOOTH",
"345 306 OFFCURVE",
"447 386 OFFCURVE",
"468 491 CURVE SMOOTH",
"485 580 OFFCURVE",
"440 628 OFFCURVE",
"335 628 CURVE SMOOTH",
"308 628 OFFCURVE",
"258 622 OFFCURVE",
"228 622 CURVE SMOOTH",
"189 622 OFFCURVE",
"153 625 OFFCURVE",
"125 625 CURVE SMOOTH",
"120 625 OFFCURVE",
"120 613 OFFCURVE",
"125 613 CURVE SMOOTH",
"194 613 OFFCURVE",
"202 601 OFFCURVE",
"192 544 CURVE SMOOTH",
"110 81 LINE SMOOTH",
"99 23 OFFCURVE",
"82 12 OFFCURVE",
"14 12 CURVE SMOOTH",
"9 12 OFFCURVE",
"9 0 OFFCURVE",
"14 0 CURVE SMOOTH"
);
},
{
closed = 1;
nodes = (
"501 0 OFFCURVE",
"532 0 OFFCURVE",
"582 0 CURVE SMOOTH",
"587 0 OFFCURVE",
"587 12 OFFCURVE",
"582 12 CURVE SMOOTH",
"506 12 OFFCURVE",
"446 94 OFFCURVE",
"331 337 CURVE",
"291 322 LINE",
"380 123 OFFCURVE",
"453 0 OFFCURVE",
"485 0 CURVE SMOOTH"
);
}
);
width = 608;
},
{
anchors = (
{
name = bottom;
position = "{342, 0}";
},
{
name = top;
position = "{343, 625}";
}
);
layerId = "A1717557-2B81-457C-987E-D55DA76CA63F";
paths = (
{
closed = 1;
nodes = (
"50 0 OFFCURVE",
"92 2 OFFCURVE",
"136 2 CURVE SMOOTH",
"181 2 OFFCURVE",
"219 0 OFFCURVE",
"251 0 CURVE SMOOTH",
"255 0 OFFCURVE",
"255 12 OFFCURVE",
"250 12 CURVE SMOOTH",
"196 12 OFFCURVE",
"189 25 OFFCURVE",
"199 81 CURVE",
"281 542 LINE",
"292 605 OFFCURVE",
"298 607 OFFCURVE",
"342 607 CURVE SMOOTH",
"393 607 OFFCURVE",
"434 571 OFFCURVE",
"416 469 CURVE SMOOTH",
"401 370 OFFCURVE",
"357 331 OFFCURVE",
"270 331 CURVE SMOOTH",
"260 331 OFFCURVE",
"241 333 OFFCURVE",
"233 337 CURVE",
"227 306 LINE",
"229 305 OFFCURVE",
"244 304 OFFCURVE",
"250 304 CURVE SMOOTH",
"378 304 OFFCURVE",
"502 375 OFFCURVE",
"522 491 CURVE SMOOTH",
"538 580 OFFCURVE",
"485 628 OFFCURVE",
"351 628 CURVE SMOOTH",
"324 628 OFFCURVE",
"275 622 OFFCURVE",
"244 622 CURVE SMOOTH",
"201 622 OFFCURVE",
"161 625 OFFCURVE",
"130 625 CURVE SMOOTH",
"125 625 OFFCURVE",
"125 613 OFFCURVE",
"130 613 CURVE SMOOTH",
"185 613 OFFCURVE",
"193 601 OFFCURVE",
"182 544 CURVE SMOOTH",
"101 81 LINE SMOOTH",
"90 25 OFFCURVE",
"77 12 OFFCURVE",
"19 12 CURVE SMOOTH",
"14 12 OFFCURVE",
"14 0 OFFCURVE",
"19 0 CURVE SMOOTH"
);
},
{
closed = 1;
nodes = (
"484 0 OFFCURVE",
"530 0 OFFCURVE",
"611 0 CURVE SMOOTH",
"615 0 OFFCURVE",
"615 12 OFFCURVE",
"611 12 CURVE SMOOTH",
"542 12 OFFCURVE",
"483 97 OFFCURVE",
"386 349 CURVE",
"305 322 LINE",
"375 89 OFFCURVE",
"434 0 OFFCURVE",
"460 0 CURVE SMOOTH"
);
}
);
width = 635;
}
);
leftMetricsKey = "=B";
rightKerningGroup = R;
},
{
glyphname = Q.long.ss02;
layers = (
{
anchors = (
{
name = bottom;
position = "{291, 0}";
},
{
name = top;
position = "{401, 625}";
}
);
components = (
{
name = O;
}
);
layerId = "2373B5BC-5F65-41C1-A640-5B37284EFBFD";
paths = (
{
closed = 1;
nodes = (
"1037 -187 OFFCURVE",
"1033 -178 OFFCURVE",
"1028 -179 CURVE SMOOTH",
"998 -186 OFFCURVE",
"965 -189 OFFCURVE",
"931 -189 CURVE SMOOTH",
"770 -189 OFFCURVE",
"574 -115 OFFCURVE",
"404 20 CURVE",
"330 7 LINE",
"533 -145 OFFCURVE",
"705 -219 OFFCURVE",
"863 -219 CURVE SMOOTH",
"922 -219 OFFCURVE",
"978 -209 OFFCURVE",
"1033 -189 CURVE SMOOTH"
);
}
);
width = 650;
},
{
anchors = (
{
name = bottom;
position = "{294, 0}";
},
{
name = top;
position = "{404, 625}";
}
);
components = (
{
name = O;
}
);
layerId = "A1717557-2B81-457C-987E-D55DA76CA63F";
paths = (
{
closed = 1;
nodes = (
"1044 -187 OFFCURVE",
"1040 -178 OFFCURVE",
"1035 -179 CURVE SMOOTH",
"1005 -186 OFFCURVE",
"972 -191 OFFCURVE",
"937 -191 CURVE SMOOTH",
"780 -191 OFFCURVE",
"592 -113 OFFCURVE",
"425 28 CURVE",
"303 -6 LINE",
"512 -157 OFFCURVE",
"699 -220 OFFCURVE",
"862 -220 CURVE SMOOTH",
"923 -220 OFFCURVE",
"981 -209 OFFCURVE",
"1040 -189 CURVE SMOOTH"
);
}
);
width = 655;
}
);
leftKerningGroup = O;
rightKerningGroup = O;
},
{
glyphname = R.short.ss02;
layers = (
{
anchors = (
{
name = bottom;
position = "{275, 0}";
},
{
name = top;
position = "{313, 625}";
}
);
layerId = "2373B5BC-5F65-41C1-A640-5B37284EFBFD";
leftMetricsKey = "=B";
paths = (
{
closed = 1;
nodes = (
"433 0 OFFCURVE",
"477 0 OFFCURVE",
"527 0 CURVE SMOOTH",
"532 0 OFFCURVE",
"532 12 OFFCURVE",
"527 12 CURVE SMOOTH",
"456 12 OFFCURVE",
"407 68 OFFCURVE",
"338 338 CURVE",
"294 325 LINE",
"331 129 OFFCURVE",
"402 0 OFFCURVE",
"418 0 CURVE SMOOTH"
);
},
{
closed = 1;
nodes = (
"37 0 OFFCURVE",
"76 2 OFFCURVE",
"115 2 CURVE SMOOTH",
"156 2 OFFCURVE",
"189 0 OFFCURVE",
"219 0 CURVE SMOOTH",
"222 0 OFFCURVE",
"222 12 OFFCURVE",
"218 12 CURVE SMOOTH",
"149 12 OFFCURVE",
"142 23 OFFCURVE",
"152 81 CURVE SMOOTH",
"234 542 LINE SMOOTH",
"247 613 OFFCURVE",
"262 615 OFFCURVE",
"306 615 CURVE SMOOTH",
"381 615 OFFCURVE",
"433 577 OFFCURVE",
"407 457 CURVE SMOOTH",
"387 365 OFFCURVE",
"344 329 OFFCURVE",
"249 329 CURVE SMOOTH",
"233 329 OFFCURVE",
"208 330 OFFCURVE",
"191 333 CURVE",
"188 309 LINE",
"198 308 OFFCURVE",
"219 306 OFFCURVE",
"230 306 CURVE SMOOTH",
"340 306 OFFCURVE",
"442 386 OFFCURVE",
"463 491 CURVE SMOOTH",
"481 580 OFFCURVE",
"435 628 OFFCURVE",
"330 628 CURVE SMOOTH",
"303 628 OFFCURVE",
"254 622 OFFCURVE",
"223 622 CURVE SMOOTH",
"185 622 OFFCURVE",
"149 625 OFFCURVE",
"120 625 CURVE SMOOTH",
"116 625 OFFCURVE",
"116 613 OFFCURVE",
"120 613 CURVE SMOOTH",
"189 613 OFFCURVE",
"198 601 OFFCURVE",
"187 544 CURVE SMOOTH",
"105 81 LINE SMOOTH",
"95 23 OFFCURVE",
"77 12 OFFCURVE",
"9 12 CURVE SMOOTH",
"5 12 OFFCURVE",
"5 0 OFFCURVE",
"9 0 CURVE SMOOTH"
);
}
);
width = 550;
},
{
anchors = (
{
name = bottom;
position = "{282, 0}";
},
{
name = top;
position = "{344, 625}";
}
);
layerId = "A1717557-2B81-457C-987E-D55DA76CA63F";
leftMetricsKey = "=B";
paths = (
{
closed = 1;
nodes = (
"433 0 OFFCURVE",
"491 0 OFFCURVE",
"558 0 CURVE SMOOTH",
"563 0 OFFCURVE",
"563 12 OFFCURVE",
"558 12 CURVE SMOOTH",
"502 12 OFFCURVE",
"450 71 OFFCURVE",
"391 345 CURVE",
"309 318 LINE",
"340 127 OFFCURVE",
"402 0 OFFCURVE",
"413 0 CURVE SMOOTH"
);
},
{
closed = 1;
nodes = (
"48 0 OFFCURVE",
"90 2 OFFCURVE",
"133 2 CURVE SMOOTH",
"179 2 OFFCURVE",
"216 0 OFFCURVE",
"249 0 CURVE SMOOTH",
"253 0 OFFCURVE",
"253 12 OFFCURVE",
"248 12 CURVE SMOOTH",
"194 12 OFFCURVE",
"187 25 OFFCURVE",
"196 81 CURVE",
"278 542 LINE",
"290 605 OFFCURVE",
"296 607 OFFCURVE",
"339 607 CURVE SMOOTH",
"391 607 OFFCURVE",
"432 571 OFFCURVE",
"414 469 CURVE SMOOTH",
"399 370 OFFCURVE",
"354 331 OFFCURVE",
"268 331 CURVE SMOOTH",
"257 331 OFFCURVE",
"239 333 OFFCURVE",
"230 337 CURVE",
"225 306 LINE",
"227 305 OFFCURVE",
"242 304 OFFCURVE",
"248 304 CURVE SMOOTH",
"375 304 OFFCURVE",
"499 375 OFFCURVE",
"519 491 CURVE SMOOTH",
"536 580 OFFCURVE",
"483 628 OFFCURVE",
"349 628 CURVE SMOOTH",
"322 628 OFFCURVE",
"273 622 OFFCURVE",
"242 622 CURVE SMOOTH",
"199 622 OFFCURVE",
"159 625 OFFCURVE",
"127 625 CURVE SMOOTH",
"123 625 OFFCURVE",
"123 613 OFFCURVE",
"127 613 CURVE SMOOTH",
"182 613 OFFCURVE",
"191 601 OFFCURVE",
"180 544 CURVE SMOOTH",
"98 81 LINE SMOOTH",
"88 25 OFFCURVE",
"75 12 OFFCURVE",
"16 12 CURVE SMOOTH",
"12 12 OFFCURVE",
"12 0 OFFCURVE",
"16 0 CURVE SMOOTH"
);
}
);
width = 557;
}
);
leftMetricsKey = H;
rightKerningGroup = R.short;
},
{
glyphname = U.ss03;
layers = (
{
anchors = (
{
name = bottom;
position = "{312, 0}";
},
{
name = ogonek;
position = "{523, 12}";
},
{
name = top;
position = "{415, 625}";
},
{
name = topright;
position = "{745, 625}";
}
);
layerId = "2373B5BC-5F65-41C1-A640-5B37284EFBFD";
paths = (
{
closed = 1;
nodes = (
"364 -12 OFFCURVE",
"437 28 OFFCURVE",
"537 125 CURVE",
"530 133 LINE",
"436 43 OFFCURVE",
"373 13 OFFCURVE",
"304 13 CURVE SMOOTH",
"195 13 OFFCURVE",
"140 83 OFFCURVE",
"165 221 CURVE SMOOTH",
"221 542 LINE SMOOTH",
"232 599 OFFCURVE",
"244 613 OFFCURVE",
"309 613 CURVE SMOOTH",
"312 613 OFFCURVE",
"312 625 OFFCURVE",
"309 625 CURVE SMOOTH",
"283 625 OFFCURVE",
"246 622 OFFCURVE",
"208 622 CURVE SMOOTH",
"171 622 OFFCURVE",
"137 625 OFFCURVE",
"111 625 CURVE SMOOTH",
"108 625 OFFCURVE",
"108 613 OFFCURVE",
"111 613 CURVE SMOOTH",
"175 613 OFFCURVE",
"185 601 OFFCURVE",
"174 544 CURVE SMOOTH",
"111 186 LINE SMOOTH",
"90 64 OFFCURVE",
"161 -12 OFFCURVE",
"281 -12 CURVE SMOOTH"
);
},
{
closed = 1;
nodes = (
"516 0 OFFCURVE",
"529 1 OFFCURVE",
"545 1 CURVE SMOOTH",
"573 1 OFFCURVE",
"598 0 OFFCURVE",
"623 0 CURVE SMOOTH",
"628 0 OFFCURVE",
"628 12 OFFCURVE",
"623 12 CURVE SMOOTH",
"547 12 OFFCURVE",
"537 23 OFFCURVE",
"547 81 CURVE SMOOTH",
"629 544 LINE SMOOTH",
"640 601 OFFCURVE",
"654 613 OFFCURVE",
"717 613 CURVE SMOOTH",
"720 613 OFFCURVE",
"720 625 OFFCURVE",
"717 625 CURVE SMOOTH",
"691 625 OFFCURVE",
"654 622 OFFCURVE",
"618 622 CURVE SMOOTH",
"580 622 OFFCURVE",
"545 625 OFFCURVE",
"519 625 CURVE SMOOTH",
"516 625 OFFCURVE",
"516 613 OFFCURVE",
"519 613 CURVE SMOOTH",
"585 613 OFFCURVE",
"592 599 OFFCURVE",
"581 542 CURVE SMOOTH",
"490 19 LINE SMOOTH",
"488 2 OFFCURVE",
"489 0 OFFCURVE",
"502 0 CURVE SMOOTH"
);
}
);
width = 692;
},
{
anchors = (
{
name = bottom;
position = "{324, 0}";
},
{
name = ogonek;
position = "{505, 12}";
},
{
name = top;
position = "{421, 625}";
},
{
name = topright;
position = "{768, 625}";
}
);
layerId = "A1717557-2B81-457C-987E-D55DA76CA63F";
paths = (
{
closed = 1;
nodes = (
"372 -12 OFFCURVE",
"446 26 OFFCURVE",
"545 123 CURVE",
"532 135 LINE",
"443 53 OFFCURVE",
"386 25 OFFCURVE",
"323 25 CURVE SMOOTH",
"221 25 OFFCURVE",
"173 97 OFFCURVE",
"195 221 CURVE SMOOTH",
"253 542 LINE SMOOTH",
"263 599 OFFCURVE",
"273 613 OFFCURVE",
"326 613 CURVE SMOOTH",
"330 613 OFFCURVE",
"330 625 OFFCURVE",
"326 625 CURVE SMOOTH",
"297 625 OFFCURVE",
"256 622 OFFCURVE",
"214 622 CURVE SMOOTH",
"172 622 OFFCURVE",
"135 625 OFFCURVE",
"105 625 CURVE SMOOTH",
"102 625 OFFCURVE",
"102 613 OFFCURVE",
"105 613 CURVE SMOOTH",
"156 613 OFFCURVE",
"165 601 OFFCURVE",
"154 544 CURVE SMOOTH",
"91 186 LINE SMOOTH",
"70 64 OFFCURVE",
"152 -12 OFFCURVE",
"281 -12 CURVE SMOOTH"
);
},
{
closed = 1;
nodes = (
"504 0 OFFCURVE",
"525 1 OFFCURVE",
"551 1 CURVE SMOOTH",
"584 1 OFFCURVE",
"612 0 OFFCURVE",
"641 0 CURVE SMOOTH",
"646 0 OFFCURVE",
"646 12 OFFCURVE",
"641 12 CURVE SMOOTH",
"579 12 OFFCURVE",
"568 23 OFFCURVE",
"579 81 CURVE SMOOTH",
"661 544 LINE SMOOTH",
"671 601 OFFCURVE",
"682 613 OFFCURVE",
"735 613 CURVE SMOOTH",
"738 613 OFFCURVE",
"738 625 OFFCURVE",
"735 625 CURVE SMOOTH",
"705 625 OFFCURVE",
"664 622 OFFCURVE",
"623 622 CURVE SMOOTH",
"581 622 OFFCURVE",
"543 625 OFFCURVE",
"513 625 CURVE SMOOTH",
"510 625 OFFCURVE",
"510 613 OFFCURVE",
"513 613 CURVE SMOOTH",
"564 613 OFFCURVE",
"572 599 OFFCURVE",
"561 542 CURVE SMOOTH",
"470 19 LINE SMOOTH",
"468 2 OFFCURVE",
"469 0 OFFCURVE",
"482 0 CURVE SMOOTH"
);
}
);
width = 716;
}
);
leftKerningGroup = U;
},
{
color = 9;
glyphname = Uhorn.ss03;
layers = (
{
anchors = (
{
name = bottom;
position = "{337, 0}";
},
{
name = top;
position = "{422, 625}";
}
);
layerId = "2373B5BC-5F65-41C1-A640-5B37284EFBFD";
paths = (
{
closed = 1;
nodes = (
"364 -12 OFFCURVE",
"437 28 OFFCURVE",
"537 125 CURVE",
"530 133 LINE",
"436 43 OFFCURVE",
"373 13 OFFCURVE",
"304 13 CURVE SMOOTH",
"195 13 OFFCURVE",
"140 83 OFFCURVE",
"165 221 CURVE SMOOTH",
"221 542 LINE SMOOTH",
"232 599 OFFCURVE",
"244 613 OFFCURVE",
"309 613 CURVE SMOOTH",
"312 613 OFFCURVE",
"312 625 OFFCURVE",
"309 625 CURVE SMOOTH",
"283 625 OFFCURVE",
"246 622 OFFCURVE",
"208 622 CURVE SMOOTH",
"171 622 OFFCURVE",
"137 625 OFFCURVE",
"111 625 CURVE SMOOTH",
"108 625 OFFCURVE",
"108 613 OFFCURVE",
"111 613 CURVE SMOOTH",
"175 613 OFFCURVE",
"185 601 OFFCURVE",
"174 544 CURVE SMOOTH",
"111 186 LINE SMOOTH",
"90 64 OFFCURVE",
"161 -12 OFFCURVE",
"281 -12 CURVE SMOOTH"
);
},
{
closed = 1;
nodes = (
"516 0 OFFCURVE",
"529 1 OFFCURVE",
"545 1 CURVE SMOOTH",
"573 1 OFFCURVE",
"598 0 OFFCURVE",
"623 0 CURVE SMOOTH",
"628 0 OFFCURVE",
"628 12 OFFCURVE",
"623 12 CURVE SMOOTH",
"547 12 OFFCURVE",
"537 23 OFFCURVE",
"547 81 CURVE SMOOTH",
"629 544 LINE SMOOTH",
"637 588 OFFCURVE",
"641 604 OFFCURVE",
"674 613 CURVE SMOOTH",
"699 622 OFFCURVE",
"781 639 OFFCURVE",
"793 708 CURVE SMOOTH",
"796 730 OFFCURVE",
"787 753 OFFCURVE",
"765 753 CURVE SMOOTH",
"749 753 OFFCURVE",
"730 746 OFFCURVE",
"727 724 CURVE SMOOTH",
"725 703 OFFCURVE",
"739 691 OFFCURVE",
"736 674 CURVE SMOOTH",
"730 642 OFFCURVE",
"685 622 OFFCURVE",
"619 622 CURVE SMOOTH",
"578 622 OFFCURVE",
"542 625 OFFCURVE",
"513 625 CURVE SMOOTH",
"509 625 OFFCURVE",
"510 613 OFFCURVE",
"513 613 CURVE SMOOTH",
"582 613 OFFCURVE",
"592 599 OFFCURVE",
"581 542 CURVE SMOOTH",
"490 19 LINE SMOOTH",
"488 2 OFFCURVE",
"489 0 OFFCURVE",
"502 0 CURVE SMOOTH"
);
}
);
width = 692;
},
{
anchors = (
{
name = bottom;
position = "{336, 0}";
},
{
name = top;
position = "{434, 625}";
}
);
layerId = "A1717557-2B81-457C-987E-D55DA76CA63F";
paths = (
{
closed = 1;
nodes = (
"372 -12 OFFCURVE",
"446 26 OFFCURVE",
"545 123 CURVE",
"532 135 LINE",
"443 53 OFFCURVE",
"386 25 OFFCURVE",
"323 25 CURVE SMOOTH",
"221 25 OFFCURVE",
"173 97 OFFCURVE",
"195 221 CURVE SMOOTH",
"253 542 LINE SMOOTH",
"263 599 OFFCURVE",
"273 613 OFFCURVE",
"326 613 CURVE SMOOTH",
"330 613 OFFCURVE",
"330 625 OFFCURVE",
"326 625 CURVE SMOOTH",
"297 625 OFFCURVE",
"256 622 OFFCURVE",
"214 622 CURVE SMOOTH",
"172 622 OFFCURVE",
"135 625 OFFCURVE",
"105 625 CURVE SMOOTH",
"102 625 OFFCURVE",
"102 613 OFFCURVE",
"105 613 CURVE SMOOTH",
"156 613 OFFCURVE",
"165 601 OFFCURVE",
"154 544 CURVE SMOOTH",
"91 186 LINE SMOOTH",
"70 64 OFFCURVE",
"152 -12 OFFCURVE",
"281 -12 CURVE SMOOTH"
);
},
{
closed = 1;
nodes = (
"504 0 OFFCURVE",
"525 1 OFFCURVE",
"551 1 CURVE SMOOTH",
"584 1 OFFCURVE",
"612 0 OFFCURVE",
"641 0 CURVE SMOOTH",
"646 0 OFFCURVE",
"646 12 OFFCURVE",
"641 12 CURVE SMOOTH",
"579 12 OFFCURVE",
"568 23 OFFCURVE",
"579 81 CURVE SMOOTH",
"661 544 LINE SMOOTH",
"669 588 OFFCURVE",
"676 599 OFFCURVE",
"706 609 CURVE SMOOTH",
"759 628 OFFCURVE",
"821 647 OFFCURVE",
"832 706 CURVE SMOOTH",
"836 736 OFFCURVE",
"823 766 OFFCURVE",
"794 766 CURVE SMOOTH",
"771 766 OFFCURVE",
"749 756 OFFCURVE",
"743 722 CURVE SMOOTH",
"737 690 OFFCURVE",
"757 680 OFFCURVE",
"753 660 CURVE SMOOTH",
"749 632 OFFCURVE",
"709 622 OFFCURVE",
"625 622 CURVE SMOOTH",
"584 622 OFFCURVE",
"543 625 OFFCURVE",
"511 625 CURVE SMOOTH",
"508 625 OFFCURVE",
"506 613 OFFCURVE",
"510 613 CURVE SMOOTH",
"565 613 OFFCURVE",
"572 599 OFFCURVE",
"561 542 CURVE SMOOTH",
"470 19 LINE SMOOTH",
"467 2 OFFCURVE",
"469 0 OFFCURVE",
"482 0 CURVE SMOOTH"
);
}
);
width = 716;
}
);
leftKerningGroup = U;
},
{
glyphname = W.ss03;
layers = (
{
anchors = (
{
name = bottom;
position = "{399, 0}";
},
{
name = top;
position = "{512, 625}";
}
);
layerId = "2373B5BC-5F65-41C1-A640-5B37284EFBFD";
paths = (
{
closed = 1;
nodes = (
"563 0 LINE SMOOTH",
"564 -5 OFFCURVE",
"580 -5 OFFCURVE",
"582 0 CURVE SMOOTH",
"822 543 LINE SMOOTH",
"847 600 OFFCURVE",
"884 613 OFFCURVE",
"922 613 CURVE SMOOTH",
"925 613 OFFCURVE",
"925 625 OFFCURVE",
"922 625 CURVE SMOOTH",
"891 625 OFFCURVE",
"875 622 OFFCURVE",
"841 622 CURVE SMOOTH",
"801 622 OFFCURVE",
"780 625 OFFCURVE",
"751 625 CURVE SMOOTH",
"747 625 OFFCURVE",
"747 613 OFFCURVE",
"751 613 CURVE SMOOTH",
"818 613 OFFCURVE",
"825 598 OFFCURVE",
"805 551 CURVE SMOOTH",
"567 13 LINE",
"606 56 LINE",
"523 625 LINE SMOOTH",
"522 629 OFFCURVE",
"505 629 OFFCURVE",
"503 625 CURVE SMOOTH",
"234 13 LINE",
"271 61 LINE",
"200 551 LINE SMOOTH",
"193 599 OFFCURVE",
"214 613 OFFCURVE",
"261 613 CURVE SMOOTH",
"264 613 OFFCURVE",
"264 625 OFFCURVE",
"261 625 CURVE SMOOTH",
"234 625 OFFCURVE",
"204 622 OFFCURVE",
"161 622 CURVE SMOOTH",
"138 622 OFFCURVE",
"109 625 OFFCURVE",
"84 625 CURVE SMOOTH",
"81 625 OFFCURVE",
"81 613 OFFCURVE",
"84 613 CURVE SMOOTH",
"122 613 OFFCURVE",
"143 596 OFFCURVE",
"151 543 CURVE SMOOTH",
"229 0 LINE SMOOTH",
"230 -5 OFFCURVE",
"247 -5 OFFCURVE",
"248 0 CURVE SMOOTH",
"518 613 LINE",
"481 570 LINE"
);
}
);
width = 856;
},
{
anchors = (
{
name = bottom;
position = "{377, 0}";
},
{
name = top;
position = "{499, 625}";
}
);
layerId = "A1717557-2B81-457C-987E-D55DA76CA63F";
paths = (
{
closed = 1;
nodes = (
"531 0 LINE SMOOTH",
"532 -5 OFFCURVE",
"547 -5 OFFCURVE",
"550 0 CURVE SMOOTH",
"761 492 LINE SMOOTH",
"794 568 OFFCURVE",
"850 613 OFFCURVE",
"895 613 CURVE SMOOTH",
"898 613 OFFCURVE",
"898 625 OFFCURVE",
"895 625 CURVE SMOOTH",
"864 625 OFFCURVE",
"848 622 OFFCURVE",
"814 622 CURVE SMOOTH",
"768 622 OFFCURVE",
"744 625 OFFCURVE",
"712 625 CURVE SMOOTH",
"709 625 OFFCURVE",
"709 613 OFFCURVE",
"712 613 CURVE SMOOTH",
"758 613 OFFCURVE",
"763 565 OFFCURVE",
"731 490 CURVE SMOOTH",
"546 55 LINE",
"606 157 LINE",
"508 625 LINE SMOOTH",
"506 629 OFFCURVE",
"491 629 OFFCURVE",
"489 625 CURVE SMOOTH",
"221 55 LINE",
"288 161 LINE",
"241 522 LINE SMOOTH",
"230 601 OFFCURVE",
"228 613 OFFCURVE",
"278 613 CURVE SMOOTH",
"282 613 OFFCURVE",
"282 625 OFFCURVE",
"278 625 CURVE SMOOTH",
"255 625 OFFCURVE",
"226 622 OFFCURVE",
"145 622 CURVE SMOOTH",
"101 622 OFFCURVE",
"101 625 OFFCURVE",
"80 625 CURVE SMOOTH",
"76 625 OFFCURVE",
"76 613 OFFCURVE",
"80 613 CURVE SMOOTH",
"113 613 OFFCURVE",
"126 604 OFFCURVE",
"135 544 CURVE SMOOTH",
"206 0 LINE SMOOTH",
"207 -5 OFFCURVE",
"222 -5 OFFCURVE",
"225 0 CURVE SMOOTH",
"492 571 LINE",
"433 477 LINE"
);
}
);
width = 814;
}
);
leftKerningGroup = V;
leftMetricsKey = V;
rightKerningGroup = V;
rightMetricsKey = V;
},
{
glyphname = Q.long.ss08;
layers = (
{
anchors = (
{
name = bottom;
position = "{291, 0}";
},
{
name = top;
position = "{401, 625}";
}
);
components = (
{
name = O;
}
);
layerId = "2373B5BC-5F65-41C1-A640-5B37284EFBFD";
paths = (
{
closed = 1;
nodes = (
"979 -264 OFFCURVE",
"1026 -243 OFFCURVE",
"1068 -207 CURVE SMOOTH",
"1073 -204 OFFCURVE",
"1065 -195 OFFCURVE",
"1061 -199 CURVE SMOOTH",
"1036 -215 OFFCURVE",
"1015 -225 OFFCURVE",
"964 -225 CURVE SMOOTH",
"720 -225 OFFCURVE",
"496 -71 OFFCURVE",
"320 -71 CURVE SMOOTH",
"240 -71 OFFCURVE",
"165 -104 OFFCURVE",
"119 -142 CURVE SMOOTH",
"116 -144 OFFCURVE",
"122 -154 OFFCURVE",
"125 -152 CURVE SMOOTH",
"166 -118 OFFCURVE",
"239 -109 OFFCURVE",
"280 -109 CURVE SMOOTH",
"444 -109 OFFCURVE",
"717 -264 OFFCURVE",
"912 -264 CURVE SMOOTH"
);
}
);
width = 650;
},
{
anchors = (
{
name = bottom;
position = "{294, 0}";
},
{
name = top;
position = "{404, 625}";
}
);
components = (
{
name = O;
}
);
layerId = "A1717557-2B81-457C-987E-D55DA76CA63F";
paths = (
{
closed = 1;
nodes = (
"935 -276 OFFCURVE",
"1005 -249 OFFCURVE",
"1065 -202 CURVE SMOOTH",
"1071 -198 OFFCURVE",
"1062 -187 OFFCURVE",
"1056 -192 CURVE SMOOTH",
"1021 -216 OFFCURVE",
"996 -225 OFFCURVE",
"947 -225 CURVE SMOOTH",
"735 -225 OFFCURVE",
"490 -71 OFFCURVE",
"320 -71 CURVE SMOOTH",
"240 -71 OFFCURVE",
"165 -104 OFFCURVE",
"119 -142 CURVE SMOOTH",
"116 -144 OFFCURVE",
"122 -154 OFFCURVE",
"125 -152 CURVE SMOOTH",
"153 -132 OFFCURVE",
"180 -123 OFFCURVE",
"211 -123 CURVE SMOOTH",
"378 -123 OFFCURVE",
"642 -276 OFFCURVE",
"848 -276 CURVE SMOOTH"
);
}
);
width = 655;
}
);
leftKerningGroup = O;
rightKerningGroup = O;
},
{
glyphname = a;
layers = (
{
anchors = (
{
name = bottom;
position = "{220, 0}";
},
{
name = ogonek;
position = "{371, 12}";
},
{
name = top;
position = "{273, 386}";
}
);
layerId = "2373B5BC-5F65-41C1-A640-5B37284EFBFD";
paths = (
{
closed = 1;
nodes = (
"161 -13 OFFCURVE",
"257 97 OFFCURVE",
"320 246 CURVE",
"304 229 LINE",
"280 89 LINE SMOOTH",
"267 16 OFFCURVE",
"273 -9 OFFCURVE",
"304 -9 CURVE SMOOTH",
"338 -9 OFFCURVE",
"372 19 OFFCURVE",
"416 69 CURVE SMOOTH",
"420 73 OFFCURVE",
"412 81 OFFCURVE",
"408 77 CURVE SMOOTH",
"379 47 OFFCURVE",
"354 28 OFFCURVE",
"338 28 CURVE SMOOTH",
"322 28 OFFCURVE",
"315 48 OFFCURVE",
"322 89 CURVE SMOOTH",
"380 406 LINE",
"381 409 OFFCURVE",
"370 411 OFFCURVE",
"368 407 CURVE",
"364 381 OFFCURVE",
"337 360 OFFCURVE",
"322 357 CURVE",
"360 332 LINE",
"356 380 OFFCURVE",
"318 399 OFFCURVE",
"282 399 CURVE SMOOTH",
"177 399 OFFCURVE",
"43 237 OFFCURVE",
"22 91 CURVE SMOOTH",
"12 16 OFFCURVE",
"37 -13 OFFCURVE",
"80 -13 CURVE SMOOTH"
);
},
{
closed = 1;
nodes = (
"70 30 OFFCURVE",
"60 64 OFFCURVE",
"69 127 CURVE SMOOTH",
"89 262 OFFCURVE",
"178 365 OFFCURVE",
"251 367 CURVE SMOOTH",
"303 368 OFFCURVE",
"323 329 OFFCURVE",
"313 283 CURVE SMOOTH",
"288 165 OFFCURVE",
"186 30 OFFCURVE",
"109 30 CURVE SMOOTH"
);
}
);
width = 432;
},
{
anchors = (
{
name = bottom;
position = "{229, 0}";
},
{
name = ogonek;
position = "{378, 12}";
},
{
name = top;
position = "{280, 386}";
}
);
layerId = "A1717557-2B81-457C-987E-D55DA76CA63F";
paths = (
{
closed = 1;
nodes = (
"164 -13 OFFCURVE",
"262 82 OFFCURVE",
"310 246 CURVE",
"289 229 LINE SMOOTH",
"264 89 LINE SMOOTH",
"253 21 OFFCURVE",
"268 -9 OFFCURVE",
"311 -9 CURVE SMOOTH",
"345 -9 OFFCURVE",
"382 19 OFFCURVE",
"423 69 CURVE SMOOTH",
"427 73 OFFCURVE",
"419 81 OFFCURVE",
"415 77 CURVE SMOOTH",
"394 56 OFFCURVE",
"374 42 OFFCURVE",
"361 42 CURVE SMOOTH",
"349 42 OFFCURVE",
"344 57 OFFCURVE",
"350 89 CURVE SMOOTH",
"408 404 LINE SMOOTH",
"409 407 OFFCURVE",
"399 411 OFFCURVE",
"396 407 CURVE SMOOTH",
"379 380 OFFCURVE",
"351 360 OFFCURVE",
"329 357 CURVE",
"389 324 LINE",
"385 377 OFFCURVE",
"333 399 OFFCURVE",
"294 399 CURVE SMOOTH",
"181 399 OFFCURVE",
"36 226 OFFCURVE",
"18 91 CURVE SMOOTH",
"7 18 OFFCURVE",
"37 -13 OFFCURVE",
"83 -13 CURVE SMOOTH"
);
},
{
closed = 1;
nodes = (
"117 60 OFFCURVE",
"97 88 OFFCURVE",
"111 172 CURVE SMOOTH",
"129 275 OFFCURVE",
"179 350 OFFCURVE",
"242 350 CURVE SMOOTH",
"285 350 OFFCURVE",
"305 313 OFFCURVE",
"294 253 CURVE SMOOTH",
"280 178 OFFCURVE",
"211 60 OFFCURVE",
"147 60 CURVE SMOOTH"
);
}
);
width = 444;
}
);
leftKerningGroup = a;
rightKerningGroup = a;
rightMetricsKey = n;
unicode = 0061;
},
{
glyphname = aogonek;
layers = (
{
anchors = (
{
name = bottom;
position = "{129, 0}";
},
{
name = ogonek;
position = "{371, 12}";
},
{
name = top;
position = "{273, 386}";
}
);
layerId = "2373B5BC-5F65-41C1-A640-5B37284EFBFD";
paths = (
{
closed = 1;
nodes = (
"302 -275 OFFCURVE",
"333 -262 OFFCURVE",
"370 -230 CURVE SMOOTH",
"373 -227 OFFCURVE",
"366 -219 OFFCURVE",
"363 -221 CURVE SMOOTH",
"346 -234 OFFCURVE",
"330 -248 OFFCURVE",
"301 -248 CURVE SMOOTH",
"246 -248 OFFCURVE",
"227 -202 OFFCURVE",
"239 -150 CURVE SMOOTH",
"256 -71 OFFCURVE",
"338 -12 OFFCURVE",
"416 69 CURVE SMOOTH",
"420 73 OFFCURVE",
"412 81 OFFCURVE",
"408 77 CURVE SMOOTH",
"379 47 OFFCURVE",
"354 28 OFFCURVE",
"339 28 CURVE SMOOTH",
"322 28 OFFCURVE",
"315 48 OFFCURVE",
"322 89 CURVE SMOOTH",
"380 406 LINE",
"381 409 OFFCURVE",
"370 411 OFFCURVE",
"368 407 CURVE",
"366 393 OFFCURVE",
"357 380 OFFCURVE",
"346 371 CURVE",
"331 391 OFFCURVE",
"306 399 OFFCURVE",
"282 399 CURVE SMOOTH",
"177 399 OFFCURVE",
"43 237 OFFCURVE",
"22 91 CURVE SMOOTH",
"12 16 OFFCURVE",
"37 -13 OFFCURVE",
"80 -13 CURVE SMOOTH",
"152 -13 OFFCURVE",
"236 75 OFFCURVE",
"298 199 CURVE",
"280 89 LINE SMOOTH",
"267 16 OFFCURVE",
"273 -9 OFFCURVE",
"304 -9 CURVE SMOOTH",
"316 -9 OFFCURVE",
"324 -6 OFFCURVE",
"333 -1 CURVE",
"350 21 LINE",
"274 -47 OFFCURVE",
"209 -115 OFFCURVE",
"196 -179 CURVE SMOOTH",
"186 -230 OFFCURVE",
"213 -275 OFFCURVE",
"270 -275 CURVE SMOOTH"
);
},
{
closed = 1;
nodes = (
"70 30 OFFCURVE",
"60 64 OFFCURVE",
"69 127 CURVE SMOOTH",
"89 262 OFFCURVE",
"178 365 OFFCURVE",
"251 367 CURVE SMOOTH",
"303 368 OFFCURVE",
"323 329 OFFCURVE",
"313 283 CURVE SMOOTH",
"288 165 OFFCURVE",
"186 30 OFFCURVE",
"109 30 CURVE SMOOTH"
);
}
);
width = 432;
},
{
anchors = (
{
name = bottom;
position = "{136, 0}";
},
{
name = ogonek;
position = "{378, 12}";
},
{
name = top;
position = "{280, 386}";
}
);
layerId = "A1717557-2B81-457C-987E-D55DA76CA63F";
paths = (
{
closed = 1;
nodes = (
"311 -275 OFFCURVE",
"340 -255 OFFCURVE",
"377 -207 CURVE SMOOTH",
"380 -204 OFFCURVE",
"373 -195 OFFCURVE",
"370 -198 CURVE SMOOTH",
"358 -209 OFFCURVE",
"344 -222 OFFCURVE",
"322 -222 CURVE SMOOTH",
"283 -222 OFFCURVE",
"269 -185 OFFCURVE",
"275 -144 CURVE SMOOTH",
"285 -75 OFFCURVE",
"310 -39 OFFCURVE",
"423 69 CURVE SMOOTH",
"427 73 OFFCURVE",
"419 81 OFFCURVE",
"415 77 CURVE SMOOTH",
"394 56 OFFCURVE",
"374 42 OFFCURVE",
"361 42 CURVE SMOOTH",
"349 42 OFFCURVE",
"344 57 OFFCURVE",
"350 89 CURVE SMOOTH",
"408 404 LINE SMOOTH",
"409 407 OFFCURVE",
"399 411 OFFCURVE",
"396 407 CURVE SMOOTH",
"388 394 OFFCURVE",
"377 382 OFFCURVE",
"365 374 CURVE",
"351 386 OFFCURVE",
"324 399 OFFCURVE",
"294 399 CURVE SMOOTH",
"181 399 OFFCURVE",
"36 226 OFFCURVE",
"18 91 CURVE SMOOTH",
"7 18 OFFCURVE",
"37 -13 OFFCURVE",
"83 -13 CURVE SMOOTH",
"147 -13 OFFCURVE",
"222 46 OFFCURVE",
"275 152 CURVE",
"264 89 LINE SMOOTH",
"253 21 OFFCURVE",
"268 -9 OFFCURVE",
"311 -9 CURVE SMOOTH",
"323 -9 OFFCURVE",
"331 -6 OFFCURVE",
"340 -1 CURVE",
"357 21 LINE",
"275 -34 OFFCURVE",
"198 -111 OFFCURVE",
"186 -173 CURVE SMOOTH",
"177 -225 OFFCURVE",
"209 -275 OFFCURVE",
"271 -275 CURVE SMOOTH"
);
},
{
closed = 1;
nodes = (
"117 60 OFFCURVE",
"97 88 OFFCURVE",
"111 172 CURVE SMOOTH",
"129 275 OFFCURVE",
"179 350 OFFCURVE",
"242 350 CURVE SMOOTH",
"285 350 OFFCURVE",
"305 313 OFFCURVE",
"294 253 CURVE SMOOTH",
"280 178 OFFCURVE",
"211 60 OFFCURVE",
"147 60 CURVE SMOOTH"
);
}
);
width = 447;
}
);
leftKerningGroup = a;
leftMetricsKey = a;
rightKerningGroup = a;
unicode = 0105;
},
{
glyphname = ae;
layers = (
{
anchors = (
{
name = bottom;
position = "{230, 0}";
},
{
name = top;
position = "{339, 386}";
}
);
layerId = "2373B5BC-5F65-41C1-A640-5B37284EFBFD";
paths = (
{
closed = 1;
nodes = (
"150 -13 OFFCURVE",
"232 97 OFFCURVE",
"285 246 CURVE SMOOTH",
"296 276 OFFCURVE",
"312 303 OFFCURVE",
"325 332 CURVE",
"322 380 OFFCURVE",
"290 399 OFFCURVE",
"258 399 CURVE SMOOTH",
"163 399 OFFCURVE",
"42 237 OFFCURVE",
"22 91 CURVE SMOOTH",
"12 16 OFFCURVE",
"37 -13 OFFCURVE",
"80 -13 CURVE SMOOTH"
);
},
{
closed = 1;
nodes = (
"70 30 OFFCURVE",
"61 64 OFFCURVE",
"69 127 CURVE SMOOTH",
"87 262 OFFCURVE",
"164 365 OFFCURVE",
"228 367 CURVE SMOOTH",
"270 368 OFFCURVE",
"287 329 OFFCURVE",
"278 283 CURVE SMOOTH",
"257 165 OFFCURVE",
"173 30 OFFCURVE",
"109 30 CURVE SMOOTH"
);
},
{
closed = 1;
nodes = (
"394 -12 OFFCURVE",
"430 4 OFFCURVE",
"475 44 CURVE",
"478 48 OFFCURVE",
"470 55 OFFCURVE",
"467 53 CURVE",
"440 28 OFFCURVE",
"415 18 OFFCURVE",
"380 18 CURVE SMOOTH",
"320 18 OFFCURVE",
"294 84 OFFCURVE",
"311 215 CURVE SMOOTH",
"324 312 OFFCURVE",
"372 380 OFFCURVE",
"428 380 CURVE SMOOTH",
"468 380 OFFCURVE",
"475 344 OFFCURVE",
"470 323 CURVE SMOOTH",
"460 270 OFFCURVE",
"363 240 OFFCURVE",
"296 220 CURVE",
"295 208 LINE",
"462 255 OFFCURVE",
"516 292 OFFCURVE",
"523 337 CURVE SMOOTH",
"527 365 OFFCURVE",
"516 399 OFFCURVE",
"461 399 CURVE SMOOTH",
"407 399 OFFCURVE",
"346 367 OFFCURVE",
"301 305 CURVE",
"265 211 LINE",
"237 74 OFFCURVE",
"270 -12 OFFCURVE",
"351 -12 CURVE SMOOTH"
);
}
);
width = 529;
},
{
anchors = (
{
name = bottom;
position = "{261, 0}";
},
{
name = top;
position = "{370, 386}";
}
);
layerId = "A1717557-2B81-457C-987E-D55DA76CA63F";
paths = (
{
closed = 1;
nodes = (
"172 -13 OFFCURVE",
"260 97 OFFCURVE",
"316 246 CURVE",
"336 281 OFFCURVE",
"359 315 OFFCURVE",
"379 350 CURVE",
"373 385 OFFCURVE",
"335 399 OFFCURVE",
"297 399 CURVE SMOOTH",
"161 399 OFFCURVE",
"35 219 OFFCURVE",
"18 91 CURVE SMOOTH",
"8 26 OFFCURVE",
"39 -13 OFFCURVE",
"88 -13 CURVE SMOOTH"
);
},
{
closed = 1;
nodes = (
"131 65 OFFCURVE",
"102 81 OFFCURVE",
"117 171 CURVE SMOOTH",
"136 282 OFFCURVE",
"196 367 OFFCURVE",
"247 367 CURVE SMOOTH",
"288 367 OFFCURVE",
"310 317 OFFCURVE",
"297 254 CURVE SMOOTH",
"281 175 OFFCURVE",
"195 65 OFFCURVE",
"152 65 CURVE SMOOTH"
);
},
{
closed = 1;
nodes = (
"442 -12 OFFCURVE",
"488 7 OFFCURVE",
"540 56 CURVE SMOOTH",
"544 60 OFFCURVE",
"536 68 OFFCURVE",
"532 64 CURVE SMOOTH",
"508 44 OFFCURVE",
"482 35 OFFCURVE",
"458 35 CURVE SMOOTH",
"400 35 OFFCURVE",
"361 96 OFFCURVE",
"377 215 CURVE SMOOTH",
"388 308 OFFCURVE",
"426 373 OFFCURVE",
"470 373 CURVE SMOOTH",
"498 373 OFFCURVE",
"504 345 OFFCURVE",
"501 323 CURVE SMOOTH",
"491 258 OFFCURVE",
"400 221 OFFCURVE",
"338 196 CURVE",
"337 185 LINE",
"540 248 OFFCURVE",
"592 294 OFFCURVE",
"599 338 CURVE SMOOTH",
"605 373 OFFCURVE",
"586 399 OFFCURVE",
"520 399 CURVE SMOOTH",
"447 399 OFFCURVE",
"380 367 OFFCURVE",
"331 305 CURVE",
"296 211 LINE",
"265 77 OFFCURVE",
"297 -12 OFFCURVE",
"396 -12 CURVE SMOOTH"
);
}
);
width = 589;
}
);
leftKerningGroup = a;
leftMetricsKey = a;
rightKerningGroup = c;
rightMetricsKey = e;
unicode = 00E6;
},
{
glyphname = b;
layers = (
{
anchors = (
{
name = bottom;
position = "{181, 0}";
},
{
name = top;
position = "{249, 386}";
}
);
layerId = "2373B5BC-5F65-41C1-A640-5B37284EFBFD";
paths = (
{
closed = 1;
nodes = (
"235 -13 OFFCURVE",
"373 78 OFFCURVE",
"408 251 CURVE SMOOTH",
"426 337 OFFCURVE",
"393 399 OFFCURVE",
"331 399 CURVE SMOOTH",
"226 399 OFFCURVE",
"118 269 OFFCURVE",
"94 116 CURVE",
"99 96 LINE",
"129 253 OFFCURVE",
"208 359 OFFCURVE",
"294 359 CURVE SMOOTH",
"356 359 OFFCURVE",
"367 296 OFFCURVE",
"352 220 CURVE SMOOTH",
"327 88 OFFCURVE",
"253 12 OFFCURVE",
"187 12 CURVE SMOOTH",
"127 12 OFFCURVE",
"91 47 OFFCURVE",
"99 96 CURVE SMOOTH",
"213 717 LINE",
"214 720 OFFCURVE",
"207 727 OFFCURVE",
"202 725 CURVE SMOOTH",
"80 665 LINE SMOOTH",
"74 663 OFFCURVE",
"78 651 OFFCURVE",
"84 654 CURVE SMOOTH",
"146 684 OFFCURVE",
"164 670 OFFCURVE",
"156 627 CURVE SMOOTH",
"51 75 LINE SMOOTH",
"41 20 OFFCURVE",
"81 -13 OFFCURVE",
"145 -13 CURVE SMOOTH"
);
}
);
width = 430;
},
{
anchors = (
{
name = bottom;
position = "{192, 0}";
},
{
name = top;
position = "{260, 386}";
}
);
layerId = "A1717557-2B81-457C-987E-D55DA76CA63F";
paths = (
{
closed = 1;
nodes = (
"249 -13 OFFCURVE",
"401 78 OFFCURVE",
"432 251 CURVE SMOOTH",
"446 338 OFFCURVE",
"415 399 OFFCURVE",
"352 399 CURVE SMOOTH",
"246 399 OFFCURVE",
"144 269 OFFCURVE",
"120 116 CURVE",
"131 96 LINE",
"156 236 OFFCURVE",
"222 332 OFFCURVE",
"295 332 CURVE SMOOTH",
"336 332 OFFCURVE",
"346 282 OFFCURVE",
"333 220 CURVE SMOOTH",
"313 90 OFFCURVE",
"250 15 OFFCURVE",
"191 15 CURVE SMOOTH",
"151 15 OFFCURVE",
"123 49 OFFCURVE",
"131 96 CURVE SMOOTH",
"241 717 LINE SMOOTH",
"242 720 OFFCURVE",
"235 727 OFFCURVE",
"229 725 CURVE SMOOTH",
"74 649 LINE SMOOTH",
"68 647 OFFCURVE",
"73 635 OFFCURVE",
"78 637 CURVE SMOOTH",
"133 663 OFFCURVE",
"147 653 OFFCURVE",
"136 589 CURVE SMOOTH",
"44 87 LINE SMOOTH",
"33 26 OFFCURVE",
"75 -13 OFFCURVE",
"154 -13 CURVE SMOOTH"
);
}
);
width = 451;
}
);
leftKerningGroup = l;
rightKerningGroup = o;
rightMetricsKey = "=|d";
unicode = 0062;
},
{
glyphname = c;
layers = (
{
anchors = (
{
name = bottom;
position = "{151, 0}";
},
{
name = top;
position = "{225, 386}";
}
);
layerId = "2373B5BC-5F65-41C1-A640-5B37284EFBFD";
paths = (
{
closed = 1;
nodes = (
"205 -13 OFFCURVE",
"256 9 OFFCURVE",
"312 58 CURVE SMOOTH",
"316 62 OFFCURVE",
"308 70 OFFCURVE",
"304 67 CURVE SMOOTH",
"275 43 OFFCURVE",
"242 18 OFFCURVE",
"193 18 CURVE SMOOTH",
"96 18 OFFCURVE",
"68 122 OFFCURVE",
"89 232 CURVE SMOOTH",
"104 311 OFFCURVE",
"143 379 OFFCURVE",
"215 379 CURVE SMOOTH",
"251 379 OFFCURVE",
"267 356 OFFCURVE",
"271 342 CURVE SMOOTH",
"278 323 OFFCURVE",
"289 313 OFFCURVE",
"304 313 CURVE SMOOTH",
"322 313 OFFCURVE",
"331 327 OFFCURVE",
"332 342 CURVE SMOOTH",
"336 374 OFFCURVE",
"296 399 OFFCURVE",
"248 399 CURVE SMOOTH",
"163 399 OFFCURVE",
"63 329 OFFCURVE",
"36 202 CURVE SMOOTH",
"15 105 OFFCURVE",
"43 -13 OFFCURVE",
"156 -13 CURVE SMOOTH"
);
}
);
width = 345;
},
{
anchors = (
{
name = bottom;
position = "{156, 0}";
},
{
name = top;
position = "{229, 386}";
}
);
layerId = "A1717557-2B81-457C-987E-D55DA76CA63F";
paths = (
{
closed = 1;
nodes = (
"209 -13 OFFCURVE",
"267 9 OFFCURVE",
"317 58 CURVE SMOOTH",
"320 62 OFFCURVE",
"312 69 OFFCURVE",
"309 67 CURVE SMOOTH",
"288 51 OFFCURVE",
"249 36 OFFCURVE",
"221 36 CURVE SMOOTH",
"131 36 OFFCURVE",
"104 126 OFFCURVE",
"123 237 CURVE SMOOTH",
"136 317 OFFCURVE",
"168 371 OFFCURVE",
"209 371 CURVE SMOOTH",
"234 371 OFFCURVE",
"241 352 OFFCURVE",
"246 332 CURVE SMOOTH",
"250 310 OFFCURVE",
"260 287 OFFCURVE",
"296 287 CURVE SMOOTH",
"327 287 OFFCURVE",
"345 305 OFFCURVE",
"347 332 CURVE SMOOTH",
"351 380 OFFCURVE",
"298 399 OFFCURVE",
"253 399 CURVE SMOOTH",
"161 399 OFFCURVE",
"50 322 OFFCURVE",
"29 202 CURVE SMOOTH",
"11 99 OFFCURVE",
"40 -13 OFFCURVE",
"160 -13 CURVE SMOOTH"
);
}
);
width = 347;
}
);
leftKerningGroup = o;
leftMetricsKey = o;
rightKerningGroup = c;
unicode = 0063;
},
{
glyphname = d;
layers = (
{
anchors = (
{
name = bottom;
position = "{212, 0}";
},
{
name = center;
position = "{187, 193}";
},
{
name = top;
position = "{256, 386}";
},
{
name = topright;
position = "{419, 386}";
}
);
layerId = "2373B5BC-5F65-41C1-A640-5B37284EFBFD";
paths = (
{
closed = 1;
nodes = (
"191 -13 OFFCURVE",
"271 96 OFFCURVE",
"333 246 CURVE",
"373 332 LINE",
"368 380 OFFCURVE",
"331 399 OFFCURVE",
"295 399 CURVE SMOOTH",
"178 399 OFFCURVE",
"54 274 OFFCURVE",
"28 126 CURVE SMOOTH",
"11 23 OFFCURVE",
"55 -13 OFFCURVE",
"104 -13 CURVE SMOOTH"
);
},
{
closed = 1;
nodes = (
"87 30 OFFCURVE",
"60 73 OFFCURVE",
"75 163 CURVE SMOOTH",
"98 295 OFFCURVE",
"175 365 OFFCURVE",
"264 367 CURVE SMOOTH",
"312 368 OFFCURVE",
"336 337 OFFCURVE",
"326 283 CURVE SMOOTH",
"311 199 OFFCURVE",
"223 30 OFFCURVE",
"132 30 CURVE SMOOTH"
);
},
{
closed = 1;
nodes = (
"349 -9 OFFCURVE",
"382 19 OFFCURVE",
"427 69 CURVE SMOOTH",
"432 74 OFFCURVE",
"423 82 OFFCURVE",
"419 77 CURVE SMOOTH",
"389 47 OFFCURVE",
"365 28 OFFCURVE",
"350 28 CURVE SMOOTH",
"332 28 OFFCURVE",
"324 48 OFFCURVE",
"332 89 CURVE SMOOTH",
"449 717 LINE SMOOTH",
"450 720 OFFCURVE",
"443 727 OFFCURVE",
"439 725 CURVE SMOOTH",
"316 665 LINE SMOOTH",
"310 663 OFFCURVE",
"315 651 OFFCURVE",
"320 654 CURVE SMOOTH",
"382 684 OFFCURVE",
"400 670 OFFCURVE",
"392 627 CURVE SMOOTH",
"290 89 LINE SMOOTH",
"276 16 OFFCURVE",
"283 -9 OFFCURVE",
"315 -9 CURVE SMOOTH"
);
}
);
width = 443;
},
{
anchors = (
{
name = bottom;
position = "{215, 0}";
},
{
name = center;
position = "{194, 193}";
},
{
name = top;
position = "{260, 386}";
},
{
name = topright;
position = "{426, 386}";
}
);
layerId = "A1717557-2B81-457C-987E-D55DA76CA63F";
paths = (
{
closed = 1;
nodes = (
"193 -13 OFFCURVE",
"271 96 OFFCURVE",
"330 246 CURVE",
"380 332 LINE",
"377 378 OFFCURVE",
"338 399 OFFCURVE",
"294 399 CURVE SMOOTH",
"185 399 OFFCURVE",
"50 270 OFFCURVE",
"23 126 CURVE SMOOTH",
"5 23 OFFCURVE",
"55 -13 OFFCURVE",
"108 -13 CURVE SMOOTH"
);
},
{
closed = 1;
nodes = (
"117 57 OFFCURVE",
"97 94 OFFCURVE",
"111 180 CURVE SMOOTH",
"129 288 OFFCURVE",
"170 350 OFFCURVE",
"237 350 CURVE SMOOTH",
"283 350 OFFCURVE",
"320 320 OFFCURVE",
"310 260 CURVE SMOOTH",
"298 191 OFFCURVE",
"233 57 OFFCURVE",
"158 57 CURVE SMOOTH"
);
},
{
closed = 1;
nodes = (
"361 -9 OFFCURVE",
"394 19 OFFCURVE",
"436 69 CURVE SMOOTH",
"441 74 OFFCURVE",
"433 82 OFFCURVE",
"428 77 CURVE SMOOTH",
"407 57 OFFCURVE",
"389 42 OFFCURVE",
"375 42 CURVE SMOOTH",
"364 42 OFFCURVE",
"356 51 OFFCURVE",
"363 89 CURVE SMOOTH",
"475 717 LINE SMOOTH",
"476 720 OFFCURVE",
"469 727 OFFCURVE",
"463 725 CURVE SMOOTH",
"308 649 LINE SMOOTH",
"302 647 OFFCURVE",
"306 635 OFFCURVE",
"312 637 CURVE SMOOTH",
"367 663 OFFCURVE",
"381 653 OFFCURVE",
"370 589 CURVE SMOOTH",
"278 89 LINE SMOOTH",
"267 25 OFFCURVE",
"277 -9 OFFCURVE",
"322 -9 CURVE SMOOTH"
);
}
);
width = 450;
}
);
leftKerningGroup = a;
leftMetricsKey = a;
unicode = 0064;
},
{
glyphname = eth;
layers = (
{
anchors = (
{
name = top;
position = "{232, 386}";
}
);
layerId = "2373B5BC-5F65-41C1-A640-5B37284EFBFD";
paths = (
{
closed = 1;
nodes = (
"250 -13 OFFCURVE",
"346 63 OFFCURVE",
"373 216 CURVE SMOOTH",
"408 415 OFFCURVE",
"325 640 OFFCURVE",
"186 725 CURVE SMOOTH",
"178 730 OFFCURVE",
"140 717 OFFCURVE",
"149 712 CURVE SMOOTH",
"280 632 OFFCURVE",
"361 401 OFFCURVE",
"323 204 CURVE",
"349 333 LINE",
"330 375 OFFCURVE",
"287 399 OFFCURVE",
"242 399 CURVE SMOOTH",
"167 399 OFFCURVE",
"57 332 OFFCURVE",
"32 186 CURVE SMOOTH",
"13 80 OFFCURVE",
"56 -13 OFFCURVE",
"154 -13 CURVE SMOOTH"
);
},
{
closed = 1;
nodes = (
"101 5 OFFCURVE",
"64 102 OFFCURVE",
"84 215 CURVE SMOOTH",
"103 322 OFFCURVE",
"166 381 OFFCURVE",
"228 381 CURVE SMOOTH",
"323 381 OFFCURVE",
"343 316 OFFCURVE",
"323 204 CURVE SMOOTH",
"298 62 OFFCURVE",
"244 5 OFFCURVE",
"181 5 CURVE SMOOTH"
);
},
{
closed = 1;
nodes = (
"414 626 LINE SMOOTH",
"420 628 OFFCURVE",
"411 646 OFFCURVE",
"406 643 CURVE SMOOTH",
"132 513 LINE SMOOTH",
"126 511 OFFCURVE",
"136 494 OFFCURVE",
"140 496 CURVE SMOOTH"
);
}
);
width = 401;
},
{
anchors = (
{
name = top;
position = "{232, 386}";
}
);
layerId = "A1717557-2B81-457C-987E-D55DA76CA63F";
paths = (
{
closed = 1;
nodes = (
"255 -13 OFFCURVE",
"357 63 OFFCURVE",
"385 216 CURVE SMOOTH",
"422 415 OFFCURVE",
"333 640 OFFCURVE",
"186 725 CURVE SMOOTH",
"182 730 OFFCURVE",
"168 717 OFFCURVE",
"172 712 CURVE SMOOTH",
"258 632 OFFCURVE",
"313 401 OFFCURVE",
"288 204 CURVE",
"349 333 LINE",
"330 375 OFFCURVE",
"287 399 OFFCURVE",
"242 399 CURVE SMOOTH",
"163 399 OFFCURVE",
"47 332 OFFCURVE",
"20 186 CURVE SMOOTH",
"-1 80 OFFCURVE",
"47 -13 OFFCURVE",
"154 -13 CURVE SMOOTH"
);
},
{
closed = 1;
nodes = (
"130 11 OFFCURVE",
"106 105 OFFCURVE",
"119 215 CURVE SMOOTH",
"133 319 OFFCURVE",
"181 378 OFFCURVE",
"228 378 CURVE SMOOTH",
"288 378 OFFCURVE",
"301 313 OFFCURVE",
"288 204 CURVE SMOOTH",
"269 67 OFFCURVE",
"229 11 OFFCURVE",
"181 11 CURVE SMOOTH"
);
},
{
closed = 1;
nodes = (
"415 625 LINE SMOOTH",
"421 627 OFFCURVE",
"408 648 OFFCURVE",
"404 646 CURVE SMOOTH",
"130 516 LINE SMOOTH",
"124 513 OFFCURVE",
"137 492 OFFCURVE",
"142 495 CURVE SMOOTH"
);
}
);
width = 401;
}
);
leftKerningGroup = oaccent;
leftMetricsKey = "=o";
rightKerningGroup = oaccent;
rightMetricsKey = "=o";
unicode = 00F0;
},
{
glyphname = dcroat;
layers = (
{
components = (
{
name = d;
}
);
layerId = "2373B5BC-5F65-41C1-A640-5B37284EFBFD";
paths = (
{
closed = 1;
nodes = (
"480 501 LINE SMOOTH",
"485 501 OFFCURVE",
"485 519 OFFCURVE",
"480 519 CURVE SMOOTH",
"193 519 LINE SMOOTH",
"187 519 OFFCURVE",
"187 501 OFFCURVE",
"193 501 CURVE SMOOTH"
);
}
);
width = 436;
},
{
components = (
{
name = d;
}
);
layerId = "A1717557-2B81-457C-987E-D55DA76CA63F";
paths = (
{
closed = 1;
nodes = (
"480 498 LINE SMOOTH",
"485 498 OFFCURVE",
"485 522 OFFCURVE",
"480 522 CURVE SMOOTH",
"193 522 LINE SMOOTH",
"187 522 OFFCURVE",
"187 498 OFFCURVE",
"193 498 CURVE SMOOTH"
);
}
);
width = 436;
}
);
leftKerningGroup = a;
unicode = 0111;
},
{
glyphname = e;
layers = (
{
anchors = (
{
name = bottom;
position = "{188, -12}";
},
{
name = ogonek;
position = "{260, 12}";
},
{
name = top;
position = "{226, 386}";
}
);
layerId = "2373B5BC-5F65-41C1-A640-5B37284EFBFD";
paths = (
{
closed = 1;
nodes = (
"200 -12 OFFCURVE",
"246 4 OFFCURVE",
"297 44 CURVE",
"301 48 OFFCURVE",
"294 55 OFFCURVE",
"290 53 CURVE",
"256 28 OFFCURVE",
"220 20 OFFCURVE",
"187 20 CURVE SMOOTH",
"101 20 OFFCURVE",
"63 104 OFFCURVE",
"85 218 CURVE SMOOTH",
"99 301 OFFCURVE",
"142 372 OFFCURVE",
"215 372 CURVE SMOOTH",
"243 372 OFFCURVE",
"275 361 OFFCURVE",
"264 324 CURVE SMOOTH",
"250 273 OFFCURVE",
"173 240 OFFCURVE",
"69 226 CURVE",
"67 213 LINE",
"193 228 OFFCURVE",
"308 283 OFFCURVE",
"322 345 CURVE SMOOTH",
"329 378 OFFCURVE",
"305 399 OFFCURVE",
"258 399 CURVE SMOOTH",
"147 399 OFFCURVE",
"50 284 OFFCURVE",
"33 185 CURVE SMOOTH",
"13 80 OFFCURVE",
"50 -12 OFFCURVE",
"154 -12 CURVE SMOOTH"
);
}
);
width = 339;
},
{
anchors = (
{
name = bottom;
position = "{193, 0}";
},
{
name = ogonek;
position = "{265, 12}";
},
{
name = top;
position = "{234, 386}";
}
);
layerId = "A1717557-2B81-457C-987E-D55DA76CA63F";
paths = (
{
closed = 1;
nodes = (
"209 -12 OFFCURVE",
"265 6 OFFCURVE",
"316 55 CURVE SMOOTH",
"319 58 OFFCURVE",
"312 65 OFFCURVE",
"309 63 CURVE SMOOTH",
"280 40 OFFCURVE",
"244 32 OFFCURVE",
"219 32 CURVE SMOOTH",
"136 32 OFFCURVE",
"108 116 OFFCURVE",
"124 218 CURVE SMOOTH",
"138 304 OFFCURVE",
"172 372 OFFCURVE",
"218 372 CURVE SMOOTH",
"242 372 OFFCURVE",
"254 353 OFFCURVE",
"249 324 CURVE SMOOTH",
"240 260 OFFCURVE",
"170 229 OFFCURVE",
"75 214 CURVE",
"73 201 LINE",
"207 215 OFFCURVE",
"343 275 OFFCURVE",
"350 345 CURVE SMOOTH",
"353 379 OFFCURVE",
"324 399 OFFCURVE",
"270 399 CURVE SMOOTH",
"144 399 OFFCURVE",
"47 290 OFFCURVE",
"27 185 CURVE SMOOTH",
"8 87 OFFCURVE",
"44 -12 OFFCURVE",
"160 -12 CURVE SMOOTH"
);
}
);
width = 357;
}
);
leftKerningGroup = o;
leftMetricsKey = o;
rightKerningGroup = c;
unicode = 0065;
},
{
glyphname = eogonek;
layers = (
{
anchors = (
{
name = top;
position = "{202, 386}";
}
);
components = (
{
name = e;
}
);
layerId = "2373B5BC-5F65-41C1-A640-5B37284EFBFD";
paths = (
{
closed = 1;
nodes = (
"188 -275 OFFCURVE",
"220 -262 OFFCURVE",
"256 -230 CURVE SMOOTH",
"260 -227 OFFCURVE",
"253 -219 OFFCURVE",
"249 -221 CURVE SMOOTH",
"233 -234 OFFCURVE",
"216 -248 OFFCURVE",
"187 -248 CURVE SMOOTH",
"133 -248 OFFCURVE",
"115 -207 OFFCURVE",
"125 -154 CURVE SMOOTH",
"137 -98 OFFCURVE",
"174 -53 OFFCURVE",
"295 44 CURVE",
"288 53 LINE",
"139 -53 OFFCURVE",
"94 -119 OFFCURVE",
"83 -179 CURVE SMOOTH",
"73 -237 OFFCURVE",
"102 -275 OFFCURVE",
"157 -275 CURVE SMOOTH"
);
}
);
width = 346;
},
{
anchors = (
{
name = top;
position = "{202, 386}";
}
);
components = (
{
name = e;
}
);
layerId = "A1717557-2B81-457C-987E-D55DA76CA63F";
paths = (
{
closed = 1;
nodes = (
"207 -275 OFFCURVE",
"249 -237 OFFCURVE",
"268 -205 CURVE SMOOTH",
"270 -201 OFFCURVE",
"263 -195 OFFCURVE",
"260 -199 CURVE SMOOTH",
"249 -209 OFFCURVE",
"230 -221 OFFCURVE",
"208 -221 CURVE SMOOTH",
"167 -221 OFFCURVE",
"159 -182 OFFCURVE",
"166 -143 CURVE SMOOTH",
"175 -90 OFFCURVE",
"214 -33 OFFCURVE",
"316 55 CURVE",
"309 63 LINE",
"147 -65 OFFCURVE",
"90 -120 OFFCURVE",
"77 -179 CURVE SMOOTH",
"63 -243 OFFCURVE",
"111 -275 OFFCURVE",
"157 -275 CURVE SMOOTH"
);
}
);
width = 357;
}
);
leftKerningGroup = oaccent;
rightKerningGroup = caccent;
rightMetricsKey = e;
unicode = 0119;
},
{
glyphname = schwa;
layers = (
{
anchors = (
{
name = top;
position = "{179, 386}";
}
);
layerId = "2373B5BC-5F65-41C1-A640-5B37284EFBFD";
rightMetricsKey = "=o";
paths = (
{
closed = 1;
nodes = (
"189 -13 OFFCURVE",
"289 57 OFFCURVE",
"319 191 CURVE SMOOTH",
"344 301 OFFCURVE",
"305 399 OFFCURVE",
"185 399 CURVE SMOOTH",
"130 399 OFFCURVE",
"82 378 OFFCURVE",
"44 342 CURVE SMOOTH",
"40 337 OFFCURVE",
"49 330 OFFCURVE",
"53 333 CURVE SMOOTH",
"82 359 OFFCURVE",
"117 375 OFFCURVE",
"156 375 CURVE SMOOTH",
"249 375 OFFCURVE",
"292 276 OFFCURVE",
"265 160 CURVE SMOOTH",
"243 57 OFFCURVE",
"201 12 OFFCURVE",
"139 12 CURVE SMOOTH",
"92 12 OFFCURVE",
"76 36 OFFCURVE",
"84 62 CURVE SMOOTH",
"98 108 OFFCURVE",
"166 127 OFFCURVE",
"283 152 CURVE",
"281 163 LINE",
"120 129 OFFCURVE",
"42 99 OFFCURVE",
"29 47 CURVE SMOOTH",
"21 12 OFFCURVE",
"43 -13 OFFCURVE",
"97 -13 CURVE SMOOTH"
);
}
);
width = 353;
},
{
anchors = (
{
name = top;
position = "{185, 386}";
}
);
layerId = "A1717557-2B81-457C-987E-D55DA76CA63F";
rightMetricsKey = "=o";
paths = (
{
closed = 1;
nodes = (
"208 -13 OFFCURVE",
"313 60 OFFCURVE",
"337 191 CURVE SMOOTH",
"356 295 OFFCURVE",
"320 399 OFFCURVE",
"195 399 CURVE SMOOTH",
"133 399 OFFCURVE",
"78 374 OFFCURVE",
"39 336 CURVE SMOOTH",
"34 331 OFFCURVE",
"43 324 OFFCURVE",
"47 327 CURVE SMOOTH",
"76 350 OFFCURVE",
"113 364 OFFCURVE",
"147 364 CURVE SMOOTH",
"228 364 OFFCURVE",
"260 280 OFFCURVE",
"242 160 CURVE SMOOTH",
"228 64 OFFCURVE",
"192 12 OFFCURVE",
"147 12 CURVE SMOOTH",
"118 12 OFFCURVE",
"109 34 OFFCURVE",
"113 62 CURVE SMOOTH",
"123 113 OFFCURVE",
"186 138 OFFCURVE",
"289 164 CURVE",
"287 174 LINE",
"116 140 OFFCURVE",
"22 105 OFFCURVE",
"12 47 CURVE SMOOTH",
"6 12 OFFCURVE",
"33 -13 OFFCURVE",
"97 -13 CURVE SMOOTH"
);
}
);
width = 364;
}
);
rightKerningGroup = o;
rightMetricsKey = o;
unicode = 0259;
},
{
glyphname = f;
layers = (
{
anchors = (
{
name = bottom;
position = "{96, 0}";
},
{
name = top;
position = "{164, 386}";
}
);
layerId = "2373B5BC-5F65-41C1-A640-5B37284EFBFD";
paths = (
{
closed = 1;
nodes = (
"39 -275 OFFCURVE",
"73 -212 OFFCURVE",
"101 -21 CURVE SMOOTH",
"167 439 LINE SMOOTH",
"193 620 OFFCURVE",
"233 712 OFFCURVE",
"287 712 CURVE SMOOTH",
"330 712 OFFCURVE",
"320 649 OFFCURVE",
"354 649 CURVE SMOOTH",
"368 649 OFFCURVE",
"381 656 OFFCURVE",
"385 675 CURVE SMOOTH",
"388 701 OFFCURVE",
"363 726 OFFCURVE",
"318 726 CURVE SMOOTH",
"204 726 OFFCURVE",
"160 660 OFFCURVE",
"120 418 CURVE SMOOTH",
"115 384 OFFCURVE",
"97 373 OFFCURVE",
"48 373 CURVE SMOOTH",
"44 373 OFFCURVE",
"42 361 OFFCURVE",
"47 361 CURVE SMOOTH",
"105 361 OFFCURVE",
"111 356 OFFCURVE",
"104 306 CURVE SMOOTH",
"53 -47 LINE SMOOTH",
"27 -227 OFFCURVE",
"15 -257 OFFCURVE",
"-9 -257 CURVE SMOOTH",
"-41 -257 OFFCURVE",
"-26 -207 OFFCURVE",
"-64 -207 CURVE SMOOTH",
"-84 -207 OFFCURVE",
"-97 -220 OFFCURVE",
"-98 -235 CURVE SMOOTH",
"-101 -255 OFFCURVE",
"-85 -275 OFFCURVE",
"-41 -275 CURVE SMOOTH"
);
},
{
closed = 1;
nodes = (
"250 340 OFFCURVE",
"268 363 OFFCURVE",
"270 374 CURVE SMOOTH",
"271 379 OFFCURVE",
"269 382 OFFCURVE",
"263 382 CURVE SMOOTH",
"250 382 OFFCURVE",
"174 375 OFFCURVE",
"132 375 CURVE",
"130 353 LINE",
"172 353 OFFCURVE",
"208 347 OFFCURVE",
"236 343 CURVE SMOOTH"
);
}
);
width = 260;
},
{
anchors = (
{
name = bottom;
position = "{101, 0}";
},
{
name = top;
position = "{168, 386}";
}
);
layerId = "A1717557-2B81-457C-987E-D55DA76CA63F";
paths = (
{
closed = 1;
nodes = (
"56 -275 OFFCURVE",
"99 -213 OFFCURVE",
"127 -21 CURVE SMOOTH",
"195 439 LINE SMOOTH",
"221 614 OFFCURVE",
"248 705 OFFCURVE",
"292 705 CURVE SMOOTH",
"331 705 OFFCURVE",
"291 627 OFFCURVE",
"364 627 CURVE SMOOTH",
"388 627 OFFCURVE",
"409 642 OFFCURVE",
"413 669 CURVE SMOOTH",
"418 701 OFFCURVE",
"384 726 OFFCURVE",
"324 726 CURVE SMOOTH",
"198 726 OFFCURVE",
"145 661 OFFCURVE",
"106 418 CURVE SMOOTH",
"101 384 OFFCURVE",
"84 375 OFFCURVE",
"41 375 CURVE SMOOTH",
"37 375 OFFCURVE",
"36 359 OFFCURVE",
"41 359 CURVE SMOOTH",
"91 359 OFFCURVE",
"97 356 OFFCURVE",
"90 306 CURVE SMOOTH",
"39 -47 LINE SMOOTH",
"13 -222 OFFCURVE",
"7 -255 OFFCURVE",
"-13 -255 CURVE SMOOTH",
"-48 -255 OFFCURVE",
"-14 -178 OFFCURVE",
"-78 -178 CURVE SMOOTH",
"-99 -178 OFFCURVE",
"-120 -191 OFFCURVE",
"-124 -218 CURVE SMOOTH",
"-129 -249 OFFCURVE",
"-95 -275 OFFCURVE",
"-35 -275 CURVE SMOOTH"
);
},
{
closed = 1;
nodes = (
"269 339 OFFCURVE",
"285 363 OFFCURVE",
"288 374 CURVE SMOOTH",
"289 379 OFFCURVE",
"287 386 OFFCURVE",
"281 386 CURVE SMOOTH",
"263 386 OFFCURVE",
"184 378 OFFCURVE",
"138 378 CURVE",
"136 351 LINE",
"184 351 OFFCURVE",
"254 339 OFFCURVE",
"256 339 CURVE SMOOTH"
);
}
);
width = 268;
}
);
leftKerningGroup = f;
rightKerningGroup = f;
unicode = 0066;
},
{
glyphname = g;
layers = (
{
anchors = (
{
name = bottom;
position = "{168, 108}";
},
{
name = center;
position = "{209, 244}";
},
{
name = top;
position = "{213, 381}";
},
{
name = topright;
position = "{345, 381}";
}
);
layerId = "2373B5BC-5F65-41C1-A640-5B37284EFBFD";
paths = (
{
closed = 1;
nodes = (
"216 -281 OFFCURVE",
"308 -215 OFFCURVE",
"313 -146 CURVE SMOOTH",
"324 -32 OFFCURVE",
"97 -19 OFFCURVE",
"108 65 CURVE SMOOTH",
"110 85 OFFCURVE",
"126 106 OFFCURVE",
"142 115 CURVE",
"131 123 LINE",
"98 94 OFFCURVE",
"74 70 OFFCURVE",
"68 41 CURVE SMOOTH",
"50 -55 OFFCURVE",
"278 -68 OFFCURVE",
"273 -175 CURVE SMOOTH",
"270 -221 OFFCURVE",
"227 -254 OFFCURVE",
"153 -254 CURVE SMOOTH",
"55 -254 OFFCURVE",
"-5 -202 OFFCURVE",
"6 -138 CURVE SMOOTH",
"15 -83 OFFCURVE",
"74 -56 OFFCURVE",
"124 -26 CURVE",
"117 -18 LINE",
"41 -61 OFFCURVE",
"-27 -101 OFFCURVE",
"-41 -159 CURVE SMOOTH",
"-56 -221 OFFCURVE",
"-1 -281 OFFCURVE",
"106 -281 CURVE SMOOTH"
);
},
{
closed = 1;
nodes = (
"219 98 OFFCURVE",
"295 156 OFFCURVE",
"313 246 CURVE SMOOTH",
"331 325 OFFCURVE",
"297 392 OFFCURVE",
"220 392 CURVE SMOOTH",
"142 392 OFFCURVE",
"71 330 OFFCURVE",
"55 246 CURVE SMOOTH",
"37 166 OFFCURVE",
"73 98 OFFCURVE",
"150 98 CURVE SMOOTH"
);
},
{
closed = 1;
nodes = (
"112 116 OFFCURVE",
"87 205 OFFCURVE",
"101 276 CURVE SMOOTH",
"111 333 OFFCURVE",
"152 375 OFFCURVE",
"195 375 CURVE SMOOTH",
"260 375 OFFCURVE",
"280 281 OFFCURVE",
"268 214 CURVE SMOOTH",
"256 152 OFFCURVE",
"216 116 OFFCURVE",
"175 116 CURVE SMOOTH"
);
},
{
closed = 1;
nodes = (
"296 359 OFFCURVE",
"343 364 OFFCURVE",
"374 349 CURVE SMOOTH",
"382 344 OFFCURVE",
"394 393 OFFCURVE",
"382 393 CURVE SMOOTH",
"344 393 OFFCURVE",
"296 377 OFFCURVE",
"256 353 CURVE",
"257 346 LINE"
);
}
);
width = 377;
},
{
anchors = (
{
name = bottom;
position = "{174, 108}";
},
{
name = center;
position = "{215, 244}";
},
{
name = top;
position = "{214, 381}";
},
{
name = topright;
position = "{351, 381}";
}
);
layerId = "A1717557-2B81-457C-987E-D55DA76CA63F";
paths = (
{
closed = 1;
nodes = (
"219 -281 OFFCURVE",
"317 -230 OFFCURVE",
"331 -146 CURVE SMOOTH",
"354 -1 OFFCURVE",
"118 -7 OFFCURVE",
"129 80 CURVE SMOOTH",
"130 94 OFFCURVE",
"140 110 OFFCURVE",
"152 116 CURVE",
"145 123 LINE",
"97 88 OFFCURVE",
"60 58 OFFCURVE",
"53 25 CURVE SMOOTH",
"34 -64 OFFCURVE",
"253 -65 OFFCURVE",
"251 -175 CURVE SMOOTH",
"251 -211 OFFCURVE",
"227 -250 OFFCURVE",
"161 -250 CURVE SMOOTH",
"91 -250 OFFCURVE",
"36 -204 OFFCURVE",
"44 -138 CURVE SMOOTH",
"51 -83 OFFCURVE",
"94 -49 OFFCURVE",
"130 -26 CURVE",
"123 -18 LINE",
"35 -64 OFFCURVE",
"-35 -108 OFFCURVE",
"-46 -167 CURVE SMOOTH",
"-56 -230 OFFCURVE",
"2 -281 OFFCURVE",
"110 -281 CURVE SMOOTH"
);
},
{
closed = 1;
nodes = (
"232 98 OFFCURVE",
"312 154 OFFCURVE",
"331 246 CURVE SMOOTH",
"347 323 OFFCURVE",
"313 392 OFFCURVE",
"225 392 CURVE SMOOTH",
"140 392 OFFCURVE",
"65 331 OFFCURVE",
"49 246 CURVE SMOOTH",
"34 168 OFFCURVE",
"69 98 OFFCURVE",
"154 98 CURVE SMOOTH"
);
},
{
closed = 1;
nodes = (
"149 120 OFFCURVE",
"127 175 OFFCURVE",
"136 253 CURVE SMOOTH",
"143 320 OFFCURVE",
"171 371 OFFCURVE",
"201 371 CURVE SMOOTH",
"241 371 OFFCURVE",
"250 292 OFFCURVE",
"244 237 CURVE SMOOTH",
"237 166 OFFCURVE",
"209 120 OFFCURVE",
"180 120 CURVE SMOOTH"
);
},
{
closed = 1;
nodes = (
"302 363 OFFCURVE",
"354 353 OFFCURVE",
"386 330 CURVE SMOOTH",
"394 324 OFFCURVE",
"406 396 OFFCURVE",
"394 396 CURVE SMOOTH",
"356 396 OFFCURVE",
"302 379 OFFCURVE",
"262 353 CURVE",
"263 346 LINE"
);
}
);
width = 388;
}
);
leftKerningGroup = g;
rightKerningGroup = g;
unicode = 0067;
},
{
glyphname = h;
layers = (
{
anchors = (
{
name = bottom;
position = "{212, 0}";
},
{
name = center;
position = "{229, 193}";
},
{
name = top;
position = "{256, 386}";
}
);
layerId = "2373B5BC-5F65-41C1-A640-5B37284EFBFD";
paths = (
{
closed = 1;
nodes = (
"78 -8 OFFCURVE",
"88 -2 OFFCURVE",
"89 6 CURVE SMOOTH",
"219 717 LINE SMOOTH",
"220 720 OFFCURVE",
"213 727 OFFCURVE",
"208 725 CURVE SMOOTH",
"85 665 LINE SMOOTH",
"80 663 OFFCURVE",
"84 651 OFFCURVE",
"90 654 CURVE SMOOTH",
"152 684 OFFCURVE",
"170 670 OFFCURVE",
"161 627 CURVE SMOOTH",
"57 74 LINE SMOOTH",
"51 39 OFFCURVE",
"42 2 OFFCURVE",
"42 -2 CURVE SMOOTH",
"42 -6 OFFCURVE",
"46 -8 OFFCURVE",
"63 -8 CURVE SMOOTH"
);
},
{
closed = 1;
nodes = (
"350 -9 OFFCURVE",
"384 19 OFFCURVE",
"428 69 CURVE SMOOTH",
"433 74 OFFCURVE",
"425 82 OFFCURVE",
"420 77 CURVE SMOOTH",
"391 47 OFFCURVE",
"366 28 OFFCURVE",
"350 28 CURVE SMOOTH",
"333 28 OFFCURVE",
"326 48 OFFCURVE",
"333 89 CURVE SMOOTH",
"366 267 LINE SMOOTH",
"382 361 OFFCURVE",
"366 399 OFFCURVE",
"309 399 CURVE SMOOTH",
"211 399 OFFCURVE",
"119 239 OFFCURVE",
"78 7 CURVE",
"89 6 LINE",
"131 234 OFFCURVE",
"215 365 OFFCURVE",
"281 365 CURVE SMOOTH",
"324 365 OFFCURVE",
"335 327 OFFCURVE",
"320 248 CURVE SMOOTH",
"291 89 LINE SMOOTH",
"278 16 OFFCURVE",
"284 -9 OFFCURVE",
"316 -9 CURVE SMOOTH"
);
}
);
width = 443;
},
{
anchors = (
{
name = bottom;
position = "{218, 0}";
},
{
name = center;
position = "{233, 193}";
},
{
name = top;
position = "{262, 386}";
}
);
layerId = "A1717557-2B81-457C-987E-D55DA76CA63F";
paths = (
{
closed = 1;
nodes = (
"95 -8 OFFCURVE",
"113 0 OFFCURVE",
"116 12 CURVE SMOOTH",
"241 717 LINE SMOOTH",
"242 720 OFFCURVE",
"235 727 OFFCURVE",
"229 725 CURVE SMOOTH",
"74 649 LINE SMOOTH",
"68 647 OFFCURVE",
"73 635 OFFCURVE",
"78 637 CURVE SMOOTH",
"133 663 OFFCURVE",
"147 653 OFFCURVE",
"136 589 CURVE SMOOTH",
"42 74 LINE SMOOTH",
"36 39 OFFCURVE",
"27 5 OFFCURVE",
"27 0 CURVE SMOOTH",
"27 -4 OFFCURVE",
"34 -8 OFFCURVE",
"60 -8 CURVE SMOOTH"
);
},
{
closed = 1;
nodes = (
"359 -9 OFFCURVE",
"392 19 OFFCURVE",
"434 69 CURVE SMOOTH",
"439 74 OFFCURVE",
"430 82 OFFCURVE",
"426 77 CURVE SMOOTH",
"405 57 OFFCURVE",
"387 42 OFFCURVE",
"373 42 CURVE SMOOTH",
"361 42 OFFCURVE",
"353 51 OFFCURVE",
"360 89 CURVE SMOOTH",
"393 267 LINE SMOOTH",
"409 357 OFFCURVE",
"385 399 OFFCURVE",
"329 399 CURVE SMOOTH",
"226 399 OFFCURVE",
"137 250 OFFCURVE",
"98 13 CURVE",
"116 12 LINE",
"152 226 OFFCURVE",
"221 342 OFFCURVE",
"278 342 CURVE SMOOTH",
"306 342 OFFCURVE",
"317 312 OFFCURVE",
"305 248 CURVE SMOOTH",
"276 89 LINE SMOOTH",
"264 25 OFFCURVE",
"275 -9 OFFCURVE",
"319 -9 CURVE SMOOTH"
);
}
);
width = 455;
}
);
leftKerningGroup = l;
rightKerningGroup = n;
rightMetricsKey = n;
unicode = 0068;
},
{
glyphname = hbar;
layers = (
{
components = (
{
name = h;
}
);
layerId = "2373B5BC-5F65-41C1-A640-5B37284EFBFD";
paths = (
{
closed = 1;
nodes = (
"359 501 LINE SMOOTH",
"365 501 OFFCURVE",
"365 519 OFFCURVE",
"359 519 CURVE SMOOTH",
"73 519 LINE SMOOTH",
"67 519 OFFCURVE",
"67 501 OFFCURVE",
"73 501 CURVE SMOOTH"
);
}
);
width = 443;
},
{
components = (
{
name = h;
}
);
layerId = "A1717557-2B81-457C-987E-D55DA76CA63F";
paths = (
{
closed = 1;
nodes = (
"359 498 LINE SMOOTH",
"365 498 OFFCURVE",
"365 522 OFFCURVE",
"359 522 CURVE SMOOTH",
"73 522 LINE SMOOTH",
"67 522 OFFCURVE",
"67 498 OFFCURVE",
"73 498 CURVE SMOOTH"
);
}
);
width = 443;
}
);
leftKerningGroup = l;
rightKerningGroup = n;
unicode = 0127;
},
